<svg width="25" height="24" viewBox="0 0 25 24" fill="none" xmlns="http://www.w3.org/2000/svg">
<g clip-path="url(#clip0_8497_29457)">
<path d="M2.02734 5H21.0273C21.3035 5 21.5273 5.22386 21.5273 5.5V17.5C21.5273 17.7761 21.3035 18 21.0273 18H2.02734C1.7512 18 1.52734 17.7761 1.52734 17.5V5.5C1.52734 5.22386 1.7512 5 2.02734 5Z" fill="#273472" stroke="#273472"/>
<path d="M3.52734 13H11.5273" stroke="white" stroke-linecap="round"/>
<path d="M3.52734 15H8.52734" stroke="white" stroke-linecap="round"/>
<path d="M1.52734 8.5L21.5273 8.5V10.5L1.52734 10.5L1.52734 8.5Z" fill="white" stroke="white"/>
<path d="M21.0947 15.775C20.6697 13.6188 18.776 12 16.501 12C14.6947 12 13.126 13.025 12.3447 14.525C10.4635 14.725 9.00098 16.3188 9.00098 18.25C9.00098 20.3187 10.6822 22 12.751 22H20.876C22.601 22 24.001 20.6 24.001 18.875C24.001 17.225 22.7197 15.8875 21.0947 15.775Z" fill="#4EB0E3"/>
</g>
<defs>
<clipPath id="clip0_8497_29457">
<rect width="24.0014" height="24" fill="white" transform="translate(0.000976562)"/>
</clipPath>
</defs>
</svg>
