<svg width="9" height="21" viewBox="0 0 9 21" fill="none" xmlns="http://www.w3.org/2000/svg">
<path d="M8.74572 11.2408C8.74572 11.2207 8.25998 8.26718 8.13326 7.38312C7.96431 6.27805 7.14064 5.43418 6.08466 5.19307C5.66227 5.43418 5.1554 5.57483 4.62741 5.57483C4.09942 5.57483 3.59256 5.43418 3.17017 5.19307C2.09307 5.43418 1.29052 6.27805 1.12156 7.38312C0.973728 8.28727 0.509092 11.2207 0.509092 11.2408C0.445733 11.6226 0.720293 11.9842 1.12156 12.0445C1.5862 12.1048 1.92411 11.8034 1.96635 11.4618C1.96635 11.4417 2.51546 8.00598 2.57882 7.62423C2.57882 7.60414 2.59993 7.58404 2.62105 7.58404C2.66329 7.58404 2.68442 7.60413 2.68442 7.64432V12.2655L2.0297 19.0567C1.98746 19.559 2.36762 20.001 2.89561 20.0412C3.4236 20.0814 3.88823 19.7197 3.93046 19.2174C3.93046 19.2174 4.56405 12.6071 4.56405 12.587C4.56405 12.5669 4.64854 12.5669 4.64854 12.587C4.64854 12.6071 5.28212 19.2174 5.28212 19.2174C5.32436 19.6996 5.70451 20.1015 6.31697 20.0412C6.84496 20.001 7.22512 19.559 7.18288 19.0567L6.52817 12.2655L6.5493 7.60413C6.5493 7.58404 6.57042 7.56396 6.59154 7.56396C6.61266 7.56396 6.63377 7.58404 6.63377 7.60413C6.69713 7.98588 7.24624 11.4417 7.24624 11.4819C7.3096 11.8235 7.58415 12.145 8.09102 12.0646C8.51341 11.9842 8.78796 11.6226 8.74572 11.2408Z" fill="#273472"/>
<path d="M4.60627 4.85101C5.73768 4.85101 6.65487 3.97844 6.65487 2.90207C6.65487 1.8257 5.73768 0.953125 4.60627 0.953125C3.47486 0.953125 2.55767 1.8257 2.55767 2.90207C2.55767 3.97844 3.47486 4.85101 4.60627 4.85101Z" fill="#273472"/>
</svg>
