<svg width="20" height="15" viewBox="0 0 20 15" fill="none" xmlns="http://www.w3.org/2000/svg">
<g id="Frame" clip-path="url(#clip0_8849_846)">
<path id="Vector" d="M2.56304 0.552202C2.39776 0.623675 2.25035 0.78449 2.18781 0.949772C2.15654 1.03465 2.13867 1.82979 2.13867 3.28605V5.49279H4.27394L4.2918 4.94334C4.30967 4.4877 4.32754 4.36262 4.42135 4.175C4.55536 3.89358 4.82339 3.62555 5.10928 3.4826V3.4826C5.25616 3.40916 5.41813 3.37093 5.58235 3.37093H7.91644C8.12634 3.37093 8.33294 3.42312 8.51766 3.52281V3.52281C8.83035 3.69256 8.96883 3.8355 9.13858 4.17053C9.24133 4.37155 9.25919 4.46536 9.27706 4.94334L9.29493 5.49279H10.7065L10.7244 4.94334C10.7423 4.4877 10.7601 4.36262 10.8539 4.175C10.988 3.89358 11.256 3.62555 11.5419 3.4826V3.4826C11.6888 3.40916 11.8507 3.37093 12.0149 3.37093H14.349C14.5589 3.37093 14.7655 3.42312 14.9503 3.52281V3.52281C15.2629 3.69256 15.4014 3.8355 15.5712 4.17053C15.6739 4.37155 15.6918 4.46536 15.7097 4.94334L15.7275 5.49279H17.8673L17.8539 3.21905C17.8405 0.99891 17.836 0.940838 17.7466 0.820227C17.6975 0.753221 17.5992 0.654945 17.5322 0.605807C17.4518 0.543268 14.9592 0.50902 10.0543 0.503064C3.99251 0.49413 2.67472 0.503064 2.56304 0.552202Z" fill="#273472"/>
<path id="Vector_2" d="M1.6153 6.98928C0.833557 7.19923 0.199232 7.86036 0.0428839 8.63316C0.00714732 8.78951 -0.00625391 9.74546 0.00268025 11.5993C0.0160815 14.2795 0.0160815 14.3332 0.10989 14.4538C0.284106 14.6905 0.427053 14.762 0.708478 14.762C0.989904 14.762 1.13285 14.6905 1.30707 14.4538C1.38747 14.351 1.40534 14.2527 1.41428 13.8418L1.43215 13.3549H18.5679L18.5857 13.8418C18.5947 14.2527 18.6125 14.351 18.6929 14.4538C18.8671 14.6905 19.0101 14.762 19.2915 14.762C19.5729 14.762 19.7159 14.6905 19.8901 14.4538C19.9839 14.3332 19.9839 14.2795 19.9973 11.5993C20.0063 9.74546 19.9929 8.78951 19.9571 8.63316C19.7963 7.85142 19.162 7.19476 18.3668 6.98928C17.9916 6.891 1.97713 6.89547 1.6153 6.98928V6.98928Z" fill="#273472"/>
</g>
<defs>
<clipPath id="clip0_8849_846">
<rect width="20" height="14.262" fill="white" transform="translate(0 0.5)"/>
</clipPath>
</defs>
</svg>
