
<svg width="24" height="24" viewBox="0 0 24 24" fill="none" xmlns="http://www.w3.org/2000/svg">
<path d="M17.7577 8.09778L14.9089 10.81V18.4483C14.9089 18.7251 14.7926 18.9834 14.5795 19.1863C14.3663 19.3893 14.1143 19.5 13.8043 19.5C13.5136 19.5 13.2422 19.3893 13.0291 19.1863C12.8159 18.9834 12.6996 18.7435 12.6996 18.4483V14.8875H12.0795V18.4483C12.0795 18.7251 11.9632 18.9834 11.75 19.1863C11.5368 19.3893 11.2849 19.5 10.9748 19.5C10.6841 19.5 10.4128 19.3893 10.1996 19.1863C9.98643 18.9834 9.87016 18.7435 9.87016 18.4483V10.81L7.02132 8.09778C6.8469 7.93173 6.75 7.71033 6.75 7.47048C6.75 7.23063 6.8469 7.00922 7.02132 6.84317C7.21512 6.67712 7.42829 6.58487 7.68023 6.58487C7.93217 6.58487 8.16473 6.67712 8.33915 6.84317L11.4012 8.96494H13.2616L16.3624 6.84317C16.5368 6.67712 16.7694 6.58487 17.0213 6.58487C17.2733 6.58487 17.5058 6.67712 17.6802 6.84317C17.8546 7.00922 17.9516 7.17527 17.9903 7.47048C18.0291 7.76568 17.9515 7.91328 17.7577 8.09778ZM13.9787 5.10886C14.405 5.51476 14.6182 6.01292 14.6182 6.58487C14.6182 7.15683 14.405 7.65498 13.9787 8.06089C13.5523 8.46679 13.0291 8.66974 12.4283 8.66974C11.8275 8.66974 11.3043 8.46679 10.8779 8.06089C10.4515 7.65498 10.2384 7.15683 10.2384 6.58487C10.2384 6.01292 10.4515 5.51476 10.8779 5.10886C11.3043 4.70295 11.8275 4.5 12.4283 4.5C13.0291 4.5 13.5523 4.70295 13.9787 5.10886Z" fill="#273472"/>
</svg>
