<svg width="24" height="25" viewBox="0 0 24 25" fill="none" xmlns="http://www.w3.org/2000/svg">
<g id="H&#195;&#179;spede">
<path id="Union" fill-rule="evenodd" clip-rule="evenodd" d="M12.0752 2.70821C12.3408 2.16907 12.9698 1.68463 13.5637 1.5557C14.3294 1.38771 15.0561 1.60258 15.6226 2.16126C16.0875 2.61836 16.2828 3.09108 16.2828 3.75133C16.2828 4.60302 15.814 5.36485 15.0522 5.7399C14.7592 5.88445 14.3411 5.98994 14.0559 5.98994C13.4973 5.98994 12.8917 5.72818 12.4737 5.31015C11.7861 4.61864 11.6298 3.60287 12.0752 2.70821ZM11.8177 7.33015C12.517 6.55661 12.8491 6.30266 13.3531 6.16202C13.6031 6.0917 14.1383 6.0956 14.4235 6.16983C14.8142 6.27141 15.2127 6.50582 15.6776 6.91213C17.3536 8.37718 18.3772 8.98664 19.475 9.17808C19.8892 9.25231 19.9517 9.27575 20.1314 9.43593C20.5103 9.7641 20.526 10.3345 20.1665 10.6939C19.9204 10.9361 19.7133 10.9791 19.1703 10.8971C17.9943 10.7252 17.2091 10.44 16.4394 9.91646C16.2636 9.79535 16.1152 9.70159 16.1074 9.7094C16.1034 9.71722 16.1581 10.3814 16.2324 11.1862C16.3066 12.0105 16.3535 12.7606 16.3457 12.9052C16.33 13.0966 16.2871 13.2333 16.1738 13.4599L16.0214 13.7608L16.2167 14.085C16.9708 15.3391 18.0647 17.4566 18.8617 19.2147C19.2523 20.0781 19.268 20.125 19.268 20.3867C19.2719 20.5821 19.2484 20.711 19.1898 20.8399C18.9476 21.3673 18.3303 21.6252 17.7912 21.422C17.3966 21.2736 17.3028 21.1407 16.7754 19.9921C16.2714 18.8982 15.6151 17.5621 15.1814 16.7534C14.7947 16.0384 14.361 15.2883 14.3337 15.2883C14.3024 15.2883 13.6226 16.5502 12.767 18.1989C11.5051 20.6289 11.2863 21.0196 11.0793 21.2072C10.7277 21.5236 10.2432 21.5822 9.83301 21.3595C9.41499 21.129 9.1962 20.6797 9.26653 20.1992C9.28606 20.0742 9.55563 19.5507 10.2237 18.3474C10.6328 17.6078 11.2042 16.5715 11.6295 15.8003C11.7321 15.6142 11.8263 15.4435 11.9075 15.2961L12.6615 13.917L12.5834 13.8116C12.4623 13.6475 12.3451 13.4013 12.2982 13.2138C12.2748 13.12 12.1966 12.3387 12.1224 11.4831C12.0482 10.6236 11.9818 9.91646 11.9739 9.91256C11.9544 9.89302 11.5715 10.4322 11.2942 10.8736C11.048 11.2604 10.7589 11.8074 10.4659 12.4285C10.2862 12.8153 10.1651 12.9403 9.89552 13.0341C9.72753 13.0927 9.68456 13.1669 6.74273 18.3552L5.74649 20.1132L5.82072 20.2578C5.93402 20.4727 5.94964 20.6797 5.87541 20.9063C5.73086 21.34 5.21126 21.6096 4.80885 21.4572C4.34785 21.2853 4.09 20.7657 4.26581 20.3516L4.3205 20.2226L3.76574 19.914C3.12502 19.5585 3 19.453 3 19.2655C3 19.1639 3.33599 18.5388 4.44552 16.5776C5.2386 15.1711 5.93792 13.9756 5.99653 13.9249C6.16061 13.7803 6.30516 13.8272 7.12169 14.2882C7.528 14.5187 7.87961 14.6984 7.89914 14.6867C7.92258 14.6789 8.17653 14.2569 8.46172 13.749L8.98133 12.8231L8.9071 12.7176C8.68441 12.4012 8.70004 12.1121 8.98133 11.4987C9.58298 10.1626 10.5792 8.69754 11.8177 7.33015ZM5.05108 20.9688C5.32065 20.9688 5.44957 20.6368 5.25423 20.4531C5.0628 20.2734 4.75807 20.4063 4.75807 20.668C4.75807 20.8477 4.87527 20.9688 5.05108 20.9688Z" fill="#273472"/>
</g>
</svg>
