<svg width="25" height="24" viewBox="0 0 25 24" fill="none" xmlns="http://www.w3.org/2000/svg">
<path d="M3.00391 6C2.45391 6 2.00391 6.45 2.00391 7V20C2.00391 21.1 2.90391 22 4.00391 22H17.0039C17.5539 22 18.0039 21.55 18.0039 21C18.0039 20.45 17.5539 20 17.0039 20H5.00391C4.45391 20 4.00391 19.55 4.00391 19V7C4.00391 6.45 3.55391 6 3.00391 6ZM20.0039 2H8.00391C6.90391 2 6.00391 2.9 6.00391 4V16C6.00391 17.1 6.90391 18 8.00391 18H20.0039C21.1039 18 22.0039 17.1 22.0039 16V4C22.0039 2.9 21.1039 2 20.0039 2ZM18.0039 11H15.0039V14C15.0039 14.55 14.5539 15 14.0039 15C13.4539 15 13.0039 14.55 13.0039 14V11H10.0039C9.45391 11 9.00391 10.55 9.00391 10C9.00391 9.45 9.45391 9 10.0039 9H13.0039V6C13.0039 5.45 13.4539 5 14.0039 5C14.5539 5 15.0039 5.45 15.0039 6V9H18.0039C18.5539 9 19.0039 9.45 19.0039 10C19.0039 10.55 18.5539 11 18.0039 11Z" fill="#273472"/>
</svg>
