<svg width="32" height="32" viewBox="0 0 32 32" fill="none" xmlns="http://www.w3.org/2000/svg">
<path d="M3 14C2.45 14 2 14.45 2 15V28C2 29.1 2.9 30 4 30H17C17.55 30 18 29.55 18 29C18 28.45 17.55 28 17 28H5C4.45 28 4 27.55 4 27V15C4 14.45 3.55 14 3 14ZM20 10H8C6.9 10 6 10.9 6 12V24C6 25.1 6.9 26 8 26H20C21.1 26 22 25.1 22 24V12C22 10.9 21.1 10 20 10ZM18 19H15C14 19 14.55 19 14 19C13.45 19 14 19 13 19H10C9.45 19 9 18.55 9 18C9 17.45 9.45 17 10 17H13C14 17 13.45 17 14 17C14.55 17 14.5 17 15 17H18C18.55 17 19 17.45 19 18C19 18.55 18.55 19 18 19Z" fill="#273472"/>
<path d="M25.54 13.544C25.372 13.544 25.24 13.496 25.144 13.4C25.048 13.304 25 13.176 25 13.016C25 12.848 25.048 12.72 25.144 12.632C25.24 12.544 25.372 12.5 25.54 12.5H27.004V6.116H27.628L25.876 7.232C25.748 7.304 25.628 7.332 25.516 7.316C25.412 7.3 25.32 7.256 25.24 7.184C25.168 7.112 25.116 7.024 25.084 6.92C25.06 6.816 25.068 6.708 25.108 6.596C25.156 6.484 25.24 6.392 25.36 6.32L27.016 5.276C27.152 5.196 27.28 5.132 27.4 5.084C27.528 5.028 27.648 5 27.76 5C27.896 5 28.008 5.04 28.096 5.12C28.192 5.192 28.24 5.316 28.24 5.492V12.5H29.584C29.76 12.5 29.896 12.544 29.992 12.632C30.088 12.72 30.136 12.848 30.136 13.016C30.136 13.184 30.088 13.316 29.992 13.412C29.896 13.5 29.76 13.544 29.584 13.544H25.54Z" fill="#273472"/>
</svg>
