<svg width="24" height="25" viewBox="0 0 24 25" fill="none" xmlns="http://www.w3.org/2000/svg">
<g id="view_agenda" clip-path="url(#clip0_8670_31165)">
<path id="Vector" d="M17 21.5L17 4.5C17 3.95 16.4375 3.5 15.75 3.5L8.25 3.5C7.5625 3.5 7 3.95 7 4.5L7 21.5C7 22.05 7.5625 22.5 8.25 22.5L15.75 22.5C16.4375 22.5 17 22.05 17 21.5Z" fill="#273472"/>
<path id="Vector_2" d="M6 7.18421L6 18.8158C6 19.1921 5.6625 19.5 5.25 19.5L0.75 19.5C0.3375 19.5 -7.79524e-08 19.1921 -6.15031e-08 18.8158L4.46929e-07 7.18421C4.63379e-07 6.80789 0.337501 6.5 0.75 6.5L5.25 6.5C5.6625 6.5 6 6.80789 6 7.18421Z" fill="#273472"/>
<path id="Vector_3" d="M24 7.18421L24 18.8158C24 19.1921 23.6625 19.5 23.25 19.5L18.75 19.5C18.3375 19.5 18 19.1921 18 18.8158L18 7.18421C18 6.80789 18.3375 6.5 18.75 6.5L23.25 6.5C23.6625 6.5 24 6.80789 24 7.18421Z" fill="#273472"/>
</g>
<defs>
<clipPath id="clip0_8670_31165">
<rect width="24" height="24" fill="white" transform="translate(24 0.5) rotate(90)"/>
</clipPath>
</defs>
</svg>
