<svg width="210" height="164" viewBox="0 0 210 164" fill="none" xmlns="http://www.w3.org/2000/svg">
<g opacity="0.5">
<path opacity="0.1" d="M22.1628 16.4202C20.7913 16.9893 19.3837 17.7198 18.6301 19.0003C17.8318 20.353 17.9273 22.0327 18.076 23.5977C19.371 37.1713 22.7827 51.6069 16.8913 63.9021C14.0316 69.8671 9.24846 74.6471 5.44402 80.0642C1.63957 85.4813 -1.23287 92.2447 0.533483 98.6174C2.69047 106.404 10.7409 110.721 16.1674 116.714C19.7192 120.632 22.2095 125.393 25.5235 129.515C28.8375 133.636 33.3787 137.268 38.6692 137.51C46.2781 137.86 52.4688 131.288 59.9291 129.765C67.5719 128.207 75.2679 132.173 81.4649 136.921C87.662 141.67 93.2986 147.422 100.519 150.387C108.493 153.663 117.482 153.162 125.876 155.131C133.519 156.925 140.555 160.741 148.142 162.775C155.73 164.81 164.623 164.686 170.502 159.49C178.164 152.695 177.561 140.591 182.455 131.602C187 123.25 195.898 118.264 201.887 110.881C212.663 97.5918 212.311 77.2803 203.16 62.8276C194.01 48.375 177.436 39.6239 160.488 37.3454C152.845 36.3197 144.975 36.4599 137.627 34.1261C117.96 27.883 106.255 5.51383 86.1759 0.859074C73.4123 -2.09474 60.9991 3.02082 50.1271 9.31705C40.6903 14.783 31.9838 12.3452 22.1628 16.4202Z" fill="#EE4978"/>
<path d="M143.336 72.9654H128.049V82.7377H143.336V72.9654Z" fill="#6390A6"/>
<path d="M95.9009 41.5037H80.6141V51.276H95.9009V41.5037Z" fill="#6390A6"/>
<path d="M119.517 88.2458H104.23V98.0181H119.517V88.2458Z" fill="#6390A6"/>
<path d="M188.024 76.1636V55.3753H176.47V41.8718H168.649V55.3753H157.095V76.1636H150.696V29.4343H137.72V24.9924H120.478V20.5504H103.414V24.9924H87.238V29.4343H73.1955V75.986H65.7299V55.1976H54.176V41.6941H46.3549V55.1976H34.8009V75.986H27.3353V149.722H44.3996V123.604H56.1313V149.722H101.991V119.339H121.9V149.722H149.629V149.9H166.694V123.781H178.425V149.9H195.489V76.1636H188.024ZM33.4678 85.0475H40.2224V90.3779H33.4678V85.0475ZM33.5567 99.9725H40.3113V105.303H33.5567V99.9725ZM40.4002 120.228H33.6456V114.897H40.4002V120.228ZM58.0866 72.077H42.4443V68.8788H58.0866V72.077ZM58.0866 67.4574H42.4443V64.2592H58.0866V67.4574ZM58.0866 62.8378H42.4443V59.6396H58.0866V62.8378ZM60.3085 85.0475H67.0631V90.3779H60.3085V85.0475ZM60.3973 99.9725H67.152V105.303H60.3973V99.9725ZM67.2408 120.228H60.4862V114.897H67.2408V120.228ZM94.8814 111.344H82.4387V105.836H94.8814V111.344ZM94.8814 95.5305H82.4387V90.0225H94.8814V95.5305ZM94.8814 79.7172H82.4387V74.2092H94.8814V79.7172ZM94.8814 63.9039H82.4387V58.3958H94.8814V63.9039ZM94.8814 48.0905H82.4387V42.5825H94.8814V48.0905ZM118.167 111.344H105.724V105.836H118.167V111.344ZM118.167 95.5305H105.724V90.0225H118.167V95.5305ZM118.167 79.7172H105.724V74.2092H118.167V79.7172ZM118.167 63.9039H105.724V58.3958H118.167V63.9039ZM118.167 48.0905H105.724V42.5825H118.167V48.0905ZM141.453 111.344H129.01V105.836H141.453V111.344ZM141.453 95.5305H129.01V90.0225H141.453V95.5305ZM141.453 79.7172H129.01V74.2092H141.453V79.7172ZM141.453 63.9039H129.01V58.3958H141.453V63.9039ZM141.453 48.0905H129.01V42.5825H141.453V48.0905ZM155.762 85.2252H162.516V90.5556H155.762V85.2252ZM155.851 100.15H162.605V105.481H155.851V100.15ZM162.694 120.405H155.939V115.075H162.694V120.405ZM180.38 72.2547H164.738V69.0565H180.38V72.2547ZM180.38 67.6351H164.738V64.4369H180.38V67.6351ZM180.38 63.0155H164.738V59.8173H180.38V63.0155ZM182.602 85.2252H189.357V90.5556H182.602V85.2252ZM182.691 100.15H189.446V105.481H182.691V100.15ZM189.535 120.405H182.78V115.075H189.535V120.405Z" fill="#C9E2EF"/>
<path d="M37.8563 131.725C37.8065 132.428 37.7287 133.214 37.6084 134.04L39.7816 131.631L39.7935 131.672C39.6606 131.092 39.4466 130.534 39.1579 130.014L39.1718 130.052L37.8563 131.725Z" fill="#EE4978"/>
<path d="M37.8647 131.602L39.1391 129.981C38.868 129.486 38.4758 129.069 37.9993 128.767C37.9759 128.753 37.9525 128.74 37.929 128.727C37.9359 128.918 37.9693 130.042 37.8647 131.602Z" fill="#EE4978"/>
<path d="M36.7151 137.957C36.6591 138.127 36.6013 138.295 36.5416 138.459L39.742 136.583L39.7465 136.63C39.8134 136.339 39.869 136.047 39.9136 135.755L36.718 137.978L36.7151 137.957Z" fill="#EE4978"/>
<path d="M37.1602 136.383L40.0425 134.007L40.0507 134.051C40.0609 133.265 39.9779 132.481 39.8036 131.715L37.589 134.17C37.4727 134.944 37.3298 135.681 37.1602 136.383Z" fill="#EE4978"/>
<path d="M37.5395 134.123L34.0906 130.277L34.109 130.233C33.7848 130.69 33.5076 131.177 33.2815 131.689L37.2173 135.878C37.3521 135.267 37.4574 134.675 37.5395 134.123Z" fill="#EE4978"/>
<path d="M33.2443 131.776L33.2444 131.776C33.2507 131.762 33.2561 131.746 33.2624 131.732L33.2443 131.776Z" fill="#EE4978"/>
<path d="M33.0525 132.248L33.0347 132.292C33.0403 132.277 33.0469 132.263 33.0526 132.248L33.0525 132.248Z" fill="#EE4978"/>
<path d="M37.1946 135.98L33.2444 131.776C33.1777 131.929 33.1137 132.086 33.0525 132.248L37.0898 136.425C37.1265 136.276 37.1615 136.127 37.1946 135.98Z" fill="#EE4978"/>
<path d="M39.922 135.699C40.0006 135.171 40.0435 134.637 40.0503 134.103L37.1289 136.511C37.0132 136.978 36.8858 137.427 36.7468 137.858L39.9158 135.653L39.922 135.699Z" fill="#EE4978"/>
<path d="M32.5286 135.999L35.7261 140.169C35.9888 139.661 36.2208 139.138 36.4209 138.603L32.5193 134.507C32.4806 135.019 32.4764 135.533 32.5065 136.046L32.5286 135.999Z" fill="#EE4978"/>
<path d="M37.8705 128.723L37.8992 128.71C37.1989 128.337 36.4408 128.377 35.7142 128.756L37.8084 131.599C37.9211 129.912 37.8713 128.74 37.8705 128.723Z" fill="#EE4978"/>
<path d="M36.4378 138.738C36.2543 139.22 36.0446 139.691 35.8098 140.15L39.0261 138.486L39.0294 138.533C39.2717 138.124 39.4612 137.685 39.5933 137.229C39.6444 137.049 39.691 136.869 39.7332 136.688L36.4946 138.586C36.4758 138.637 36.4571 138.688 36.4378 138.738Z" fill="#EE4978"/>
<path d="M37.7998 131.725L35.6576 128.816L35.6777 128.775C35.0646 129.13 34.5377 129.616 34.1349 130.198L37.5557 134.013C37.6741 133.197 37.7508 132.42 37.7998 131.725Z" fill="#EE4978"/>
<path d="M36.456 138.509C36.6945 137.859 36.8978 137.196 37.065 136.524L33.0177 132.337C32.9213 132.599 32.8328 132.871 32.7522 133.153C32.6403 133.558 32.5656 133.973 32.5291 134.391L36.4529 138.511L36.456 138.509Z" fill="#EE4978"/>
<path d="M40.6132 143.027C40.1265 143.536 39.5649 144.092 38.9451 144.652L42.156 144.182L42.1395 144.22C42.4071 143.689 42.5984 143.123 42.7078 142.538L42.6942 142.576L40.6132 143.027Z" fill="#EE4978"/>
<path d="M42.611 140.839C42.6019 140.814 42.5922 140.789 42.5824 140.764C42.4656 140.916 41.7741 141.803 40.6984 142.937L42.7142 142.501C42.8209 141.947 42.7854 141.376 42.611 140.839Z" fill="#EE4978"/>
<path d="M35.7578 147.099C35.6059 147.194 35.4546 147.286 35.3038 147.375L38.9656 147.971L38.939 148.01C39.1766 147.828 39.4056 147.639 39.626 147.442L35.7464 147.117L35.7578 147.099Z" fill="#EE4978"/>
<path d="M37.1053 146.17L40.8415 146.178L40.8194 146.217C41.3286 145.618 41.765 144.962 42.1196 144.26L38.8475 144.739C38.2642 145.261 37.6835 145.738 37.1053 146.17Z" fill="#EE4978"/>
<path d="M35.8457 147.043L39.693 147.365L39.6684 147.404C40.0664 147.047 40.4398 146.664 40.7861 146.256L36.9994 146.249C36.6123 146.535 36.2277 146.799 35.8457 147.043Z" fill="#EE4978"/>
<path d="M31.1334 148.946C31.1606 148.918 31.1895 148.888 31.2179 148.859C32.0024 148.734 32.769 148.515 33.5011 148.207L33.6057 145.435C33.6367 145.365 33.6668 145.294 33.6961 145.222L33.5848 148.172C34.1111 147.948 34.6234 147.694 35.1191 147.409L34.7618 142.257C34.7893 142.242 34.8171 142.228 34.8456 142.213L35.2025 147.358L35.206 147.359C35.8046 147.01 36.384 146.629 36.9416 146.218L36.5526 141.148C36.5801 141.128 36.6076 141.108 36.6352 141.088L37.0242 146.157C37.1476 146.066 37.2691 145.974 37.3887 145.882L37.0677 140.749C37.0952 140.727 37.1227 140.704 37.1501 140.681L37.4713 145.818C37.9652 145.433 38.424 145.044 38.8391 144.672L38.6372 139.51L38.6792 139.488C38.5358 139.526 38.3901 139.57 38.2431 139.619C38.5195 139.303 38.7681 138.964 38.9861 138.606L35.739 140.285C35.5142 140.712 35.2614 141.124 34.9822 141.517C34.9242 141.572 34.8662 141.627 34.809 141.684L34.8132 141.745C34.7867 141.78 34.7604 141.815 34.7336 141.85L34.7278 141.767C34.6868 141.809 34.6469 141.853 34.6063 141.896C35.0175 141.383 35.3784 140.832 35.684 140.249L32.5099 136.11C32.5315 136.48 32.5677 136.852 32.6143 137.222C32.3196 136.743 31.9617 136.306 31.5502 135.922L31.5752 135.954L30.8417 137.952C31.0117 138.636 31.1808 139.408 31.3218 140.231L32.6255 137.309C32.6314 137.354 32.6377 137.4 32.644 137.445L31.3435 140.36C31.4722 141.132 31.5643 141.877 31.6199 142.597L33.1807 140.146C33.1897 140.181 33.1986 140.216 33.2075 140.251L31.6298 142.728C31.6641 143.208 31.6818 143.675 31.6829 144.127L33.5909 141.611C33.6011 141.644 33.611 141.676 33.6209 141.708L31.6928 144.251L31.6834 144.231C31.6828 144.411 31.6796 144.588 31.6737 144.763L33.8259 142.34C33.8373 142.374 33.8479 142.405 33.8577 142.434L31.6683 144.898C31.666 144.952 31.664 145.006 31.6613 145.06C31.6356 145.575 31.582 146.088 31.5006 146.597L31.7083 146.386C31.6689 146.468 31.6306 146.548 31.5933 146.628L31.4752 146.747C31.4616 146.825 31.4461 146.901 31.4313 146.978C31.3877 147.073 31.3456 147.167 31.3052 147.258C31.3442 147.083 31.3806 146.907 31.4117 146.73L27.113 143.774C28.2345 146.642 30.3464 149.37 30.4816 149.543C30.5914 149.338 30.6911 149.128 30.7826 148.912C30.8093 148.91 30.8359 148.907 30.8624 148.905C30.8515 148.931 30.84 148.957 30.8288 148.983C30.8154 148.985 30.8019 148.987 30.7885 148.988C30.7989 148.991 30.8114 148.994 30.8227 148.998C30.7582 149.148 30.6914 149.296 30.6197 149.439C30.7135 149.354 30.8564 149.221 31.0273 149.052C32.0381 149.31 34.7613 149.861 37.0929 149.047L33.5205 148.27C32.756 148.593 31.9541 148.82 31.1334 148.946ZM33.6437 144.427L33.7294 144.341L33.7245 144.47L33.6388 144.557L33.6437 144.427Z" fill="#EE4978"/>
<path d="M42.5397 140.724L42.5699 140.732C42.2692 139.998 41.6597 139.545 40.8582 139.374L40.6569 142.899C41.8205 141.671 42.5296 140.737 42.5397 140.724Z" fill="#EE4978"/>
<path d="M35.0461 147.523C34.5974 147.777 34.1352 148.007 33.6615 148.21L37.2001 148.98L37.173 149.018C37.6208 148.857 38.0464 148.64 38.4396 148.373C38.5936 148.267 38.7445 148.158 38.8923 148.045L35.1869 147.443C35.1399 147.47 35.0929 147.497 35.0461 147.523Z" fill="#EE4978"/>
<path d="M38.9218 144.597C39.5341 144.044 40.0889 143.494 40.57 142.99L40.7759 139.384L40.8178 139.365C40.1193 139.248 39.4034 139.286 38.7216 139.478L38.9218 144.597Z" fill="#EE4978"/>
<path d="M31.5223 135.897C31.1115 135.511 30.6094 135.234 30.0629 135.095C30.0363 135.089 30.01 135.083 29.9836 135.078C30.0495 135.258 30.4288 136.317 30.8116 137.832L31.5223 135.897Z" fill="#EE4978"/>
<path d="M31.2822 140.331L26.8126 137.738L26.8167 137.691C26.6495 138.225 26.5367 138.775 26.48 139.332L31.5182 142.099C31.4575 141.476 31.3746 140.881 31.2822 140.331Z" fill="#EE4978"/>
<path d="M26.4712 139.426L26.4714 139.426C26.4729 139.41 26.4732 139.394 26.4748 139.378L26.4712 139.426Z" fill="#EE4978"/>
<path d="M26.4347 139.933L26.4314 139.981C26.4321 139.965 26.4341 139.95 26.4348 139.933L26.4347 139.933Z" fill="#EE4978"/>
<path d="M31.5281 142.203L26.4715 139.426C26.4552 139.592 26.443 139.761 26.4348 139.934L31.566 142.658C31.5548 142.505 31.5422 142.353 31.5281 142.203Z" fill="#EE4978"/>
<path d="M31.6035 144.937L26.6263 142.247C26.7479 142.746 26.9028 143.236 27.09 143.714L27.0965 143.663L31.4269 146.641C31.5198 146.077 31.5788 145.508 31.6035 144.937Z" fill="#EE4978"/>
<path d="M29.927 135.093L29.9503 135.072C29.1687 134.933 28.4601 135.205 27.8864 135.79L30.7572 137.847C30.3425 136.207 29.9329 135.109 29.927 135.093Z" fill="#EE4978"/>
<path d="M30.7878 137.969L27.8511 135.865L27.8574 135.82C27.384 136.346 27.0331 136.971 26.8302 137.65L31.2633 140.221C31.1233 139.408 30.956 138.645 30.7878 137.969Z" fill="#EE4978"/>
<path d="M31.6077 144.837C31.6335 144.145 31.6219 143.452 31.5731 142.761L26.4291 140.029C26.4184 140.307 26.4183 140.594 26.429 140.887C26.4479 141.307 26.505 141.724 26.5997 142.134L31.6053 144.839L31.6077 144.837Z" fill="#EE4978"/>
<path d="M190.013 131.192C189.963 131.895 189.885 132.681 189.765 133.507L191.938 131.098L191.95 131.139C191.817 130.559 191.603 130.001 191.314 129.481L191.328 129.519L190.013 131.192Z" fill="#EE4978"/>
<path d="M190.021 131.069L191.295 129.448C191.024 128.953 190.632 128.536 190.156 128.234C190.132 128.22 190.109 128.207 190.085 128.194C190.092 128.385 190.126 129.509 190.021 131.069Z" fill="#EE4978"/>
<path d="M188.871 137.424C188.815 137.594 188.758 137.762 188.698 137.926L191.898 136.05L191.903 136.097C191.97 135.806 192.025 135.514 192.07 135.222L188.874 137.445L188.871 137.424Z" fill="#EE4978"/>
<path d="M189.317 135.85L192.199 133.473L192.207 133.518C192.217 132.732 192.134 131.948 191.96 131.182L189.745 133.637C189.629 134.411 189.486 135.148 189.317 135.85Z" fill="#EE4978"/>
<path d="M189.696 133.59L186.247 129.744L186.265 129.7C185.941 130.157 185.664 130.644 185.438 131.156L189.374 135.345C189.508 134.734 189.614 134.142 189.696 133.59Z" fill="#EE4978"/>
<path d="M185.401 131.243L185.401 131.243C185.407 131.229 185.412 131.213 185.419 131.199L185.401 131.243Z" fill="#EE4978"/>
<path d="M189.351 135.447L185.401 131.243C185.334 131.396 185.27 131.553 185.209 131.715L189.246 135.892C189.283 135.743 189.318 135.594 189.351 135.447Z" fill="#EE4978"/>
<path d="M185.209 131.715L185.191 131.759C185.197 131.744 185.203 131.73 185.209 131.715L185.209 131.715Z" fill="#EE4978"/>
<path d="M192.078 135.166C192.157 134.638 192.2 134.104 192.207 133.57L189.285 135.978C189.17 136.445 189.042 136.894 188.903 137.325L192.072 135.12L192.078 135.166Z" fill="#EE4978"/>
<path d="M184.685 135.466L187.883 139.636C188.145 139.128 188.377 138.605 188.577 138.07L184.676 133.974C184.637 134.486 184.633 135 184.663 135.513L184.685 135.466Z" fill="#EE4978"/>
<path d="M190.027 128.19L190.056 128.178C189.355 127.804 188.597 127.844 187.871 128.223L189.965 131.066C190.077 129.379 190.028 128.207 190.027 128.19Z" fill="#EE4978"/>
<path d="M188.594 138.205C188.411 138.687 188.201 139.158 187.966 139.617L191.183 137.954L191.186 138C191.428 137.591 191.618 137.152 191.75 136.696C191.801 136.516 191.847 136.336 191.89 136.155L188.651 138.053C188.632 138.104 188.613 138.155 188.594 138.205Z" fill="#EE4978"/>
<path d="M189.956 131.192L187.814 128.283L187.834 128.242C187.221 128.597 186.694 129.083 186.291 129.665L189.712 133.48C189.83 132.663 189.907 131.887 189.956 131.192Z" fill="#EE4978"/>
<path d="M188.612 137.976C188.851 137.326 189.054 136.663 189.221 135.991L185.174 131.804C185.078 132.065 184.989 132.337 184.909 132.62C184.797 133.025 184.722 133.44 184.685 133.858L188.609 137.978L188.612 137.976Z" fill="#EE4978"/>
<path d="M192.77 142.494C192.283 143.003 191.721 143.559 191.101 144.119L194.312 143.649L194.296 143.687C194.563 143.156 194.755 142.59 194.864 142.005L194.851 142.043L192.77 142.494Z" fill="#EE4978"/>
<path d="M194.767 140.306C194.758 140.281 194.749 140.256 194.739 140.231C194.622 140.383 193.931 141.269 192.855 142.404L194.871 141.968C194.977 141.414 194.942 140.843 194.767 140.306Z" fill="#EE4978"/>
<path d="M187.914 146.566C187.762 146.661 187.611 146.753 187.46 146.842L191.122 147.438L191.096 147.477C191.333 147.295 191.562 147.106 191.782 146.909L187.903 146.584L187.914 146.566Z" fill="#EE4978"/>
<path d="M189.262 145.637L192.998 145.645L192.976 145.684C193.485 145.085 193.921 144.429 194.276 143.727L191.004 144.206C190.42 144.728 189.84 145.205 189.262 145.637Z" fill="#EE4978"/>
<path d="M188.002 146.51L191.849 146.832L191.825 146.871C192.223 146.514 192.596 146.131 192.943 145.723L189.156 145.716C188.769 146.002 188.384 146.266 188.002 146.51Z" fill="#EE4978"/>
<path d="M183.29 148.413C183.317 148.385 183.346 148.355 183.374 148.326C184.159 148.201 184.925 147.982 185.658 147.674L185.762 144.902C185.793 144.832 185.823 144.761 185.853 144.689L185.741 147.639C186.268 147.415 186.78 147.161 187.276 146.876L186.918 141.723C186.946 141.709 186.974 141.695 187.002 141.68L187.359 146.825L187.362 146.826C187.961 146.477 188.54 146.096 189.098 145.685L188.709 140.615C188.737 140.595 188.764 140.575 188.792 140.554L189.181 145.624C189.304 145.533 189.426 145.441 189.545 145.349L189.224 140.216C189.252 140.194 189.279 140.171 189.307 140.148L189.628 145.285C190.122 144.9 190.58 144.511 190.996 144.139L190.794 138.977L190.836 138.955C190.692 138.993 190.547 139.037 190.4 139.085C190.676 138.77 190.925 138.431 191.143 138.073L187.895 139.752C187.671 140.179 187.418 140.591 187.139 140.984C187.081 141.039 187.023 141.094 186.965 141.151L186.97 141.212C186.943 141.247 186.917 141.282 186.89 141.317L186.884 141.234C186.843 141.276 186.803 141.32 186.763 141.363C187.174 140.85 187.535 140.299 187.84 139.716L184.666 135.577C184.688 135.947 184.724 136.319 184.771 136.689C184.476 136.21 184.118 135.773 183.707 135.389L183.732 135.421L182.998 137.419C183.168 138.103 183.337 138.875 183.478 139.698L184.782 136.776C184.788 136.821 184.794 136.867 184.8 136.912L183.5 139.827C183.629 140.599 183.721 141.344 183.776 142.064L185.337 139.613C185.346 139.648 185.355 139.683 185.364 139.718L183.786 142.195C183.821 142.675 183.838 143.141 183.839 143.594L185.747 141.078C185.758 141.111 185.768 141.143 185.777 141.175L183.849 143.718L183.84 143.698C183.839 143.878 183.836 144.055 183.83 144.229L185.982 141.807C185.994 141.841 186.004 141.872 186.014 141.901L183.825 144.365C183.822 144.419 183.821 144.473 183.818 144.527C183.792 145.042 183.738 145.555 183.657 146.064L183.865 145.853C183.825 145.935 183.787 146.015 183.75 146.095L183.632 146.214C183.618 146.292 183.603 146.368 183.588 146.445C183.544 146.54 183.502 146.634 183.462 146.725C183.501 146.55 183.537 146.374 183.568 146.197L179.27 143.241C180.391 146.109 182.503 148.837 182.638 149.01C182.748 148.805 182.848 148.595 182.939 148.379C182.966 148.377 182.992 148.374 183.019 148.372C183.008 148.398 182.997 148.424 182.985 148.45C182.972 148.452 182.958 148.454 182.945 148.455C182.955 148.458 182.968 148.461 182.979 148.465C182.915 148.615 182.848 148.763 182.776 148.905C182.87 148.821 183.013 148.688 183.184 148.519C184.195 148.777 186.918 149.328 189.249 148.513L185.677 147.737C184.912 148.06 184.111 148.287 183.29 148.413ZM185.8 143.894L185.886 143.807L185.881 143.937L185.795 144.024L185.8 143.894Z" fill="#EE4978"/>
<path d="M194.696 140.191L194.726 140.199C194.426 139.465 193.816 139.012 193.015 138.841L192.813 142.366C193.977 141.138 194.686 140.204 194.696 140.191Z" fill="#EE4978"/>
<path d="M187.202 146.99C186.754 147.244 186.292 147.474 185.818 147.678L189.356 148.447L189.329 148.485C189.777 148.324 190.203 148.107 190.596 147.84C190.75 147.734 190.901 147.625 191.049 147.512L187.343 146.91C187.296 146.937 187.249 146.964 187.202 146.99Z" fill="#EE4978"/>
<path d="M191.078 144.064C191.691 143.511 192.245 142.961 192.726 142.457L192.932 138.851L192.974 138.832C192.276 138.715 191.56 138.753 190.878 138.945L191.078 144.064Z" fill="#EE4978"/>
<path d="M183.679 135.364C183.268 134.977 182.766 134.701 182.219 134.562C182.193 134.556 182.166 134.55 182.14 134.545C182.206 134.725 182.585 135.784 182.968 137.299L183.679 135.364Z" fill="#EE4978"/>
<path d="M183.439 139.798L178.969 137.205L178.973 137.158C178.806 137.692 178.693 138.242 178.636 138.799L183.675 141.566C183.614 140.943 183.531 140.348 183.439 139.798Z" fill="#EE4978"/>
<path d="M178.591 139.4L178.588 139.448C178.589 139.432 178.591 139.417 178.591 139.4L178.591 139.4Z" fill="#EE4978"/>
<path d="M178.628 138.893L178.628 138.893C178.629 138.877 178.63 138.861 178.631 138.845L178.628 138.893Z" fill="#EE4978"/>
<path d="M183.685 141.67L178.628 138.893C178.612 139.059 178.599 139.228 178.591 139.401L183.722 142.125C183.711 141.972 183.699 141.82 183.685 141.67Z" fill="#EE4978"/>
<path d="M183.76 144.404L178.783 141.714C178.904 142.213 179.059 142.703 179.246 143.181L179.253 143.13L183.583 146.107C183.676 145.544 183.735 144.975 183.76 144.404Z" fill="#EE4978"/>
<path d="M182.083 134.56L182.107 134.539C181.325 134.4 180.616 134.672 180.043 135.257L182.914 137.314C182.499 135.674 182.089 134.576 182.083 134.56Z" fill="#EE4978"/>
<path d="M182.944 137.436L180.007 135.332L180.014 135.286C179.54 135.813 179.19 136.438 178.987 137.116L183.42 139.688C183.28 138.875 183.112 138.112 182.944 137.436Z" fill="#EE4978"/>
<path d="M183.764 144.304C183.79 143.612 183.778 142.919 183.73 142.228L178.586 139.496C178.575 139.775 178.575 140.061 178.585 140.354C178.604 140.774 178.662 141.191 178.756 141.601L183.762 144.306L183.764 144.304Z" fill="#EE4978"/>
<path d="M27.3353 149.722H195.489V152.127C195.489 153.139 195.087 154.109 194.372 154.824C193.656 155.539 192.686 155.941 191.674 155.941H31.1507C30.1388 155.941 29.1684 155.539 28.4528 154.824C27.7373 154.109 27.3353 153.139 27.3353 152.127V149.722Z" fill="#2F2E41"/>
<path d="M195.489 147.768H27.3353V151.144H195.489V147.768Z" fill="#3F3D56"/>
<path d="M157.653 32.2725L159.585 33.4966L158.412 31.3656C158.744 31.1008 159.155 30.9541 159.58 30.949C159.59 30.949 159.601 30.9491 159.611 30.9493C159.745 30.9514 159.879 30.9415 160.012 30.9196L160.666 31.3345L160.386 30.8246C160.849 30.6629 161.25 30.3589 161.531 29.956L162.702 30.6986L161.962 29.3536C162.647 28.5317 163.57 28.0276 164.587 28.0276C165.805 28.0276 166.89 28.7518 167.59 29.8801C167.797 30.2177 168.09 30.4945 168.439 30.6825C168.788 30.8704 169.18 30.9628 169.576 30.9502C169.598 30.9494 169.619 30.949 169.641 30.949C170.986 30.949 172.076 32.4731 172.076 34.3532C172.076 36.2333 170.986 37.7574 169.641 37.7574C169.346 37.7563 169.055 37.6834 168.793 37.5451C168.335 37.3227 167.835 37.2024 167.326 37.1925C166.817 37.1825 166.312 37.2832 165.846 37.4875C165.452 37.6644 165.025 37.7564 164.594 37.7574C164.162 37.7584 163.735 37.6684 163.34 37.4933C162.878 37.2929 162.378 37.1942 161.874 37.2039C161.37 37.2137 160.874 37.3316 160.419 37.5498C160.16 37.6851 159.872 37.7563 159.58 37.7574C158.235 37.7574 157.145 36.2333 157.145 34.3532C157.137 33.628 157.312 32.9124 157.653 32.2725Z" fill="#F2F2F2"/>
<path d="M59.3993 42.2705L60.6278 43.0492L59.8819 41.6936C60.0931 41.5251 60.3546 41.4319 60.6248 41.4286C60.6314 41.4286 60.638 41.4286 60.6446 41.4288C60.7299 41.4301 60.8152 41.4238 60.8995 41.4099L61.3158 41.6738L61.1373 41.3495C61.4323 41.2466 61.6872 41.0532 61.8657 40.7969L62.6108 41.2693L62.1401 40.4137C62.3383 40.1581 62.591 39.9499 62.8797 39.804C63.1685 39.6581 63.4861 39.5782 63.8096 39.5703C64.5844 39.5703 65.2747 40.0309 65.7203 40.7486C65.8521 40.9634 66.0383 41.1395 66.2601 41.259C66.4819 41.3786 66.7314 41.4373 66.9833 41.4293C66.9972 41.4288 67.0111 41.4286 67.025 41.4286C67.8805 41.4286 68.5739 42.3981 68.5739 43.5941C68.5739 44.79 67.8805 45.7595 67.025 45.7595C66.8369 45.7588 66.6517 45.7125 66.4855 45.6245C66.1943 45.4831 65.8758 45.4065 65.5521 45.4002C65.2284 45.3939 64.9072 45.4579 64.6107 45.5879C64.3602 45.7004 64.0888 45.7589 63.8141 45.7595C63.5395 45.7602 63.2678 45.7029 63.0168 45.5916C62.7226 45.4641 62.4044 45.4013 62.0838 45.4075C61.7632 45.4137 61.4477 45.4887 61.1586 45.6275C60.9938 45.7136 60.8107 45.7589 60.6248 45.7595C59.7693 45.7595 59.0758 44.79 59.0758 43.5941C59.0709 43.1327 59.1821 42.6776 59.3993 42.2705Z" fill="#F2F2F2"/>
<path d="M26.3373 46.445L27.5658 47.2237L26.8199 45.8681C27.0311 45.6996 27.2925 45.6064 27.5628 45.6031C27.5694 45.6031 27.576 45.6031 27.5825 45.6033C27.6679 45.6046 27.7532 45.5983 27.8374 45.5844L28.2538 45.8483L28.0753 45.524C28.3703 45.4211 28.6252 45.2277 28.8036 44.9714L29.5488 45.4438L29.078 44.5882C29.2763 44.3326 29.529 44.1244 29.8177 43.9785C30.1065 43.8326 30.4241 43.7527 30.7475 43.7448C31.5224 43.7448 32.2127 44.2054 32.6583 44.9231C32.7901 45.1379 32.9763 45.314 33.1981 45.4335C33.4199 45.5531 33.6694 45.6118 33.9213 45.6038C33.9352 45.6033 33.9491 45.6031 33.963 45.6031C34.8184 45.6031 35.5119 46.5726 35.5119 47.7686C35.5119 48.9645 34.8184 49.9341 33.963 49.9341C33.7749 49.9334 33.5897 49.887 33.4235 49.799C33.1323 49.6576 32.8138 49.581 32.4901 49.5747C32.1664 49.5684 31.8452 49.6324 31.5487 49.7624C31.2982 49.8749 31.0268 49.9334 30.7521 49.934C30.4775 49.9347 30.2058 49.8775 29.9548 49.7661C29.6606 49.6386 29.3424 49.5758 29.0218 49.582C28.7012 49.5882 28.3856 49.6632 28.0966 49.802C27.9318 49.8881 27.7487 49.9334 27.5628 49.9341C26.7073 49.9341 26.0138 48.9645 26.0138 47.7686C26.0089 47.3072 26.1201 46.8521 26.3373 46.445Z" fill="#F2F2F2"/>
<path d="M183.444 128.918C183.86 128.192 184.075 127.368 184.067 126.532C184.067 124.375 182.731 122.627 181.083 122.627C179.435 122.627 178.099 124.375 178.099 126.532C178.091 127.368 178.306 128.192 178.722 128.918C178.314 129.647 178.099 130.468 178.099 131.304C178.099 132.139 178.314 132.961 178.722 133.69C178.314 134.419 178.099 135.24 178.099 136.076C178.099 136.911 178.314 137.733 178.722 138.462C178.314 139.191 178.099 140.012 178.099 140.848C178.099 141.683 178.314 142.505 178.722 143.234C178.306 143.96 178.091 144.783 178.099 145.62C178.099 147.776 179.435 149.524 181.083 149.524C182.731 149.524 184.067 147.776 184.067 145.62C184.075 144.783 183.86 143.96 183.444 143.234C183.853 142.505 184.067 141.683 184.067 140.848C184.067 140.012 183.853 139.191 183.444 138.462C183.853 137.733 184.067 136.911 184.067 136.076C184.067 135.24 183.853 134.419 183.444 133.69C183.853 132.961 184.067 132.139 184.067 131.304C184.067 130.468 183.853 129.647 183.444 128.918Z" fill="#3F3D56"/>
<path d="M181.083 125.664C182.731 125.664 184.067 123.916 184.067 121.76C184.067 119.603 182.731 117.855 181.083 117.855C179.435 117.855 178.099 119.603 178.099 121.76C178.099 123.916 179.435 125.664 181.083 125.664Z" fill="#3F3D56"/>
<path d="M181.083 120.892C182.731 120.892 184.067 119.144 184.067 116.988C184.067 114.831 182.731 113.083 181.083 113.083C179.435 113.083 178.099 114.831 178.099 116.988C178.099 119.144 179.435 120.892 181.083 120.892Z" fill="#3F3D56"/>
<path d="M192.253 84.3311C192.661 83.8124 193.032 83.2661 193.364 82.6961L185.524 81.409L194.003 81.4721C194.817 79.703 195.261 77.7867 195.307 75.8403C195.354 73.8939 195.004 71.9584 194.276 70.1522L182.9 76.051L193.392 68.3424C192.409 66.6446 191.087 65.1673 189.508 64.0025C187.929 62.8378 186.127 62.0105 184.214 61.5722C182.301 61.134 180.319 61.0941 178.39 61.4551C176.461 61.8161 174.627 62.5703 173.002 63.6707C171.378 64.771 169.997 66.1939 168.947 67.8508C167.897 69.5077 167.199 71.3631 166.897 73.3013C166.595 75.2395 166.696 77.2191 167.193 79.1167C167.69 81.0143 168.572 82.7893 169.786 84.3311C169.15 85.1385 168.604 86.012 168.156 86.9365L178.333 92.2215L167.481 88.5811C166.719 90.8325 166.531 93.2383 166.933 95.5808C167.336 97.9233 168.316 100.129 169.786 101.997C168.127 104.104 167.096 106.635 166.809 109.301C166.522 111.967 166.991 114.659 168.163 117.071C169.335 119.483 171.162 121.516 173.436 122.939C175.709 124.361 178.337 125.116 181.019 125.116C183.701 125.116 186.33 124.361 188.603 122.939C190.876 121.516 192.704 119.483 193.875 117.071C195.047 114.659 195.517 111.967 195.23 109.301C194.943 106.635 193.911 104.104 192.253 101.997C194.234 99.4787 195.312 96.3679 195.312 93.1641C195.312 89.9602 194.234 86.8494 192.253 84.3311V84.3311Z" fill="#F2F2F2"/>
<path d="M166.727 93.1641C166.722 96.3687 167.8 99.4811 169.786 101.997C168.127 104.104 167.096 106.635 166.809 109.301C166.522 111.967 166.991 114.659 168.163 117.071C169.335 119.483 171.162 121.516 173.436 122.939C175.709 124.361 178.337 125.116 181.019 125.116C183.701 125.116 186.33 124.361 188.603 122.939C190.876 121.516 192.704 119.483 193.875 117.071C195.047 114.659 195.517 111.967 195.23 109.301C194.943 106.635 193.911 104.104 192.253 101.997C194.169 99.5662 166.727 91.5606 166.727 93.1641Z" fill="#F2F2F2"/>
<path d="M192.253 84.3311C192.661 83.8124 193.032 83.2661 193.364 82.6961L185.524 81.409L194.003 81.4721C194.817 79.703 195.261 77.7867 195.307 75.8403C195.354 73.8939 195.004 71.9584 194.276 70.1522L182.9 76.051L193.392 68.3424C192.409 66.6446 191.087 65.1673 189.508 64.0025C187.929 62.8378 186.127 62.0105 184.214 61.5722C182.301 61.134 180.319 61.0941 178.39 61.4551C176.461 61.8161 174.627 62.5703 173.002 63.6707C171.378 64.771 169.997 66.1939 168.947 67.8508C167.897 69.5077 167.199 71.3631 166.897 73.3013C166.595 75.2395 166.696 77.2191 167.193 79.1167C167.69 81.0143 168.572 82.7893 169.786 84.3311C169.15 85.1385 168.604 86.012 168.156 86.9365L178.333 92.2215L167.481 88.5811C166.719 90.8325 166.531 93.2383 166.933 95.5808C167.336 97.9233 168.316 100.129 169.786 101.997C168.127 104.104 167.096 106.635 166.809 109.301C166.522 111.967 166.991 114.659 168.163 117.071C169.335 119.483 171.162 121.516 173.436 122.939C175.709 124.361 178.337 125.116 181.019 125.116C183.701 125.116 186.33 124.361 188.603 122.939C190.876 121.516 192.704 119.483 193.875 117.071C195.047 114.659 195.517 111.967 195.23 109.301C194.943 106.635 193.911 104.104 192.253 101.997C194.234 99.4787 195.312 96.3679 195.312 93.1641C195.312 89.9602 194.234 86.8494 192.253 84.3311V84.3311Z" fill="#57B894"/>
<path opacity="0.1" d="M166.727 93.1641C166.722 96.3687 167.8 99.4811 169.786 101.997C168.127 104.104 167.096 106.635 166.809 109.301C166.522 111.967 166.991 114.659 168.163 117.071C169.335 119.483 171.162 121.516 173.436 122.939C175.709 124.361 178.337 125.116 181.019 125.116C183.701 125.116 186.33 124.361 188.603 122.939C190.876 121.516 192.704 119.483 193.875 117.071C195.047 114.659 195.517 111.967 195.23 109.301C194.943 106.635 193.911 104.104 192.253 101.997C194.169 99.5662 166.727 91.5606 166.727 93.1641Z" fill="black"/>
<path d="M33.2431 128.918C33.6591 128.192 33.8741 127.368 33.8659 126.532C33.8659 124.375 32.53 122.627 30.8821 122.627C29.2342 122.627 27.8983 124.375 27.8983 126.532C27.8901 127.368 28.105 128.192 28.5211 128.918C28.1127 129.647 27.8983 130.468 27.8983 131.304C27.8983 132.139 28.1127 132.961 28.5211 133.69C28.1127 134.419 27.8983 135.24 27.8983 136.076C27.8983 136.911 28.1127 137.733 28.5211 138.462C28.1127 139.191 27.8983 140.012 27.8983 140.848C27.8983 141.683 28.1127 142.505 28.5211 143.234C28.105 143.96 27.8901 144.783 27.8983 145.62C27.8983 147.776 29.2342 149.524 30.8821 149.524C32.53 149.524 33.8659 147.776 33.8659 145.62C33.8741 144.783 33.6591 143.96 33.2431 143.234C33.6514 142.505 33.8659 141.683 33.8659 140.848C33.8659 140.012 33.6514 139.191 33.2431 138.462C33.6514 137.733 33.8659 136.911 33.8659 136.076C33.8659 135.24 33.6514 134.419 33.2431 133.69C33.6514 132.961 33.8659 132.139 33.8659 131.304C33.8659 130.468 33.6514 129.647 33.2431 128.918Z" fill="#3F3D56"/>
<path d="M30.8821 125.664C32.53 125.664 33.8659 123.916 33.8659 121.76C33.8659 119.603 32.53 117.855 30.8821 117.855C29.2342 117.855 27.8983 119.603 27.8983 121.76C27.8983 123.916 29.2342 125.664 30.8821 125.664Z" fill="#3F3D56"/>
<path d="M30.8821 120.892C32.53 120.892 33.8659 119.144 33.8659 116.988C33.8659 114.831 32.53 113.083 30.8821 113.083C29.2342 113.083 27.8983 114.831 27.8983 116.988C27.8983 119.144 29.2342 120.892 30.8821 120.892Z" fill="#3F3D56"/>
<path d="M42.0519 84.3311C42.4596 83.8124 42.8309 83.2661 43.1631 82.6961L35.323 81.409L43.8023 81.4721C44.6157 79.703 45.0595 77.7867 45.1064 75.8403C45.1534 73.8939 44.8025 71.9584 44.0753 70.1522L32.6993 76.051L43.1906 68.3424C42.2077 66.6446 40.8856 65.1673 39.3066 64.0025C37.7276 62.8378 35.9256 62.0105 34.0129 61.5722C32.1001 61.134 30.1175 61.0941 28.1886 61.4551C26.2598 61.8161 24.426 62.5703 22.8014 63.6707C21.1768 64.771 19.7964 66.1939 18.7459 67.8508C17.6955 69.5077 16.9977 71.3631 16.6959 73.3013C16.3941 75.2395 16.4949 77.2191 16.9918 79.1167C17.4888 81.0143 18.3714 82.7893 19.5845 84.3311C18.9491 85.1385 18.4026 86.012 17.9545 86.9365L28.1316 92.2215L17.28 88.5811C16.5181 90.8325 16.3298 93.2383 16.7321 95.5808C17.1345 97.9233 18.1149 100.129 19.5845 101.997C17.9263 104.104 16.8948 106.635 16.6079 109.301C16.321 111.967 16.7903 114.659 17.9621 117.071C19.134 119.483 20.9611 121.516 23.2345 122.939C25.508 124.361 28.1361 125.116 30.8182 125.116C33.5004 125.116 36.1285 124.361 38.4019 122.939C40.6754 121.516 42.5025 119.483 43.6743 117.071C44.8462 114.659 45.3155 111.967 45.0286 109.301C44.7417 106.635 43.7102 104.104 42.0519 101.997C44.0334 99.4787 45.1106 96.3679 45.1106 93.1641C45.1106 89.9602 44.0334 86.8494 42.0519 84.3311L42.0519 84.3311Z" fill="#F2F2F2"/>
<path d="M16.5259 93.1641C16.521 96.3687 17.5987 99.4811 19.5845 101.997C17.9263 104.104 16.8948 106.635 16.6079 109.301C16.321 111.967 16.7903 114.659 17.9621 117.071C19.134 119.483 20.9611 121.516 23.2345 122.939C25.508 124.361 28.1361 125.116 30.8182 125.116C33.5004 125.116 36.1285 124.361 38.4019 122.939C40.6754 121.516 42.5025 119.483 43.6743 117.071C44.8462 114.659 45.3155 111.967 45.0286 109.301C44.7417 106.635 43.7102 104.104 42.0519 101.997C43.9676 99.5662 16.5259 91.5606 16.5259 93.1641Z" fill="#F2F2F2"/>
<path d="M42.0519 84.3311C42.4596 83.8124 42.8309 83.2661 43.1631 82.6961L35.323 81.409L43.8023 81.4721C44.6157 79.703 45.0595 77.7867 45.1064 75.8403C45.1534 73.8939 44.8025 71.9584 44.0753 70.1522L32.6993 76.051L43.1906 68.3424C42.2077 66.6446 40.8856 65.1673 39.3066 64.0025C37.7276 62.8378 35.9256 62.0105 34.0129 61.5722C32.1001 61.134 30.1175 61.0941 28.1886 61.4551C26.2598 61.8161 24.426 62.5703 22.8014 63.6707C21.1768 64.771 19.7964 66.1939 18.7459 67.8508C17.6955 69.5077 16.9977 71.3631 16.6959 73.3013C16.3941 75.2395 16.4949 77.2191 16.9918 79.1167C17.4888 81.0143 18.3714 82.7893 19.5845 84.3311C18.9491 85.1385 18.4026 86.012 17.9545 86.9365L28.1316 92.2215L17.28 88.5811C16.5181 90.8325 16.3298 93.2383 16.7321 95.5808C17.1345 97.9233 18.1149 100.129 19.5845 101.997C17.9263 104.104 16.8948 106.635 16.6079 109.301C16.321 111.967 16.7903 114.659 17.9621 117.071C19.134 119.483 20.9611 121.516 23.2345 122.939C25.508 124.361 28.1361 125.116 30.8182 125.116C33.5004 125.116 36.1285 124.361 38.4019 122.939C40.6754 121.516 42.5025 119.483 43.6743 117.071C44.8462 114.659 45.3155 111.967 45.0286 109.301C44.7417 106.635 43.7102 104.104 42.0519 101.997C44.0334 99.4787 45.1106 96.3679 45.1106 93.1641C45.1106 89.9602 44.0334 86.8494 42.0519 84.3311L42.0519 84.3311Z" fill="#57B894"/>
<path opacity="0.1" d="M16.5259 93.1641C16.521 96.3687 17.5987 99.4811 19.5845 101.997C17.9263 104.104 16.8948 106.635 16.6079 109.301C16.321 111.967 16.7903 114.659 17.9621 117.071C19.134 119.483 20.9611 121.516 23.2345 122.939C25.508 124.361 28.1361 125.116 30.8182 125.116C33.5004 125.116 36.1285 124.361 38.4019 122.939C40.6754 121.516 42.5025 119.483 43.6743 117.071C44.8462 114.659 45.3155 111.967 45.0286 109.301C44.7417 106.635 43.7102 104.104 42.0519 101.997C43.9676 99.5662 16.5259 91.5606 16.5259 93.1641Z" fill="black"/>
<path d="M119.525 83.5472L112.434 90.6359L109.073 87.2774L107.765 88.585L112.429 93.2467L120.833 84.8548L119.525 83.5472Z" fill="#EE4978"/>
<path d="M142.1 67.3785L135.008 74.4672L131.648 71.1087L130.34 72.4162L135.004 77.078L143.408 68.6861L142.1 67.3785Z" fill="#EE4978"/>
<path d="M97.2107 36.2654L90.1191 43.354L86.759 39.9956L85.4509 41.3031L90.1146 45.9648L98.5189 37.5729L97.2107 36.2654Z" fill="#EE4978"/>
</g>
</svg>
