<svg width="24" height="24" viewBox="0 0 24 24" fill="none" xmlns="http://www.w3.org/2000/svg">
<g id="hotel/comodidades/cafe_manha">
<g id="Group">
<g id="Group_2">
<g id="Group_3">
<path id="Vector" d="M21.3482 10.8492V10.5966V10.5714C21.3482 9.46005 18.974 8.55078 16.0189 8.55078C13.089 8.55078 10.7148 9.46005 10.7148 10.5714V10.5966V12.7435C10.9674 12.9203 11.1947 13.1476 11.3463 13.4507C11.3968 13.577 11.4473 13.7033 11.4726 13.8296L11.6746 13.8801C12.205 14.0316 12.7354 14.2842 13.2911 14.6378C13.8973 15.0167 14.4024 15.4713 14.8065 15.9512C15.0844 16.3048 15.2107 16.7342 15.1601 17.1636L15.4127 17.8202L15.5137 18.0981C15.6906 18.1233 15.8421 18.1233 16.0189 18.1233C17.6606 18.1233 19.1256 17.3909 20.1106 16.2038H21.2977C22.7879 16.2038 24.0002 14.9914 24.0002 13.5012C24.0002 12.0616 22.8131 10.8745 21.3482 10.8492ZM16.0189 11.4049C13.8973 11.4049 12.5081 10.8997 12.0282 10.5714C12.5334 10.243 13.8973 9.73788 16.0189 9.73788C18.1405 9.73788 19.5297 10.243 20.0096 10.5714C19.5297 10.8997 18.1405 11.4049 16.0189 11.4049ZM21.2977 15.0419H20.8431C21.1461 14.36 21.3482 13.6023 21.3482 12.8193V12.0363C22.1564 12.0616 22.8384 12.7183 22.8384 13.5517C22.8131 14.3852 22.1312 15.0419 21.2977 15.0419Z" fill="#273472"/>
<path id="Vector_2" d="M13.594 7.59097C13.7961 7.5152 13.8971 7.28788 13.8213 7.11108V7.08583C13.695 6.73222 13.6193 6.40388 13.6193 6.10079C13.6445 5.7977 13.7456 5.49461 13.8971 5.14101C13.9729 4.9642 14.0486 4.76214 14.1244 4.56009C14.2002 4.33277 14.3012 4.05494 14.3012 3.80236C14.3265 3.52453 14.276 3.27196 14.1749 3.01938C14.1244 2.8931 14.0739 2.76681 13.9981 2.66578C13.9224 2.53949 13.8718 2.46372 13.7456 2.33743C13.6698 2.2364 13.5182 2.21115 13.392 2.2364C13.1899 2.28692 13.0636 2.48898 13.1141 2.66578L13.1394 2.81732C13.1394 2.86784 13.1899 2.94361 13.2152 3.01938C13.2404 3.09516 13.2404 3.17093 13.2657 3.2467C13.2909 3.39825 13.2657 3.54979 13.2404 3.70133C13.2152 3.85288 13.1646 3.97917 13.0889 4.13071L12.8363 4.68637C12.7605 4.88843 12.6595 5.11575 12.609 5.34306C12.5585 5.59564 12.5332 5.84821 12.5332 6.10079C12.5585 6.63119 12.811 7.11108 13.1141 7.43943C13.2657 7.59097 13.4425 7.64149 13.594 7.59097Z" fill="#273472"/>
<path id="Vector_3" d="M16.1691 7.36368C16.3712 7.28791 16.4722 7.08585 16.3964 6.88379V6.85853C16.2701 6.50493 16.1943 6.17658 16.1943 5.87349C16.2196 5.5704 16.3206 5.26731 16.4722 4.91371C16.548 4.73691 16.6237 4.53485 16.6995 4.33279C16.7753 4.10547 16.8763 3.82764 16.8763 3.57507C16.9016 3.29724 16.851 3.04466 16.75 2.79209C16.6995 2.6658 16.649 2.53952 16.5732 2.43849C16.4974 2.3122 16.4469 2.23643 16.3206 2.11014C16.2449 2.00911 16.0933 1.98385 15.967 2.00911C15.765 2.05962 15.6387 2.26168 15.6892 2.43849L15.7145 2.59003C15.7145 2.64054 15.765 2.71632 15.7902 2.79209C15.8155 2.86786 15.8155 2.94363 15.8407 3.01941C15.866 3.17095 15.8407 3.32249 15.8155 3.47404C15.7902 3.62558 15.7397 3.75187 15.6639 3.90341L15.4114 4.45908C15.3356 4.66114 15.2346 4.88845 15.1841 5.11577C15.1335 5.36834 15.083 5.62092 15.1083 5.87349C15.1335 6.4039 15.3861 6.88379 15.6892 7.21213C15.8407 7.36368 16.0175 7.41419 16.1691 7.36368Z" fill="#273472"/>
<path id="Vector_4" d="M18.7211 7.59097C18.9232 7.5152 19.0242 7.28788 18.9484 7.11108V7.08583C18.8221 6.73222 18.7464 6.40388 18.7464 6.10079C18.7716 5.7977 18.8726 5.49461 19.0242 5.14101C19.1 4.9642 19.1757 4.76214 19.2515 4.56009C19.3273 4.33277 19.4283 4.05494 19.4283 3.80236C19.4536 3.52453 19.4031 3.27196 19.302 3.01938C19.2515 2.8931 19.201 2.76681 19.1505 2.66578C19.0747 2.53949 19.0242 2.46372 18.8979 2.33743C18.8221 2.2364 18.6706 2.21115 18.5443 2.2364C18.3422 2.28692 18.216 2.48898 18.2665 2.66578L18.2917 2.81732C18.2917 2.86784 18.3422 2.94361 18.3675 3.01938C18.3928 3.09516 18.3928 3.17093 18.418 3.2467C18.4433 3.39825 18.418 3.54979 18.3928 3.70133C18.3675 3.85288 18.317 3.97917 18.2412 4.13071L17.9886 4.68637C17.9129 4.88843 17.8118 5.11575 17.7613 5.34306C17.7108 5.59564 17.6855 5.84821 17.6855 6.10079C17.7108 6.63119 17.9634 7.11108 18.2665 7.43943C18.418 7.59097 18.5696 7.64149 18.7211 7.59097Z" fill="#273472"/>
<path id="Vector_5" d="M0.990507 18.1992L0.0812412 20.4976C-0.322877 21.5332 0.86422 22.493 1.79874 21.8615L3.81934 20.4724L1.11679 18.3255C1.06628 18.275 1.01576 18.2497 0.990507 18.1992Z" fill="#273472"/>
<path id="Vector_6" d="M14.6551 18.1992C14.6299 18.2497 14.5794 18.275 14.5288 18.3002L11.8516 20.4724L13.8469 21.8615C14.7814 22.493 15.9685 21.5584 15.5644 20.4976L14.6551 18.1992Z" fill="#273472"/>
<path id="Vector_7" d="M4.22347 14.9158C4.19822 14.84 4.17296 14.7642 4.17296 14.6885C3.7941 14.8148 3.33946 15.0168 2.83432 15.3199C2.20288 15.724 1.79876 16.1534 1.52093 16.4818C1.21784 16.8354 1.29361 17.391 1.64722 17.6689L4.34976 19.8662C4.62759 20.0936 5.03171 20.1188 5.3348 19.9168L5.86521 19.5632C5.73892 19.4116 5.63789 19.2348 5.58737 19.0328L4.22347 14.9158Z" fill="#273472"/>
<path id="Vector_8" d="M14.1488 16.4818C13.871 16.1534 13.4669 15.724 12.8354 15.3199C12.3303 14.9916 11.8757 14.7895 11.4968 14.6885C11.4715 14.7642 11.4715 14.84 11.4463 14.9158L10.0571 19.058C9.98136 19.2601 9.88033 19.4369 9.7793 19.5884L10.3097 19.942C10.6128 20.1441 11.0169 20.1188 11.2947 19.8915L14.0225 17.6689C14.3761 17.391 14.4519 16.8606 14.1488 16.4818Z" fill="#273472"/>
<path id="Vector_9" d="M9.98174 13.2993C9.47659 13.1225 8.74413 12.9709 7.8096 12.9709C6.87508 12.9709 6.16787 13.1225 5.63747 13.2993C5.08181 13.4761 4.77872 14.0823 4.98078 14.6379L6.36993 18.7802C6.52148 19.2095 6.9256 19.5126 7.38023 19.5126H8.26424C8.71887 19.5126 9.12299 19.2095 9.27453 18.7802L10.6637 14.6379C10.8405 14.0823 10.5374 13.4761 9.98174 13.2993Z" fill="#273472"/>
</g>
</g>
</g>
</g>
</svg>
