<svg width="24" height="24" viewBox="0 0 24 24" fill="none" xmlns="http://www.w3.org/2000/svg">
<g clip-path="url(#clip0_9229_42205)">
<path d="M11.4178 -0.0037384C8.48224 0.127806 5.63672 1.39479 3.52508 3.51335C-1.18284 8.21435 -1.18284 15.7747 3.52508 20.4757C6.75139 23.7089 11.4732 24.8236 15.8072 23.3766C19.6428 22.1027 22.6475 18.8764 23.6307 14.9854C24.1153 13.0815 24.1153 10.9076 23.6307 9.00362C22.8829 6.0404 20.8959 3.36104 18.2373 1.73404C16.2434 0.515518 13.7856 -0.114513 11.4178 -0.0037384ZM13.4394 0.951693C17.4411 1.47095 20.8475 4.12261 22.3429 7.8751C22.6337 8.60898 22.8483 9.37748 23.0283 10.3329C23.1322 10.9145 23.1322 13.0746 23.0283 13.6561C22.6752 15.5532 22.0729 17.0348 21.0967 18.4195C18.2442 22.4489 13.0794 24.1313 8.40608 22.5389C4.87514 21.3342 2.12655 18.371 1.20574 14.7777C0.118762 10.5198 1.61422 6.05424 5.04823 3.29181C7.40219 1.40171 10.4139 0.563982 13.4394 0.951693Z" fill="#273472"/>
<path d="M7.02792 2.37122C6.18326 2.77277 5.15167 3.54127 4.28625 4.41362C3.40697 5.29982 2.95695 5.92985 3.04003 6.17909C3.06773 6.25525 3.16466 6.37295 3.25466 6.43526C3.5039 6.5945 3.69083 6.48372 4.13393 5.88831C4.87474 4.89826 6.03095 3.90821 7.21485 3.25741C7.83103 2.91817 7.99027 2.71046 7.84488 2.4543C7.68564 2.17044 7.49871 2.14967 7.02792 2.37122Z" fill="#273472"/>
<path fill-rule="evenodd" clip-rule="evenodd" d="M12.0757 23.8105C18.6015 23.8105 23.8917 18.5204 23.8917 11.9946C23.8917 5.46882 18.6015 0.17864 12.0757 0.17864C5.54995 0.17864 0.259766 5.46882 0.259766 11.9946C0.259766 18.5204 5.54995 23.8105 12.0757 23.8105ZM4.25255 9.17716C5.28414 6.40779 7.69349 4.39308 10.6221 3.8669C11.7991 3.65228 13.3984 3.7769 14.5823 4.17153C17.1924 5.04388 19.221 7.18322 19.9479 9.80719C20.3356 11.2126 20.3356 12.7773 19.9479 14.1828C19.0963 17.2568 16.4724 19.6177 13.3222 20.13C9.43819 20.7531 5.63724 18.5307 4.25255 14.8128C3.89946 13.8712 3.80946 13.262 3.80946 11.995C3.80946 10.728 3.89946 10.1187 4.25255 9.17716ZM19.3317 11.3234C19.0756 8.11788 16.6039 5.37621 13.4261 4.76695C11.6675 4.43462 10.089 4.67694 8.4966 5.5216C7.76965 5.90239 7.25039 6.30394 6.64113 6.94782C6.05264 7.57093 5.72032 8.06249 5.32568 8.90022C4.94489 9.70334 4.75796 10.3749 4.66796 11.2819C4.52949 12.6042 4.75104 13.8782 5.32568 15.0898C5.72032 15.9275 6.05264 16.419 6.64113 17.0422C8.08812 18.5653 9.90206 19.3476 12.0068 19.3476C13.3084 19.3476 14.3677 19.0846 15.4616 18.4961C18.1063 17.0698 19.5741 14.3559 19.3317 11.3234Z" fill="#273472"/>
<path d="M8.12217 1.83984C7.08324 2.33376 5.81439 3.27901 4.74992 4.352C3.66842 5.44201 3.11489 6.21695 3.21708 6.52352C3.25115 6.61719 3.37037 6.76196 3.48107 6.8386C3.78764 7.03446 4.01757 6.89821 4.56258 6.16585C5.47376 4.9481 6.8959 3.73034 8.35209 2.92986C9.11 2.51259 9.30586 2.25712 9.12703 1.94203C8.93117 1.59289 8.70124 1.56734 8.12217 1.83984Z" fill="white"/>
</g>
<defs>
<clipPath id="clip0_9229_42205">
<rect width="24" height="24" fill="white"/>
</clipPath>
</defs>
</svg>
