<svg width="24" height="24" viewBox="0 0 24 24" fill="none" xmlns="http://www.w3.org/2000/svg">
<g clip-path="url(#clip0_9229_42182)">
<path d="M11.4236 -0.00374031C8.4881 0.127804 5.64258 1.39479 3.53094 3.51335C-1.17698 8.21435 -1.17698 15.7747 3.53094 20.4757C6.75725 23.7089 11.479 24.8236 15.8131 23.3766C19.6486 22.1027 22.6534 18.8764 23.6365 14.9854C24.1212 13.0815 24.1212 10.9076 23.6365 9.00362C22.8888 6.0404 20.9018 3.36104 18.2432 1.73404C16.2492 0.515516 13.7914 -0.114515 11.4236 -0.00374031ZM13.4453 0.951691C17.447 1.47095 20.8533 4.12261 22.3488 7.8751C22.6395 8.60898 22.8542 9.37748 23.0342 10.3329C23.138 10.9145 23.138 13.0746 23.0342 13.6561C22.6811 15.5532 22.0788 17.0348 21.1026 18.4195C18.2501 22.4489 13.0852 24.1313 8.41194 22.5389C4.881 21.3342 2.13241 18.371 1.2116 14.7777C0.124621 10.5198 1.62008 6.05424 5.05409 3.2918C7.40805 1.40171 10.4197 0.56398 13.4453 0.951691Z" fill="#273472"/>
<path d="M7.60018 2.53528C6.75553 2.93684 5.72394 3.70534 4.85851 4.57769C3.97924 5.46388 3.52922 6.09391 3.6123 6.34315C3.63999 6.41931 3.73692 6.53701 3.82693 6.59932C4.07617 6.75856 4.2631 6.64778 4.7062 6.05237C5.447 5.06232 6.60321 4.07228 7.78712 3.42148C8.4033 3.08223 8.56254 2.87453 8.41715 2.61836C8.25791 2.3345 8.07098 2.31373 7.60018 2.53528Z" fill="#273472"/>
<path d="M10.6271 3.86662C7.69849 4.39279 5.28914 6.40751 4.25755 9.17687C3.90446 10.1185 3.81445 10.7277 3.81445 11.9947C3.81445 13.2617 3.90446 13.8709 4.25755 14.8125C5.64223 18.5304 9.44319 20.7528 13.3272 20.1297C16.4774 19.6174 19.1013 17.2565 19.9529 14.1825C20.3406 12.777 20.3406 11.2124 19.9529 9.8069C19.226 7.18293 17.1974 5.04359 14.5873 4.17124C13.4034 3.77661 11.8041 3.65199 10.6271 3.86662ZM13.4311 4.76666C16.6089 5.37592 19.0806 8.11759 19.3367 11.3231C19.5791 14.3556 18.1113 17.0696 15.4666 18.4958C14.3727 19.0843 13.3134 19.3474 12.0118 19.3474C9.90705 19.3474 8.09312 18.565 6.64613 17.0419C6.05764 16.4188 5.72531 15.9272 5.33068 15.0895C4.75604 13.8779 4.53449 12.604 4.67296 11.2816C4.76296 10.3746 4.94989 9.70305 5.33068 8.89993C5.72531 8.0622 6.05764 7.57064 6.64613 6.94753C7.25539 6.30366 7.77464 5.9021 8.5016 5.52131C10.094 4.67665 11.6725 4.43433 13.4311 4.76666Z" fill="#273472"/>
</g>
<defs>
<clipPath id="clip0_9229_42182">
<rect width="24" height="24" fill="white"/>
</clipPath>
</defs>
</svg>
