<svg width="209" height="235" viewBox="0 0 209 235" fill="none" xmlns="http://www.w3.org/2000/svg">
<g clip-path="url(#clip0_9510_14683)">
<path d="M118.727 180.303C168.515 180.303 208.877 139.941 208.877 90.1524C208.877 40.3637 168.515 0.00195312 118.727 0.00195312C68.9379 0.00195312 28.5762 40.3637 28.5762 90.1524C28.5762 139.941 68.9379 180.303 118.727 180.303Z" fill="white"/>
<path d="M177.638 40.3171H12.4948C12.1407 40.3095 11.8598 40.0163 11.8673 39.6622C11.8747 39.3187 12.1514 39.042 12.4948 39.0347H177.638C177.992 39.0422 178.273 39.3355 178.266 39.6896C178.258 40.033 177.981 40.3097 177.638 40.3171Z" fill="#BDBDBD"/>
<path d="M121.359 61.9263H75.7068C72.2778 61.9263 69.498 64.706 69.498 68.135V68.135C69.498 71.564 72.2778 74.3437 75.7068 74.3437H121.359C124.788 74.3437 127.568 71.564 127.568 68.135C127.568 64.706 124.788 61.9263 121.359 61.9263Z" fill="#8C8C8C" fill-opacity="0.2"/>
<path d="M46.2146 86.7612H150.85C154.279 86.7612 157.058 89.541 157.058 92.97C157.058 96.399 154.279 99.1787 150.85 99.1787H46.2146C42.7856 99.1787 40.0059 96.399 40.0059 92.97C40.0059 89.541 42.7856 86.7612 46.2146 86.7612Z" fill="#8C8C8C" fill-opacity="0.2"/>
<path d="M46.2146 111.596H150.85C154.279 111.596 157.058 114.376 157.058 117.805C157.058 121.234 154.279 124.014 150.85 124.014H46.2146C42.7856 124.014 40.0059 121.234 40.0059 117.805C40.0059 114.376 42.7856 111.596 46.2146 111.596Z" fill="#8C8C8C" fill-opacity="0.2"/>
<path d="M33.2476 233.456L33.0014 233.432C24.6462 232.57 17.0932 228.076 12.3489 221.145C11.0494 219.213 9.99828 217.126 9.22029 214.932L9.14551 214.723L9.36689 214.705C12.01 214.492 14.7253 214.044 15.9315 213.83L8.15345 211.195L8.10536 210.964C7.64422 208.798 8.54764 206.569 10.387 205.334C12.2313 204.041 14.677 204 16.5641 205.23C17.4109 205.771 18.2967 206.307 19.1532 206.825C22.0967 208.605 25.1403 210.446 27.4223 212.965C30.8826 216.862 32.3994 222.112 31.5501 227.253L33.2476 233.456Z" fill="#8C8C8C" fill-opacity="0.2"/>
<path d="M61.5206 229.588L65.3538 229.588L67.1777 214.801L61.5195 214.801L61.5206 229.588Z" fill="#A0616A"/>
<path d="M61.385 233.587L73.1735 233.586V233.437C73.1733 230.903 71.1191 228.849 68.5851 228.849L66.4315 227.215L62.4138 228.849L61.3848 228.849L61.385 233.587Z" fill="#24262B"/>
<path d="M30.7988 218.97L33.865 221.27L44.1979 210.537L39.6719 207.142L30.7988 218.97Z" fill="#A0616A"/>
<path d="M28.291 222.088L37.721 229.162L37.8104 229.043C39.331 227.016 38.9206 224.14 36.8937 222.619L36.1514 220.02L31.9572 218.916L31.134 218.298L28.291 222.088Z" fill="#24262B"/>
<path d="M43.5416 160.198C43.5416 160.198 43.7532 165.97 44.0202 170.6C44.0639 171.359 42.2852 172.184 42.3313 173.009C42.3618 173.557 42.6962 174.09 42.7272 174.662C42.76 175.265 42.2984 175.798 42.3313 176.422C42.3634 177.031 42.89 177.73 42.9218 178.354C43.2636 185.065 44.5028 193.099 43.2619 195.345C42.6504 196.452 34.8555 211.787 34.8555 211.787C34.8555 211.787 39.1985 218.302 40.4394 216.13C42.0784 213.262 54.7095 199.843 54.7095 197.281C54.7095 194.722 57.6318 175.541 57.6318 175.541L59.6694 186.892L60.6037 189.141L60.3101 190.461L60.9139 192.243L60.9465 194.006L61.5343 197.281C61.5343 197.281 59.7661 222.793 60.7619 223.504C61.7608 224.217 66.5971 225.499 67.1679 224.217C67.7356 222.936 71.4308 197.591 71.4308 197.591C71.4308 197.591 72.0264 185.977 72.6717 175.181C72.7089 174.554 73.1495 173.797 73.1836 173.18C73.2239 172.463 72.9447 171.533 72.9819 170.838C73.0223 170.041 73.3759 169.479 73.41 168.716C73.6737 162.819 72.1935 155.637 71.722 154.93C70.298 152.796 69.0168 151.09 69.0168 151.09C69.0168 151.09 49.8384 144.788 44.7135 151.191L43.5416 160.198Z" fill="#273472"/>
<path d="M62.6709 100.837L55.0681 99.3164L51.5202 104.131C44.8999 110.641 44.8002 116.386 45.982 125.595V138.52L45.1267 147.184C45.1267 147.184 42.0986 153.518 45.2217 154.992C48.3449 156.467 68.8591 156.341 70.8177 155.753C72.7763 155.164 71.0786 154.441 70.5643 151.698C69.5982 146.545 70.2444 149.03 70.3109 147.39C71.2642 123.853 69.0438 114.191 68.8183 111.651L64.9518 104.638L62.6709 100.837Z" fill="#ADC8FF"/>
<path d="M102.742 119.814C101.95 121.315 100.09 121.89 98.5889 121.098C98.4288 121.013 98.2765 120.915 98.1337 120.803L81.7148 131.228L81.7622 125.552L97.7119 116.297C98.8479 115.023 100.802 114.911 102.075 116.047C103.141 116.998 103.417 118.555 102.742 119.814Z" fill="#A0616A"/>
<path d="M56.6672 107.41L54.7979 107.212C53.0707 107.033 51.3761 107.773 50.3332 109.161C49.9337 109.687 49.6468 110.29 49.4903 110.933L49.4891 110.938C49.0203 112.87 49.7557 114.896 51.3553 116.077L57.8115 120.837C62.3423 126.959 70.8572 131.021 80.8454 134.321L96.3707 124.679L90.8794 118.028L80.2305 123.735L64.4015 111.482L64.3924 111.474L58.3679 107.593L56.6672 107.41Z" fill="#ADC8FF"/>
<path d="M60.1003 97.1034C64.9968 97.1034 68.9662 93.134 68.9662 88.2375C68.9662 83.341 64.9968 79.3716 60.1003 79.3716C55.2038 79.3716 51.2344 83.341 51.2344 88.2375C51.2344 93.134 55.2038 97.1034 60.1003 97.1034Z" fill="#A0616A"/>
<path d="M60.3067 97.1055C60.2352 97.1078 60.1636 97.1094 60.092 97.1114C60.0614 97.1908 60.0284 97.2696 59.9902 97.3469L60.3067 97.1055Z" fill="#2F2E41"/>
<path d="M62.7383 88.4839C62.7522 88.5712 62.7735 88.6573 62.8019 88.741C62.7901 88.6532 62.7688 88.567 62.7383 88.4839Z" fill="#2F2E41"/>
<path d="M69.0807 79.751C68.7157 80.8842 68.39 79.4468 67.1895 79.7053C65.7454 80.0163 64.0649 79.9095 62.8822 79.0243C61.1201 77.7314 58.8366 77.3834 56.7693 78.0926C54.7457 78.8085 51.3555 79.3133 50.8282 81.394C50.6449 82.1173 50.5721 82.9022 50.1279 83.5016C49.7395 84.0257 49.1264 84.3246 48.6137 84.7279C46.8827 86.0899 48.2057 89.9594 49.025 92.004C49.8443 94.0486 51.7237 95.538 53.79 96.301C55.7892 97.0391 57.959 97.1693 60.0917 97.1113C60.4627 96.1493 60.3024 95.0381 59.9963 94.0408C59.665 92.9611 59.1744 91.9191 59.0359 90.7982C58.8975 89.6773 59.2015 88.4041 60.1413 87.7778C61.0052 87.2022 62.4109 87.5529 62.7396 88.4836C62.5478 87.32 63.7265 86.194 64.9419 85.996C66.2468 85.7834 67.5516 86.2545 68.8528 86.489C70.1539 86.7235 69.6921 81.2457 69.0807 79.751Z" fill="#24262B"/>
<path d="M118.666 102.904C119.493 92.9175 112.067 84.1519 102.081 83.3254C92.0944 82.4989 83.3289 89.9245 82.5024 99.9108C81.6759 109.897 89.1014 118.663 99.0877 119.489C109.074 120.316 117.84 112.89 118.666 102.904Z" fill="#FF3A28"/>
<path d="M105.35 93.8472L100.584 98.6132L95.8178 93.8472C95.0463 93.0757 93.7954 93.0757 93.0239 93.8472C92.2524 94.6187 92.2524 95.8695 93.0239 96.6411L97.7899 101.407L93.0239 106.173C92.2532 106.945 92.2543 108.196 93.0266 108.967C93.7978 109.737 95.0466 109.737 95.8178 108.967L100.584 104.201L105.35 108.967C106.122 109.738 107.373 109.737 108.144 108.964C108.913 108.193 108.913 106.944 108.144 106.173L103.378 101.407L108.144 96.6411C108.915 95.8695 108.915 94.6187 108.144 93.8472C107.372 93.0757 106.121 93.0757 105.35 93.8472Z" fill="white"/>
<path d="M93.4341 86.1574C93.969 87.7685 93.0964 89.5082 91.4853 90.043C91.3135 90.1 91.137 90.1418 90.9579 90.1677L87.1139 109.233L83.0508 105.269L87.4137 87.3521C87.2811 85.6505 88.5531 84.1635 90.2547 84.0309C91.6785 83.9199 92.993 84.799 93.4341 86.1574Z" fill="#A0616A"/>
<path d="M52.5868 110.818L51.1497 112.03C49.8247 113.152 49.1853 114.887 49.4651 116.601C49.5685 117.253 49.805 117.878 50.16 118.435L50.1629 118.44C51.2329 120.116 53.2036 120.988 55.1637 120.651L63.0681 119.288C70.6225 120.257 79.4484 116.924 88.7443 112.001L92.5348 94.1227L83.9339 93.481L80.6799 105.116L60.8794 108.056L60.8678 108.057L53.8961 109.717L52.5868 110.818Z" fill="#ADC8FF"/>
<path d="M97.5942 233.893L1.14389 234.002C0.910498 234.001 0.721903 233.812 0.722659 233.578C0.723407 233.346 0.911559 233.158 1.14389 233.157L97.5942 233.048C97.8276 233.049 98.0162 233.238 98.0155 233.472C98.0147 233.704 97.8266 233.892 97.5942 233.893Z" fill="#24262B"/>
<path d="M20.8745 32.1948C22.5321 32.1948 23.8759 30.821 23.8759 29.1264C23.8759 27.4318 22.5321 26.0581 20.8745 26.0581C19.2168 26.0581 17.873 27.4318 17.873 29.1264C17.873 30.821 19.2168 32.1948 20.8745 32.1948Z" fill="#273472"/>
<path d="M31.2436 32.1948C32.9013 32.1948 34.2451 30.821 34.2451 29.1264C34.2451 27.4318 32.9013 26.0581 31.2436 26.0581C29.586 26.0581 28.2422 27.4318 28.2422 29.1264C28.2422 30.821 29.586 32.1948 31.2436 32.1948Z" fill="#273472"/>
<path d="M41.6108 32.1948C43.2685 32.1948 44.6123 30.821 44.6123 29.1264C44.6123 27.4318 43.2685 26.0581 41.6108 26.0581C39.9532 26.0581 38.6094 27.4318 38.6094 29.1264C38.6094 30.821 39.9532 32.1948 41.6108 32.1948Z" fill="#273472"/>
<path d="M53.4349 31.5517C53.3427 31.5517 53.2506 31.516 53.1811 31.4449L51.1559 29.3747C51.0209 29.2367 51.0209 29.0163 51.1559 28.8783L53.1811 26.8082C53.3186 26.6682 53.5435 26.666 53.683 26.8027C53.8232 26.9398 53.8257 27.1646 53.6886 27.3046L51.9062 29.1265L53.6886 30.9486C53.8257 31.0886 53.8232 31.3134 53.683 31.4505C53.6141 31.5181 53.5245 31.5517 53.4349 31.5517Z" fill="#273472"/>
<path d="M56.8374 31.5515C56.7478 31.5515 56.6582 31.5178 56.5892 31.4503C56.449 31.3132 56.4466 31.0886 56.5837 30.9484L58.3659 29.1263L56.5837 27.3044C56.4466 27.1643 56.449 26.9395 56.5892 26.8025C56.7291 26.6652 56.954 26.6678 57.0911 26.808L59.1161 28.8781C59.2511 29.0161 59.2511 29.2365 59.1161 29.3744L57.0911 31.4447C57.0216 31.5158 56.9296 31.5515 56.8374 31.5515Z" fill="#273472"/>
<path d="M162.785 26.4136H159.019C158.59 26.4136 158.242 26.7614 158.242 27.1909V30.9601C158.242 31.3896 158.59 31.7374 159.019 31.7374H162.785C163.215 31.7374 163.566 31.3896 163.566 30.9601V27.1909C163.566 26.7614 163.215 26.4136 162.785 26.4136Z" fill="#273472"/>
<path d="M153.559 26.4136H149.793C149.363 26.4136 149.016 26.7614 149.016 27.1909V30.9601C149.016 31.3896 149.363 31.7374 149.793 31.7374H153.559C153.988 31.7374 154.339 31.3896 154.339 30.9601V27.1909C154.339 26.7614 153.988 26.4136 153.559 26.4136Z" fill="#273472"/>
<path d="M171.482 26.5908H167.717C167.287 26.5908 166.939 26.9386 166.939 27.3681V31.1374C166.939 31.5668 167.287 31.9147 167.717 31.9147H171.482C171.912 31.9147 172.263 31.5668 172.263 31.1374V27.3681C172.263 26.9386 171.912 26.5908 171.482 26.5908Z" fill="#273472"/>
<path d="M114.723 28.0249H84.6215C84.0962 28.0249 83.6738 28.4508 83.6738 28.9726C83.6738 29.4943 84.0962 29.9202 84.6215 29.9202H114.723C115.244 29.9202 115.67 29.4943 115.67 28.9726C115.67 28.4508 115.244 28.0249 114.723 28.0249Z" fill="#273472"/>
</g>
<defs>
<clipPath id="clip0_9510_14683">
<rect width="208.155" height="234" fill="white" transform="translate(0.722656 0.00195312)"/>
</clipPath>
</defs>
</svg>
