<svg width="240" height="235" viewBox="0 0 240 235" fill="none" xmlns="http://www.w3.org/2000/svg">
<g clip-path="url(#clip0_6476_42434)">
<path d="M152.186 53.4023H87.5911C86.1191 53.4041 84.7079 53.9896 83.6671 55.0305C82.6262 56.0713 82.0406 57.4825 82.0389 58.9545V202.518L81.2986 202.744L65.4524 207.596C64.7014 207.825 63.8902 207.747 63.1969 207.378C62.5037 207.01 61.9849 206.381 61.7546 205.631L14.6194 51.6663C14.3901 50.9153 14.4682 50.1039 14.8368 49.4105C15.2054 48.7171 15.8342 48.1984 16.585 47.9685L41.0039 40.4914L111.795 18.8227L136.214 11.3457C136.586 11.2313 136.976 11.1913 137.363 11.2281C137.75 11.2648 138.126 11.3775 138.47 11.5597C138.813 11.7419 139.118 11.9901 139.365 12.29C139.613 12.5899 139.798 12.9357 139.912 13.3075L151.96 52.662L152.186 53.4023Z" fill="white"/>
<path d="M166.281 52.6638L151.76 5.23258C151.519 4.44228 151.124 3.70734 150.598 3.06975C150.072 2.43215 149.426 1.9044 148.696 1.51665C147.967 1.1289 147.168 0.888752 146.345 0.809929C145.522 0.731105 144.692 0.815156 143.902 1.05727L109.571 11.5659L38.7829 33.2382L4.45141 43.7505C2.85654 44.2403 1.52114 45.3428 0.738326 46.8161C-0.0444922 48.2894 -0.210774 50.0131 0.275987 51.6089L49.9059 213.709C50.3013 214.997 51.0992 216.125 52.1824 216.926C53.2657 217.728 54.5772 218.161 55.9247 218.162C56.5483 218.162 57.1684 218.069 57.7642 217.885L81.2985 210.681L82.0388 210.452V209.678L81.2985 209.904L57.5459 217.178C56.1381 217.607 54.6176 217.46 53.3179 216.77C52.0182 216.079 51.0454 214.901 50.613 213.495L0.98683 51.3905C0.772545 50.6934 0.697862 49.961 0.767052 49.2351C0.836243 48.5091 1.04794 47.804 1.39004 47.16C1.73215 46.516 2.19793 45.9458 2.76071 45.4821C3.32348 45.0183 3.9722 44.6702 4.66973 44.4575L39.0013 33.9452L109.789 12.2766L144.121 1.76426C144.65 1.6028 145.2 1.52048 145.753 1.51996C146.94 1.52263 148.095 1.90535 149.049 2.61207C150.003 3.31878 150.705 4.31236 151.054 5.44727L165.508 52.6638L165.737 53.4041H166.507L166.281 52.6638Z" fill="#24262B"/>
<path d="M45.4108 48.0911C44.6974 48.0906 44.0029 47.8614 43.4292 47.4373C42.8555 47.0132 42.4329 46.4164 42.2233 45.7344L37.4556 30.1615C37.3275 29.7432 37.283 29.3037 37.3248 28.8682C37.3665 28.4327 37.4936 28.0097 37.6989 27.6234C37.9041 27.237 38.1835 26.8949 38.521 26.6165C38.8585 26.3381 39.2475 26.1289 39.6658 26.0009L104.79 6.06316C105.635 5.80536 106.547 5.89329 107.327 6.30763C108.107 6.72198 108.691 7.42889 108.951 8.27323L113.718 23.8463C113.976 24.6912 113.888 25.6037 113.474 26.3837C113.059 27.1637 112.353 27.7476 111.508 28.0071L46.3841 47.9448C46.0687 48.0416 45.7407 48.0909 45.4108 48.0911Z" fill="#273472"/>
<path d="M70.3854 17.4174C74.474 17.4174 77.7885 14.1029 77.7885 10.0144C77.7885 5.92578 74.474 2.61133 70.3854 2.61133C66.2969 2.61133 62.9824 5.92578 62.9824 10.0144C62.9824 14.1029 66.2969 17.4174 70.3854 17.4174Z" fill="#273472"/>
<path d="M70.3851 14.7018C72.9741 14.7018 75.0729 12.603 75.0729 10.014C75.0729 7.42498 72.9741 5.32617 70.3851 5.32617C67.7961 5.32617 65.6973 7.42498 65.6973 10.014C65.6973 12.603 67.7961 14.7018 70.3851 14.7018Z" fill="white"/>
<path d="M223.067 216.27H97.9559C97.1217 216.269 96.322 215.938 95.7321 215.348C95.1423 214.758 94.8105 213.958 94.8096 213.124V63.2127C94.8105 62.3785 95.1423 61.5788 95.7321 60.989C96.322 60.3991 97.1217 60.0673 97.9559 60.0664H223.067C223.901 60.0674 224.701 60.3992 225.291 60.989C225.881 61.5788 226.212 62.3785 226.213 63.2127V213.124C226.212 213.958 225.881 214.758 225.291 215.348C224.701 215.937 223.901 216.269 223.067 216.27Z" fill="#8C8C8C" fill-opacity="0.2"/>
<path d="M165.508 52.6621H87.5914C85.9232 52.6645 84.3241 53.3282 83.1445 54.5078C81.9649 55.6873 81.3012 57.2865 81.2988 58.9547V209.902L82.0391 209.677V58.9547C82.0409 57.4827 82.6265 56.0715 83.6673 55.0306C84.7082 53.9897 86.1194 53.4042 87.5914 53.4024H165.738L165.508 52.6621ZM233.431 52.6621H87.5914C85.9232 52.6645 84.3241 53.3282 83.1445 54.5078C81.9649 55.6873 81.3012 57.2865 81.2988 58.9547V228.484C81.3012 230.152 81.9649 231.751 83.1445 232.931C84.3241 234.111 85.9232 234.774 87.5914 234.777H233.431C235.099 234.774 236.698 234.111 237.878 232.931C239.058 231.751 239.721 230.152 239.724 228.484V58.9547C239.721 57.2865 239.058 55.6873 237.878 54.5078C236.698 53.3282 235.099 52.6645 233.431 52.6621ZM238.983 228.484C238.982 229.956 238.396 231.367 237.355 232.408C236.314 233.449 234.903 234.034 233.431 234.036H87.5914C86.1194 234.034 84.7082 233.449 83.6673 232.408C82.6265 231.367 82.0409 229.956 82.0391 228.484V58.9547C82.0409 57.4827 82.6265 56.0715 83.6673 55.0306C84.7082 53.9897 86.1194 53.4042 87.5914 53.4024H233.431C234.903 53.4042 236.314 53.9897 237.355 55.0306C238.396 56.0715 238.982 57.4827 238.983 58.9547V228.484Z" fill="#24262B"/>
<path d="M194.565 68.9494H126.457C125.574 68.9484 124.727 68.5971 124.103 67.9726C123.478 67.348 123.127 66.5012 123.126 65.618V49.3314C123.127 48.4481 123.478 47.6014 124.103 46.9768C124.727 46.3523 125.574 46.001 126.457 46H194.565C195.448 46.001 196.295 46.3523 196.92 46.9768C197.544 47.6014 197.896 48.4481 197.897 49.3314V65.618C197.896 66.5012 197.544 67.348 196.92 67.9726C196.295 68.5971 195.448 68.9484 194.565 68.9494Z" fill="#273472"/>
<path d="M160.511 47.1107C164.6 47.1107 167.914 43.7963 167.914 39.7077C167.914 35.6191 164.6 32.3047 160.511 32.3047C156.423 32.3047 153.108 35.6191 153.108 39.7077C153.108 43.7963 156.423 47.1107 160.511 47.1107Z" fill="#273472"/>
<path d="M160.511 44.2175C163.001 44.2175 165.02 42.1987 165.02 39.7084C165.02 37.218 163.001 35.1992 160.511 35.1992C158.021 35.1992 156.002 37.218 156.002 39.7084C156.002 42.1987 158.021 44.2175 160.511 44.2175Z" fill="white"/>
</g>
<defs>
<clipPath id="clip0_6476_42434">
<rect width="239.723" height="234" fill="white" transform="translate(0 0.777344)"/>
</clipPath>
</defs>
</svg>
