<svg width="427" height="235" viewBox="0 0 427 235" fill="none" xmlns="http://www.w3.org/2000/svg">
<path fill-rule="evenodd" clip-rule="evenodd" d="M409.165 234.327C409.166 234.155 409.166 233.982 409.166 233.81C409.166 120.821 317.571 29.2266 204.583 29.2266C91.5949 29.2266 0 120.821 0 233.81C0 233.81 2.57569e-09 233.81 2.57569e-09 233.811H409.165V234.327Z" fill="white"/>
<path d="M110 233.5C110 233.777 110.23 234 110.516 234H426.484C426.77 234 427 233.777 427 233.5C427 233.223 426.77 233 426.484 233H110.516C110.23 233 110 233.223 110 233.5Z" fill="#24262B"/>
<path d="M326.931 36.5196C326.931 36.5196 318.506 37.4708 317.962 50.5164C317.509 61.3878 316.585 67.4463 321.007 69.7143C322.588 70.5249 324.448 70.5961 326.135 70.0412L344.19 64.1056C344.19 64.1056 344.461 44.5372 338.21 39.781C331.959 35.0247 326.931 36.5196 326.931 36.5196Z" fill="#24262B"/>
<path d="M336.885 66.5092L327.748 69.5131V56.3613H336.037L336.885 66.5092Z" fill="#FFC7C9"/>
<path d="M308.954 141.169C308.459 144.182 306.449 146.343 304.466 145.995C302.482 145.647 301.276 142.922 301.772 139.908C301.952 138.701 302.43 137.56 303.163 136.58L305.428 123.842L311.591 125.131L308.704 137.552C309.084 138.727 309.169 139.967 308.954 141.169Z" fill="#FFC7C9"/>
<path d="M329.873 225.88H321.314L316.352 180.154H329.579L329.873 225.88Z" fill="#FFC7C9"/>
<path d="M312.982 233.229C312.082 233.229 311.281 233.207 310.678 233.151C308.404 232.943 306.235 231.265 305.145 230.284C304.656 229.844 304.499 229.14 304.753 228.534C304.936 228.099 305.301 227.775 305.755 227.645L311.761 225.929L321.488 219.367L321.596 219.562C321.637 219.634 322.592 221.355 322.912 222.518C323.033 222.96 323.001 223.329 322.816 223.613C322.688 223.811 322.511 223.925 322.366 223.991C322.542 224.176 323.094 224.549 324.793 224.82C327.276 225.213 327.795 222.644 327.816 222.534L327.832 222.448L327.906 222.4C329.087 221.64 329.813 221.293 330.065 221.367C330.221 221.414 330.483 221.492 331.187 228.495C331.258 228.714 331.752 230.326 331.416 231.867C331.05 233.544 323.728 232.967 322.263 232.834C322.222 232.839 316.739 233.229 312.982 233.229Z" fill="#24262B"/>
<path d="M349.207 225.88H340.648L335.686 180.154H348.913L349.207 225.88Z" fill="#FFC7C9"/>
<path d="M332.314 233.229C331.414 233.229 330.613 233.207 330.01 233.151C327.736 232.943 325.567 231.265 324.477 230.284C323.988 229.844 323.831 229.14 324.085 228.534C324.268 228.099 324.633 227.775 325.087 227.645L331.094 225.929L340.82 219.367L340.928 219.562C340.969 219.634 341.924 221.355 342.244 222.518C342.365 222.96 342.333 223.329 342.148 223.613C342.02 223.811 341.843 223.925 341.698 223.991C341.874 224.176 342.426 224.549 344.125 224.82C346.608 225.213 347.127 222.644 347.148 222.534L347.164 222.448L347.238 222.4C348.419 221.639 349.147 221.295 349.396 221.367C349.553 221.414 349.815 221.492 350.519 228.495C350.59 228.714 351.084 230.326 350.748 231.867C350.382 233.544 343.06 232.967 341.595 232.834C341.554 232.839 336.071 233.229 332.314 233.229Z" fill="#24262B"/>
<path d="M351.669 113.572H310.086L325.034 64.3789H341.613L351.669 113.572Z" fill="#ADC8FF"/>
<path d="M327.651 64.3865C327.651 64.3865 317.323 64.1147 316.236 66.8325C315.149 69.5503 302.375 134.235 302.375 134.235H310.8L327.651 64.3865Z" fill="#ADC8FF"/>
<path d="M328.878 60.0025C333.907 60.0025 337.983 55.9261 337.983 50.8977C337.983 45.8693 333.907 41.793 328.878 41.793C323.85 41.793 319.773 45.8693 319.773 50.8977C319.773 55.9261 323.85 60.0025 328.878 60.0025Z" fill="#FFC7C9"/>
<path d="M326.389 39.918C326.389 39.918 321.378 60.2626 326.949 69.775L319.102 68.1082C319.102 68.1082 316.061 45.8405 322.176 41.7921L326.389 39.918Z" fill="#24262B"/>
<path d="M343.027 113.572H315.739L300.807 174.85C300.533 177.439 302.174 179.853 304.688 180.526C312.881 182.72 332.536 185.828 362.288 177.171C365.151 176.338 366.776 173.318 365.877 170.475L343.027 113.572Z" fill="#273472"/>
<path d="M331.994 64.3775L340.482 64.0039C344.157 64.2814 347.481 66.282 349.452 69.397C355.448 78.8761 366.672 98.8603 356.651 101.598C343.446 105.205 337.048 85.1256 337.048 85.1256L331.994 64.3775Z" fill="#ADC8FF"/>
<path d="M329.081 70.3307C327.337 67.824 327.274 64.8738 328.939 63.7415C330.605 62.6093 333.368 63.7237 335.112 66.2316C335.824 67.2237 336.276 68.3749 336.432 69.5889L343.681 80.3054L338.362 83.6736L331.78 72.7514C330.689 72.1726 329.764 71.3426 329.081 70.3307Z" fill="#FFC7C9"/>
<path d="M333.371 78.9998L339.361 73.4863L351.205 84.5132L340.19 92.0429L333.371 78.9998Z" fill="#ADC8FF"/>
<path d="M227.929 51.8379H39.9155C32.5883 51.8379 26.6484 57.7778 26.6484 65.105V65.105C26.6484 72.4322 32.5883 78.3721 39.9155 78.3721H227.929C235.256 78.3721 241.196 72.4322 241.196 65.105C241.196 57.7778 235.256 51.8379 227.929 51.8379Z" fill="#4EB0E3"/>
<path d="M168.451 98.5324C154.319 98.5324 142.822 87.0354 142.822 72.9039C142.822 58.7723 154.319 47.2754 168.451 47.2754C182.582 47.2754 194.079 58.7723 194.079 72.9039C194.079 87.0354 182.582 98.5324 168.451 98.5324ZM168.451 54.2398C158.159 54.2398 149.787 62.6124 149.787 72.9039C149.787 83.1953 158.159 91.568 168.451 91.568C178.742 91.568 187.115 83.1953 187.115 72.9039C187.115 62.6124 178.742 54.2398 168.451 54.2398Z" fill="#484662"/>
<path d="M216.794 119.521C215.992 119.521 215.186 119.245 214.529 118.682L182.134 90.903C180.674 89.6512 180.505 87.4527 181.757 85.9926C183.009 84.5333 185.207 84.3641 186.667 85.616L219.063 113.395C220.523 114.647 220.691 116.845 219.44 118.305C218.751 119.108 217.775 119.521 216.794 119.521Z" fill="#484662"/>
<path d="M239.51 38.4609H200.474C199.543 38.4609 198.789 39.2152 198.789 40.1455V40.1455C198.789 41.0759 199.543 41.8301 200.474 41.8301H239.51C240.441 41.8301 241.195 41.0759 241.195 40.1455C241.195 39.2152 240.441 38.4609 239.51 38.4609Z" fill="#DFDFE0"/>
<path d="M67.3697 0H28.333C27.4027 0 26.6484 0.754221 26.6484 1.6846V1.68461C26.6484 2.61499 27.4027 3.36921 28.333 3.36921H67.3697C68.3001 3.36921 69.0543 2.61499 69.0543 1.6846C69.0543 0.754221 68.3001 0 67.3697 0Z" fill="#DFDFE0"/>
<path d="M142.908 14.7031H28.333C27.4027 14.7031 26.6484 15.4573 26.6484 16.3877V16.3877C26.6484 17.3181 27.4027 18.0723 28.333 18.0723H142.908C143.839 18.0723 144.593 17.3181 144.593 16.3877C144.593 15.4573 143.839 14.7031 142.908 14.7031Z" fill="#DFDFE0"/>
</svg>
