<svg width="24" height="24" viewBox="0 0 24 24" fill="none" xmlns="http://www.w3.org/2000/svg">
<path d="M3.21095 9.49306C2.94473 8.28648 2.89222 6.72988 3.38721 5.96271C3.70594 5.46371 4.52716 5.29242 4.77091 5.25146C5.08215 5.19932 5.85462 5.12109 6.30834 5.47862C6.69083 5.78024 6.99833 6.33884 7.22706 6.97936C10.122 6.17873 13.3281 5.64991 16.328 5.47489C16.3317 4.79342 16.4367 4.16404 16.6992 3.75813C17.0217 3.25536 17.8429 3.0878 18.0867 3.04684C18.3979 2.9947 19.1704 2.91278 19.6241 3.27027C20.3441 3.83632 20.8053 5.32965 20.9441 6.55486C21.0191 7.20656 21.0678 8.3945 20.5616 9.02015C20.2203 9.44469 19.3691 9.70535 18.6341 9.70535C18.2667 9.70535 17.9254 9.64207 17.6929 9.49306C17.2092 9.18771 16.8979 8.5286 16.7067 7.94018C13.8306 8.73339 10.6507 9.25849 7.66954 9.43351C7.68456 10.0517 7.6058 10.7816 7.24581 11.2248C6.90458 11.6493 6.05335 11.9137 5.3184 11.9137C4.95089 11.9137 4.60967 11.8467 4.37718 11.7014C3.69845 11.2731 3.3572 10.1336 3.21095 9.49306Z" fill="#273472"/>
<path d="M20.9879 18.1029C20.9541 18.7583 20.8042 19.9351 20.2042 20.4714C19.8967 20.7432 19.323 20.8773 18.7492 20.8773C18.1755 20.8773 17.6018 20.7432 17.2943 20.4714C16.8668 20.0878 16.6681 19.3839 16.5781 18.7695C15.0969 18.9296 13.5444 19.0078 11.9995 19.0078C10.4508 19.0078 8.90584 18.9296 7.42091 18.7695C7.33091 19.3839 7.13216 20.0878 6.70467 20.4714C6.39718 20.7432 5.82346 20.8773 5.24972 20.8773C4.67601 20.8773 4.10227 20.7432 3.7948 20.4714C3.19481 19.9351 3.04856 18.7583 3.01107 18.1029C2.94733 16.8702 3.15356 15.3211 3.76855 14.647C4.16979 14.2076 5.00224 14.1741 5.24972 14.1741C5.40723 14.1741 5.68472 14.1853 5.96596 14.2485C6.2472 14.3156 6.53968 14.4347 6.73468 14.647C7.05716 15.0045 7.2709 15.6078 7.3834 16.2781C10.3758 15.9653 13.6232 15.9653 16.6156 16.2781C16.7318 15.6078 16.9418 15.0045 17.268 14.647C17.6693 14.2076 18.5017 14.1741 18.7492 14.1741C18.9067 14.1741 19.1842 14.1853 19.4655 14.2485C19.7467 14.3156 20.0392 14.4347 20.2342 14.647C20.8454 15.3211 21.0554 16.8702 20.9879 18.1029Z" fill="#273472"/>
</svg>
