<svg width="24" height="24" viewBox="0 0 24 24" fill="none" xmlns="http://www.w3.org/2000/svg">
<g id="hotel/comodidades/ar_condicionado">
<g id="Group 2">
<g id="Group">
<path id="Vector" d="M4.46819 12.7734L3.58203 14.6243H20.419L19.5328 12.7734H4.46819Z" fill="#273472"/>
</g>
<g id="Group_2">
<path id="Vector_2" d="M0 13.514C0 14.1433 0.48 14.6245 1.10769 14.6245H2.73231L3.91385 12.2554C3.98769 12.1444 4.09846 12.0333 4.24615 12.0333H19.7538C19.9015 12.0333 20.0123 12.1074 20.0862 12.2554L21.2677 14.6245H22.8923C23.52 14.6245 24 14.1433 24 13.514V10.9229H0V13.514Z" fill="#273472"/>
</g>
<g id="Group_3">
<path id="Vector_3" d="M22.8923 5H1.10769C0.48 5 0 5.48122 0 6.1105V10.1823H24V6.1105C24 5.48122 23.52 5 22.8923 5ZM3.32308 7.96132H2.95385C2.73231 7.96132 2.58462 7.81326 2.58462 7.59116C2.58462 7.36906 2.73231 7.22099 2.95385 7.22099H3.32308C3.54462 7.22099 3.69231 7.36906 3.69231 7.59116C3.69231 7.81326 3.50769 7.96132 3.32308 7.96132ZM5.53846 7.96132H5.16923C4.94769 7.96132 4.8 7.81326 4.8 7.59116C4.8 7.36906 4.94769 7.22099 5.16923 7.22099H5.53846C5.76 7.22099 5.90769 7.36906 5.90769 7.59116C5.90769 7.81326 5.72308 7.96132 5.53846 7.96132Z" fill="#273472"/>
</g>
<g id="Group_4">
<path id="Vector_4" d="M8.97326 15.7719C8.78865 15.6609 8.56711 15.7349 8.45634 15.92C8.34557 16.1051 8.41942 16.3272 8.60403 16.4382C9.37942 16.8454 8.27173 18.289 8.93634 19.3625C9.1948 19.7697 9.8225 19.3995 9.56403 18.9923C9.15788 18.289 10.3394 16.5122 8.97326 15.7719Z" fill="#273472"/>
</g>
<g id="Group_5">
<path id="Vector_5" d="M11.9263 15.772C11.4832 15.5499 11.1509 16.2162 11.594 16.4383C12.3694 16.8455 11.2986 18.3632 11.9263 19.3626C12.1848 19.7698 12.8125 19.3996 12.554 18.9924C12.1109 18.2891 13.2925 16.5123 11.9263 15.772Z" fill="#273472"/>
</g>
<g id="Group_6">
<path id="Vector_6" d="M15.544 16.6974C15.4702 16.2902 15.2117 15.9201 14.8794 15.772C14.4364 15.5499 14.104 16.2162 14.5471 16.4383C15.3225 16.8455 14.2517 18.3632 14.8794 19.3626C15.1379 19.7698 15.7656 19.3996 15.5071 18.9924C15.3594 18.7333 15.3964 18.3632 15.4702 18.067C15.5071 17.5858 15.6179 17.1786 15.544 16.6974Z" fill="#273472"/>
</g>
</g>
</g>
</svg>
