<svg width="24" height="24" viewBox="0 0 24 24" fill="none" xmlns="http://www.w3.org/2000/svg">
<path d="M4.46721 12.7736L3.58105 14.6244H20.418L19.5318 12.7736H4.46721Z" fill="#273472"/>
<path d="M0 13.5139C0 14.1432 0.48 14.6244 1.10769 14.6244H2.73231L3.91385 12.2553C3.98769 12.1443 4.09846 12.0332 4.24615 12.0332H19.7538C19.9015 12.0332 20.0123 12.1073 20.0862 12.2553L21.2677 14.6244H22.8923C23.52 14.6244 24 14.1432 24 13.5139V10.9227H0V13.5139Z" fill="#273472"/>
<path d="M22.8923 5H1.10769C0.48 5 0 5.48122 0 6.1105V10.1823H24V6.1105C24 5.48122 23.52 5 22.8923 5ZM3.32308 7.96132H2.95385C2.73231 7.96132 2.58462 7.81326 2.58462 7.59116C2.58462 7.36906 2.73231 7.22099 2.95385 7.22099H3.32308C3.54462 7.22099 3.69231 7.36906 3.69231 7.59116C3.69231 7.81326 3.50769 7.96132 3.32308 7.96132ZM5.53846 7.96132H5.16923C4.94769 7.96132 4.8 7.81326 4.8 7.59116C4.8 7.36906 4.94769 7.22099 5.16923 7.22099H5.53846C5.76 7.22099 5.90769 7.36906 5.90769 7.59116C5.90769 7.81326 5.72308 7.96132 5.53846 7.96132Z" fill="#273472"/>
<path d="M8.97229 15.7719C8.78767 15.6609 8.56613 15.7349 8.45536 15.92C8.3446 16.1051 8.41844 16.3272 8.60306 16.4382C9.37844 16.8454 8.27075 18.289 8.93537 19.3625C9.19383 19.7697 9.82152 19.3995 9.56306 18.9923C9.1569 18.289 10.3384 16.5122 8.97229 15.7719Z" fill="#273472"/>
<path d="M11.9263 15.7719C11.4832 15.5498 11.1509 16.2161 11.594 16.4382C12.3694 16.8454 11.2986 18.363 11.9263 19.3625C12.1848 19.7697 12.8125 19.3995 12.554 18.9923C12.1109 18.289 13.2925 16.5122 11.9263 15.7719Z" fill="#273472"/>
<path d="M15.545 16.6973C15.4712 16.2901 15.2127 15.9199 14.8804 15.7719C14.4373 15.5498 14.105 16.2161 14.5481 16.4382C15.3235 16.8454 14.2527 18.363 14.8804 19.3625C15.1389 19.7697 15.7666 19.3995 15.5081 18.9923C15.3604 18.7332 15.3973 18.363 15.4712 18.0669C15.5081 17.5857 15.6189 17.1785 15.545 16.6973Z" fill="#273472"/>
</svg>
