<svg width="24" height="24" viewBox="0 0 24 24" fill="none" xmlns="http://www.w3.org/2000/svg">
<g clip-path="url(#clip0_11296_77341)">
<path d="M2 11.9434H4.26367V13.0566H2V11.9434Z" fill="#273472"/>
<path d="M18.7363 11.9434H21V13.0566H18.7363V11.9434Z" fill="#273472"/>
<path d="M16.2236 6.98965L17.7979 5.41541L18.585 6.20253L17.0108 7.77678L16.2236 6.98965Z" fill="#273472"/>
<path d="M5.98929 7.77666L4.41504 6.20241L5.20216 5.41528L6.77641 6.98953L5.98929 7.77666Z" fill="#273472"/>
<path d="M10.9434 3H12.0566V5.26367H10.9434V3Z" fill="#273472"/>
<path d="M6.49023 19.7734C5.87532 19.7734 5.37695 20.2718 5.37695 20.8867V22H17.623V20.8867C17.623 20.2718 17.1247 19.7734 16.5098 19.7734H6.49023Z" fill="#273472"/>
<path d="M6.49023 12.5V18.6602H16.5098V12.5C16.5098 9.73753 14.2625 7.49023 11.5 7.49023C8.73753 7.49023 6.49023 9.73753 6.49023 12.5ZM10.9434 10.8301H12.0566V14.1699H10.9434V10.8301ZM10.9434 15.2832H12.0566V16.3965H10.9434V15.2832Z" fill="#273472"/>
</g>
<defs>
<clipPath id="clip0_11296_77341">
<rect width="19" height="19" fill="white" transform="translate(2 3)"/>
</clipPath>
</defs>
</svg>
