<svg width="24" height="24" viewBox="0 0 24 24" fill="none" xmlns="http://www.w3.org/2000/svg">
<path d="M14.4844 14.4827H18.4957V9.51696H14.4844V5.50562H9.51921V9.51696H5.50684V14.4827H9.51921V18.494H14.4844V14.4827Z" fill="#273472"/>
<path d="M7.81879 21.0859L8.14207 20.3837C7.27174 19.9835 6.47153 19.4499 5.7631 18.7987L5.23926 19.3679C6.0075 20.0738 6.87576 20.6518 7.81879 21.0859Z" fill="#273472"/>
<path d="M20.3242 15.9891L21.0223 16.3226C21.4699 15.3879 21.7684 14.3892 21.9102 13.3533L21.143 13.2487C21.0125 14.2046 20.7367 15.1265 20.3242 15.9891Z" fill="#273472"/>
<path d="M3.3087 16.9445L3.98052 16.5619C3.50411 15.7261 3.1633 14.8269 2.96737 13.889L2.20996 14.0473C2.4229 15.0636 2.79259 16.0386 3.3087 16.9445Z" fill="#273472"/>
<path d="M10.8936 21.1601L10.8008 21.9278C11.2024 21.9763 11.6103 22.0011 12.013 22.0011C12.6456 22.0011 13.2793 21.9402 13.8975 21.8211L13.7505 21.0616C12.8173 21.2416 11.8485 21.2756 10.8936 21.1601Z" fill="#273472"/>
<path d="M19.2639 18.8756L18.703 18.343C18.0425 19.0396 17.2804 19.6269 16.4385 20.0899L16.8113 20.7674C17.7233 20.2662 18.5483 19.6299 19.2639 18.8756Z" fill="#273472"/>
<path d="M12.001 2C11.9985 2 11.9959 2 11.9938 2C9.32199 2.00155 6.81155 3.04357 4.92447 4.93323C3.03687 6.82341 1.99794 9.33488 2 12.0062L2.7734 12.0057C2.77185 9.54112 3.72983 7.22351 5.471 5.47976C7.21269 3.73601 9.52926 2.77443 11.9938 2.77288C11.9959 2.77288 11.9979 2.77288 12.0005 2.77288C17.0838 2.77288 21.2225 6.90797 21.2266 11.9933L22 11.9928C21.9964 6.48105 17.5112 2 12.001 2Z" fill="#273472"/>
</svg>
