<svg width="24" height="24" viewBox="0 0 24 24" fill="none" xmlns="http://www.w3.org/2000/svg">
<g clip-path="url(#clip0_11296_77329)">
<path d="M7.67932 23.4338V19.2688H13.8875V23.4338H18.5661V1H3V23.4338H7.67932ZM13.8875 3.06088H16.5059V5.67932H13.8875V3.06088ZM13.8875 6.86739H16.5059V9.48653H13.8875V6.86739ZM13.8875 10.6746H16.5059V13.2923H13.8875V10.6746ZM13.8875 14.4804H16.5059V17.1003H13.8875V14.4804ZM9.47453 3.06088H12.0937V5.67932H9.47453V3.06088ZM9.47453 6.86739H12.0937V9.48653H9.47453V6.86739ZM9.47453 10.6746H12.0937V13.2923H9.47453V10.6746ZM9.47453 14.4804H12.0937V17.1003H9.47453V14.4804ZM5.06159 3.06088H7.68003V5.67932H5.06159V3.06088ZM5.06159 6.86739H7.68003V9.48653H5.06159V6.86739ZM5.06159 10.6746H7.68003V13.2923H5.06159V10.6746ZM5.06159 14.4804H7.68003V17.1003H5.06159V14.4804Z" fill="#273472"/>
<path d="M19 3.87075L22 1.43384L22 6.43384L19 3.87075Z" fill="#273472"/>
</g>
<defs>
<clipPath id="clip0_11296_77329">
<rect width="24" height="24" fill="white"/>
</clipPath>
</defs>
</svg>
