<svg width="24" height="24" viewBox="0 0 24 24" fill="none" xmlns="http://www.w3.org/2000/svg">
<g clip-path="url(#clip0_11296_77333)">
<path d="M9.46973 6.01377H10.7586C10.7586 5.74807 10.8086 5.64803 10.8994 5.46625C11.0163 5.23261 11.1762 4.91252 11.1762 4.34268C11.1762 3.77284 11.0163 3.45259 10.8994 3.21894C10.8086 3.03716 10.7586 2.93713 10.7586 2.67126C10.7586 2.40555 10.8086 2.30552 10.8994 2.12374C11.0163 1.89009 11.1762 1.56984 11.1762 1H9.88716C9.88716 1.26587 9.83714 1.36591 9.74634 1.54769C9.62952 1.78133 9.46973 2.10141 9.46973 2.67126C9.46973 3.24127 9.62968 3.56135 9.74634 3.79499C9.83714 3.97677 9.88716 4.07681 9.88716 4.34268C9.88716 4.60838 9.83714 4.70842 9.74634 4.89003C9.62968 5.12384 9.46973 5.44393 9.46973 6.01377Z" fill="#273472"/>
<path d="M12.4795 6.01377H13.7686C13.7686 5.74807 13.8186 5.64803 13.9094 5.46625C14.0262 5.23261 14.1862 4.91252 14.1862 4.34268C14.1862 3.77284 14.0262 3.45259 13.9094 3.21894C13.8186 3.03716 13.7686 2.93713 13.7686 2.67126C13.7686 2.40555 13.8186 2.30552 13.9094 2.12374C14.0262 1.89009 14.1862 1.56984 14.1862 1H12.8971C12.8971 1.26587 12.8471 1.36591 12.7563 1.54769C12.6395 1.78133 12.4795 2.10141 12.4795 2.67126C12.4795 3.24127 12.6395 3.56135 12.7563 3.79499C12.8471 3.97677 12.8971 4.07681 12.8971 4.34268C12.8971 4.60838 12.8471 4.70842 12.7563 4.89003C12.6395 5.12384 12.4795 5.44393 12.4795 6.01377Z" fill="#273472"/>
<path d="M15.4893 6.01377H16.7783C16.7783 5.74807 16.8283 5.64803 16.9191 5.46625C17.036 5.23261 17.1959 4.91252 17.1959 4.34268C17.1959 3.77284 17.036 3.45259 16.9191 3.21894C16.8283 3.03716 16.7783 2.93713 16.7783 2.67126C16.7783 2.40555 16.8283 2.30552 16.9191 2.12374C17.036 1.89009 17.1959 1.56984 17.1959 1H15.9069C15.9069 1.26587 15.8568 1.36591 15.766 1.54769C15.6492 1.78133 15.4893 2.10141 15.4893 2.67126C15.4893 3.24127 15.6492 3.56135 15.766 3.79499C15.8568 3.97677 15.9069 4.07681 15.9069 4.34268C15.9069 4.60838 15.8568 4.70842 15.766 4.89003C15.6492 5.12384 15.4893 5.44393 15.4893 6.01377Z" fill="#273472"/>
<path d="M9.6664 7.30371C9.01079 7.30371 8.47754 7.83696 8.47754 8.49257V21.8109C8.47754 22.4665 9.01079 22.9998 9.6664 22.9998C10.3218 22.9998 10.8553 22.4665 10.8553 21.8109V8.49257C10.8553 7.83696 10.322 7.30371 9.6664 7.30371Z" fill="#273472"/>
<path d="M13.3324 7.30371C12.6768 7.30371 12.1436 7.83696 12.1436 8.49257V21.8109C12.1436 22.4665 12.677 22.9998 13.3324 22.9998C13.988 22.9998 14.5213 22.4665 14.5213 21.8109V8.49257C14.5213 7.83696 13.988 7.30371 13.3324 7.30371Z" fill="#273472"/>
<path d="M16.9994 7.30371C16.344 7.30371 15.8105 7.83696 15.8105 8.49257V21.8109C15.8105 22.4665 16.344 22.9998 16.9994 22.9998C17.655 22.9998 18.1884 22.4665 18.1884 21.8109V8.49257C18.1884 7.83696 17.655 7.30371 16.9994 7.30371Z" fill="#273472"/>
<path d="M4.81013 13.8791V21.8109C4.81013 22.4665 5.34355 22.9998 5.99917 22.9998C6.65461 22.9998 7.18803 22.4665 7.18803 21.8109V8.49257C7.18803 7.83696 6.65461 7.30371 5.99917 7.30371C5.34355 7.30371 4.81013 7.83696 4.81013 8.49257V10.0099H2.33304V11.3H1.04297V12.5891H2.33304V13.8791H4.81013Z" fill="#273472"/>
<path d="M21.8553 10.0099V8.49257C21.8553 7.83696 21.3218 7.30371 20.6664 7.30371C20.0108 7.30371 19.4775 7.83696 19.4775 8.49257V21.8109C19.4775 22.4665 20.0108 22.9998 20.6664 22.9998C21.3218 22.9998 21.8553 22.4665 21.8553 21.8109V11.299H23.0423V10.0099H21.8553Z" fill="#273472"/>
</g>
<defs>
<clipPath id="clip0_11296_77333">
<rect width="22" height="22" fill="white" transform="translate(1 1)"/>
</clipPath>
</defs>
</svg>
