<svg width="24" height="24" viewBox="0 0 24 24" fill="none" xmlns="http://www.w3.org/2000/svg">
<path fill-rule="evenodd" clip-rule="evenodd" d="M21.8592 17.0479C21.5103 16.4392 20.7378 16.2304 20.1328 16.5821L15.5035 19.2748C15.4803 19.4093 15.439 19.551 15.3667 19.6964C15.2215 19.9875 14.7695 20.6563 13.7082 20.5875C12.8194 20.5298 8.88858 19.3316 8.71494 19.2784C8.71055 19.2771 8.29934 19.1447 7.89147 19.2649C7.76589 19.3026 7.63592 19.246 7.57323 19.1369C7.56258 19.118 7.55359 19.0973 7.54732 19.0757C7.50428 18.9277 7.58828 18.7723 7.73538 18.729C8.31438 18.5578 8.86726 18.7408 8.88252 18.746C10.0023 19.0883 13.0588 19.9852 13.7444 20.0298C14.4465 20.0755 14.7511 19.6851 14.8702 19.4468C14.9567 19.2255 14.9768 19.051 14.9413 18.8378C14.8305 18.1671 14.1293 18.0303 14.1293 18.0303C14.1293 18.0303 8.15976 15.8733 6.732 15.5557C5.30424 15.2385 4.58774 15.7273 4.58774 15.7273L1.97168 17.249L4.69953 22.009L6.32809 21.0619C6.32809 21.0619 10.0253 21.9235 12.1344 22.5607C14.2438 23.1985 14.8299 22.6068 14.8299 22.6068L21.3968 18.7873C22.0011 18.4355 22.2084 17.6571 21.8592 17.0479ZM15.4252 18.6513L19.8978 16.05C19.5141 15.8081 19.0141 15.782 18.5943 16.026L15.1233 18.0448C15.2653 18.2227 15.3673 18.4301 15.4252 18.6513ZM14.351 17.5144C14.4862 17.5569 14.6105 17.6173 14.7252 17.6897L18.4717 15.5109C18.0881 15.2688 17.5878 15.2429 17.168 15.4869L13.9176 17.3774L14.351 17.5144ZM17.0452 14.9722C16.6615 14.7301 16.1615 14.704 15.742 14.948L12.3931 16.8959L13.2648 17.1711L17.0452 14.9722Z" fill="#273472"/>
<path d="M9.78132 5.17759C9.74379 5.14005 9.70248 5.11095 9.65901 5.08538V2.9325C9.65901 1.94432 8.86413 1.14355 7.88322 1.14355C6.90258 1.14355 6.10743 1.94432 6.10743 2.9325V5.08565C6.06396 5.11095 6.02265 5.14032 5.98539 5.17759L4.03572 7.1417C3.8019 7.37752 3.8019 7.75887 4.03572 7.99415C4.26927 8.2297 4.64835 8.2297 4.88163 7.99415L6.08853 6.77831L4.61946 10.8692H6.30075V13.0302C6.30075 13.3632 6.56886 13.633 6.89934 13.633C7.22982 13.633 7.49793 13.3629 7.49793 13.0302V10.8692H8.26905V13.0302C8.26905 13.3632 8.53662 13.633 8.8671 13.633C9.19731 13.633 9.46542 13.3629 9.46542 13.0302V10.8692H11.147L9.67737 6.77776L10.8845 7.99415C11.1181 8.2297 11.4969 8.22915 11.7307 7.99415C11.9643 7.75887 11.9643 7.37725 11.7307 7.1417L9.78132 5.17759Z" fill="#273472"/>
<path d="M18.6961 7.24218L16.7469 5.27834C16.6292 5.16002 16.4748 5.10127 16.322 5.10181H13.3749C13.2213 5.10181 13.0674 5.16056 12.9513 5.27834L11.0013 7.24245C10.7678 7.47773 10.7678 7.85935 11.0013 8.0949C11.2349 8.33045 11.614 8.33045 11.8475 8.0949L13.073 6.86002V10.897H13.2666V13.1307C13.2666 13.4634 13.535 13.7332 13.8655 13.7332C14.196 13.7332 14.4635 13.4634 14.4635 13.1307V10.897H15.2347V13.1307C15.2347 13.4634 15.502 13.7332 15.8327 13.7332C16.1629 13.7332 16.4313 13.4634 16.4313 13.1307V10.897H16.6249V6.85947L17.8507 8.09408C18.0842 8.33018 18.4631 8.32963 18.6963 8.09408C18.9299 7.8588 18.9299 7.47746 18.6961 7.24218Z" fill="#273472"/>
<path d="M14.849 4.82203C15.8298 4.82203 16.6248 4.02109 16.6248 3.03308C16.6248 2.04508 15.8298 1.24414 14.849 1.24414C13.8683 1.24414 13.0732 2.04508 13.0732 3.03308C13.0732 4.02109 13.8683 4.82203 14.849 4.82203Z" fill="#273472"/>
</svg>
