<svg width="24" height="24" viewBox="0 0 24 24" fill="none" xmlns="http://www.w3.org/2000/svg">
<path d="M20.6729 14.3806L20.4481 14.0814C20.236 13.7985 19.9357 13.5375 19.7782 13.5225C19.488 13.4982 19.4619 13.4101 19.5 13.1784C19.5921 12.6126 18.5177 12.9542 18.5177 12.9542C18.0808 13.0666 17.9062 12.9149 18.0389 12.3566L18.1703 11.8907C18.3119 11.393 18.2326 11.2562 17.7811 11.2263C17.3944 11.1982 17.2178 11.1638 17.3867 10.6992C17.4807 10.4382 17.6376 10.3745 17.1683 9.7075L16.8559 9.28909C17.6655 7.88773 17.6198 6.09107 16.5828 4.71033C15.1814 2.8406 12.5035 2.44155 10.6023 3.82105C10.328 4.01964 10.0893 4.24695 9.87907 4.4905C9.75016 4.45241 9.61745 4.42493 9.47838 4.42493C8.14169 4.42493 7.42477 6.33775 7.28698 10.272C7.28571 10.3051 7.28952 10.3389 7.30031 10.3707L7.30412 10.3832C7.30095 10.3844 7.29714 10.3857 7.2946 10.3869L5.38069 11.2444C4.98445 11.423 4.67583 11.7458 4.52089 12.1461L2.07866 18.4229C1.84434 19.0268 2.15105 19.7037 2.76574 19.9354L6.45385 21.3237C6.74849 21.4348 7.07552 21.4248 7.36508 21.2993C7.65338 21.1725 7.8788 20.9383 7.9912 20.648L10.4277 14.3849C10.5865 13.979 10.5725 13.5238 10.3877 13.126L9.55649 11.3343C9.85938 11.0976 10.1788 10.8147 10.4842 10.4912C11.5237 11.3049 12.8833 11.5972 14.1546 11.2937L17.9513 16.3552C18.1608 16.6381 18.6212 16.931 18.9698 17.0066L20.1789 17.2676C20.5275 17.3432 20.8412 17.119 20.8748 16.7686L20.9961 15.5309C21.0298 15.1805 20.885 14.6635 20.6729 14.3806ZM11.1719 7.79031C11.104 7.73161 11.0411 7.64169 10.9859 7.49868C10.9859 7.49868 10.8062 6.99971 10.9637 6.41081C11.1523 6.87231 11.2145 7.33194 11.1719 7.79031ZM8.75003 12.8256C8.54683 13.3502 7.94992 13.6124 7.41715 13.412C6.88438 13.2115 6.61832 12.6251 6.82152 12.1018C6.95995 11.7483 7.27618 11.5185 7.62861 11.4642L7.79244 12.0056C7.81975 12.0949 7.88515 12.168 7.97215 12.2042C8.01215 12.2198 8.05406 12.2286 8.09597 12.2286C8.14677 12.2286 8.1963 12.2173 8.24202 12.193C8.26806 12.1799 8.43189 12.0943 8.66875 11.9488C8.82433 12.2061 8.86687 12.5252 8.75003 12.8256ZM9.21676 10.7922C8.88783 10.4288 8.41411 10.2252 7.92389 10.2421C8.0947 5.5971 9.05102 5.05942 9.46949 5.05067C8.6135 6.46202 8.64589 8.29615 9.69873 9.70126C9.79588 9.83053 9.90574 9.94668 10.0137 10.061C9.75334 10.3382 9.48092 10.5824 9.21676 10.7922ZM14.1393 5.89623L11.826 7.57487C11.8323 6.95662 11.6666 6.33837 11.3243 5.717C11.4342 5.58399 11.5675 5.45347 11.7358 5.33169C12.9887 4.42306 14.0631 5.26675 14.0631 5.26675C14.4035 5.51842 14.4257 5.68765 14.1393 5.89623Z" fill="#273472"/>
</svg>
