<svg width="24" height="24" viewBox="0 0 24 24" fill="none" xmlns="http://www.w3.org/2000/svg">
<g clip-path="url(#clip0_11296_77331)">
<path d="M22.5 11.9554H1.5C0.672984 11.9554 0 12.6284 0 13.4554C0 14.2825 0.672984 14.9554 1.5 14.9554H22.5C23.327 14.9554 24 14.2825 24 13.4554C24 12.6284 23.327 11.9554 22.5 11.9554Z" fill="#273472"/>
<path d="M22.6375 13.9745C22.3665 13.8985 22.0945 14.0525 22.0195 14.3185L21.9805 14.4555H2.01949L1.9795 14.3185C1.9045 14.0525 1.63052 13.9005 1.3615 13.9745C1.09549 14.0505 0.942489 14.3275 1.01852 14.5925L2.3965 19.4165C2.82349 20.9114 4.20752 21.9554 5.76152 21.9554H18.2365C19.7915 21.9554 21.1745 20.9114 21.6015 19.4165L22.9795 14.5925C23.0565 14.3274 22.9025 14.0505 22.6375 13.9745ZM5.7625 19.9554C5.0965 19.9554 4.5025 19.5084 4.32049 18.8674L3.6715 16.5934C3.59552 16.3274 3.7495 16.0514 4.01449 15.9754C4.28247 15.8994 4.55749 16.0544 4.63249 16.3194L5.28147 18.5934C5.34349 18.8064 5.54046 18.9564 5.76246 18.9564C6.03846 18.9564 6.26247 19.1804 6.26247 19.4564C6.26252 19.7324 6.0385 19.9554 5.7625 19.9554Z" fill="#273472"/>
<path d="M6.72263 21.0075C6.47564 20.8865 6.17663 20.9835 6.05161 21.2315L5.05163 23.2315C4.92863 23.4785 5.02861 23.7785 5.27564 23.9025C5.34863 23.9385 5.42466 23.9555 5.49966 23.9555C5.68266 23.9555 5.85867 23.8545 5.94666 23.6785L6.94664 21.6785C7.06964 21.4314 6.96961 21.1314 6.72263 21.0075Z" fill="#273472"/>
<path d="M18.9476 23.2326L17.9476 21.2326C17.8236 20.9846 17.5236 20.8856 17.2766 21.0086C17.0296 21.1326 16.9296 21.4326 17.0526 21.6796L18.0526 23.6796C18.1406 23.8546 18.3166 23.9556 18.4996 23.9556C18.5746 23.9556 18.6506 23.9386 18.7236 23.9036C18.9706 23.7796 19.0706 23.4796 18.9476 23.2326Z" fill="#273472"/>
<path d="M20.0852 0.0445557C19.5752 0.0445557 19.0952 0.24354 18.7342 0.604571L17.1472 2.19157C16.9522 2.38657 16.9522 2.70359 17.1472 2.89859C17.3422 3.09359 17.6592 3.09359 17.8542 2.89859L19.4412 1.31257C19.6122 1.14059 19.8412 1.04557 20.0902 1.04557C20.5922 1.04557 21.0002 1.45357 21.0002 1.95556V12.4556C21.0002 12.7316 21.2242 12.9556 21.5002 12.9556C21.7762 12.9556 22.0002 12.7316 22.0012 12.4546V1.95457C22.0012 0.901571 21.1452 0.0445557 20.0852 0.0445557Z" fill="#273472"/>
<path d="M18.3535 2.69161L17.3535 1.69162C17.2395 1.57762 17.0805 1.52461 16.9185 1.55161L14.4186 1.96162C14.2346 1.99162 14.0836 2.12161 14.0246 2.29762C13.9656 2.47364 14.0106 2.66962 14.1406 2.80261L17.1406 5.89261C17.2356 5.99161 17.3666 6.04462 17.4986 6.04462C17.5456 6.04462 17.5936 6.03764 17.6406 6.02362C17.8185 5.97164 17.9535 5.82464 17.9895 5.64262L18.4896 3.14264C18.5225 2.97961 18.4715 2.81057 18.3535 2.69161Z" fill="#273472"/>
<path d="M11.8532 6.10267C11.6582 5.90767 11.3412 5.90767 11.1462 6.10267L10.1462 7.10266C9.95125 7.29766 9.95125 7.61468 10.1462 7.80968C10.2443 7.90666 10.3722 7.95569 10.5002 7.95569C10.6283 7.95569 10.7562 7.90671 10.8533 7.80968L11.8532 6.80969C12.0482 6.61464 12.0482 6.29767 11.8532 6.10267Z" fill="#273472"/>
<path d="M13.8533 8.10255C13.6583 7.90755 13.3412 7.90755 13.1462 8.10255L12.1463 9.10254C11.9512 9.29754 11.9512 9.61455 12.1463 9.80955C12.2443 9.90654 12.3722 9.95557 12.5003 9.95557C12.6283 9.95557 12.7562 9.90659 12.8533 9.80955L13.8533 8.80957C14.0483 8.61457 14.0483 8.29755 13.8533 8.10255Z" fill="#273472"/>
<path d="M14.8533 5.10255C14.6583 4.90755 14.3412 4.90755 14.1462 5.10255L13.1463 6.10254C12.9512 6.29754 12.9512 6.61455 13.1463 6.80955C13.2443 6.90654 13.3722 6.95557 13.5003 6.95557C13.6283 6.95557 13.7562 6.90658 13.8533 6.80955L14.8533 5.80957C15.0483 5.61457 15.0483 5.29755 14.8533 5.10255Z" fill="#273472"/>
</g>
<defs>
<clipPath id="clip0_11296_77331">
<rect width="24" height="24" fill="white"/>
</clipPath>
</defs>
</svg>
