<svg width="24" height="24" viewBox="0 0 24 24" fill="none" xmlns="http://www.w3.org/2000/svg">
<path d="M20.1984 13.1738H2.74023V15.1953C2.74023 16.8845 3.63845 18.4712 5.07101 19.3102L4.10829 23.163C4.00169 23.5867 4.32297 24 4.76172 24H14.1953C14.6341 24 14.9553 23.5867 14.8487 23.163L14.0242 19.8636C17.3337 19.3337 19.8886 16.5512 20.1984 13.1738Z" fill="#273472"/>
<path d="M20.2598 9.13086H12.1738V11.8262H20.2598C21.0041 11.8262 21.6074 11.2227 21.6074 10.4785C21.6074 9.73421 21.0041 9.13086 20.2598 9.13086Z" fill="#273472"/>
<path d="M10.8262 5.04297H2.74023V11.8262H10.8262V5.04297Z" fill="#273472"/>
<path d="M10.8262 1H2.74023C1.99592 1 1.39258 1.60335 1.39258 2.34766V3.02148C1.39258 3.39362 1.69427 3.69531 2.06641 3.69531H11.5C11.8721 3.69531 12.1738 3.39362 12.1738 3.02148V2.34766C12.1738 1.60335 11.5705 1 10.8262 1Z" fill="#273472"/>
</svg>
