<svg width="24" height="24" viewBox="0 0 24 24" fill="none" xmlns="http://www.w3.org/2000/svg">
<path d="M20.4581 13.1738L3 12V15.1953C3 16.8845 3.89821 18.4712 5.33077 19.3102L4.36805 23.163C4.26145 23.5867 4.58273 24 5.02148 24H14.4551C14.8938 24 15.2151 23.5867 15.1085 23.163L14.284 19.8636C17.5935 19.3337 20.1483 16.5512 20.4581 13.1738Z" fill="#273472"/>
<path d="M7.52837 10.0068C7.52837 10.0068 6.86347 8.97443 7.03836 8.42428C7.21325 7.87413 7.78324 7.86609 7.97357 8.41109C8.1639 8.9561 7.52837 10.0068 7.52837 10.0068Z" fill="#273472"/>
<path d="M9.50007 8.00794C9.50007 8.00794 8.8669 6.95581 9.05845 6.41123C9.25001 5.86666 9.81998 5.87598 9.99363 6.42652C10.1673 6.97707 9.50007 8.00794 9.50007 8.00794Z" fill="#273472"/>
<path d="M11.4812 10.0607C11.4812 10.0607 11.1341 8.88283 11.457 8.40425C11.7798 7.92566 12.3289 8.07855 12.358 8.6551C12.387 9.23165 11.4812 10.0607 11.4812 10.0607Z" fill="#273472"/>
</svg>
