<svg width="24" height="24" viewBox="0 0 24 24" fill="none" xmlns="http://www.w3.org/2000/svg">
<path d="M21.3482 10.8493V10.5968V10.5715C21.3482 9.46017 18.974 8.5509 16.0189 8.5509C13.089 8.5509 10.7148 9.46017 10.7148 10.5715V10.5968V12.7436C10.9674 12.9204 11.1947 13.1477 11.3463 13.4508C11.3968 13.5771 11.4473 13.7034 11.4726 13.8297L11.6746 13.8802C12.205 14.0318 12.7354 14.2843 13.2911 14.6379C13.8973 15.0168 14.4024 15.4714 14.8065 15.9513C15.0844 16.3049 15.2107 16.7343 15.1601 17.1637L15.4127 17.8204L15.5137 18.0982C15.6906 18.1235 15.8421 18.1235 16.0189 18.1235C17.6606 18.1235 19.1256 17.391 20.1106 16.2039H21.2977C22.7879 16.2039 24.0002 14.9915 24.0002 13.5014C24.0002 12.0617 22.8131 10.8746 21.3482 10.8493ZM16.0189 11.405C13.8973 11.405 12.5081 10.8998 12.0282 10.5715C12.5334 10.2431 13.8973 9.738 16.0189 9.738C18.1405 9.738 19.5297 10.2431 20.0096 10.5715C19.5297 10.8998 18.1405 11.405 16.0189 11.405ZM21.2977 15.0421H20.8431C21.1461 14.3601 21.3482 13.6024 21.3482 12.8194V12.0364C22.1564 12.0617 22.8384 12.7184 22.8384 13.5519C22.8131 14.3854 22.1312 15.0421 21.2977 15.0421Z" fill="#273472"/>
<path d="M13.594 7.59097C13.7961 7.5152 13.8971 7.28788 13.8213 7.11108V7.08582C13.695 6.73222 13.6193 6.40388 13.6193 6.10079C13.6445 5.7977 13.7456 5.49461 13.8971 5.14101C13.9729 4.9642 14.0486 4.76214 14.1244 4.56009C14.2002 4.33277 14.3012 4.05494 14.3012 3.80236C14.3265 3.52453 14.276 3.27196 14.1749 3.01938C14.1244 2.8931 14.0739 2.76681 13.9981 2.66578C13.9224 2.53949 13.8718 2.46372 13.7456 2.33743C13.6698 2.2364 13.5182 2.21115 13.392 2.2364C13.1899 2.28692 13.0636 2.48898 13.1141 2.66578L13.1394 2.81732C13.1394 2.86784 13.1899 2.94361 13.2152 3.01938C13.2404 3.09516 13.2404 3.17093 13.2657 3.2467C13.2909 3.39825 13.2657 3.54979 13.2404 3.70133C13.2152 3.85288 13.1646 3.97917 13.0889 4.13071L12.8363 4.68637C12.7605 4.88843 12.6595 5.11575 12.609 5.34307C12.5585 5.59564 12.5332 5.84821 12.5332 6.10079C12.5585 6.63119 12.811 7.11108 13.1141 7.43943C13.2657 7.59097 13.4425 7.64149 13.594 7.59097Z" fill="#273472"/>
<path d="M16.1701 7.36368C16.3721 7.28791 16.4732 7.08585 16.3974 6.88379V6.85853C16.2711 6.50493 16.1953 6.17658 16.1953 5.87349C16.2206 5.5704 16.3216 5.26731 16.4732 4.91371C16.5489 4.73691 16.6247 4.53485 16.7005 4.33279C16.7762 4.10547 16.8773 3.82764 16.8773 3.57507C16.9025 3.29724 16.852 3.04466 16.751 2.79209C16.7005 2.6658 16.65 2.53952 16.5742 2.43849C16.4984 2.3122 16.4479 2.23643 16.3216 2.11014C16.2458 2.00911 16.0943 1.98385 15.968 2.00911C15.7659 2.05962 15.6397 2.26168 15.6902 2.43849L15.7154 2.59003C15.7154 2.64054 15.766 2.71632 15.7912 2.79209C15.8165 2.86786 15.8165 2.94363 15.8417 3.01941C15.867 3.17095 15.8417 3.32249 15.8165 3.47404C15.7912 3.62558 15.7407 3.75187 15.6649 3.90341L15.4123 4.45908C15.3366 4.66114 15.2355 4.88845 15.185 5.11577C15.1345 5.36834 15.084 5.62092 15.1093 5.87349C15.1345 6.4039 15.3871 6.88379 15.6902 7.21213C15.8417 7.36368 16.0185 7.41419 16.1701 7.36368Z" fill="#273472"/>
<path d="M18.7211 7.59097C18.9232 7.5152 19.0242 7.28788 18.9484 7.11108V7.08582C18.8221 6.73222 18.7464 6.40388 18.7464 6.10079C18.7716 5.7977 18.8726 5.49461 19.0242 5.14101C19.1 4.9642 19.1757 4.76214 19.2515 4.56009C19.3273 4.33277 19.4283 4.05494 19.4283 3.80236C19.4536 3.52453 19.4031 3.27196 19.302 3.01938C19.2515 2.8931 19.201 2.76681 19.1505 2.66578C19.0747 2.53949 19.0242 2.46372 18.8979 2.33743C18.8221 2.2364 18.6706 2.21115 18.5443 2.2364C18.3422 2.28692 18.216 2.48898 18.2665 2.66578L18.2917 2.81732C18.2917 2.86784 18.3422 2.94361 18.3675 3.01938C18.3928 3.09516 18.3928 3.17093 18.418 3.2467C18.4433 3.39825 18.418 3.54979 18.3928 3.70133C18.3675 3.85288 18.317 3.97917 18.2412 4.13071L17.9886 4.68637C17.9129 4.88843 17.8118 5.11575 17.7613 5.34307C17.7108 5.59564 17.6855 5.84821 17.6855 6.10079C17.7108 6.63119 17.9634 7.11108 18.2665 7.43943C18.418 7.59097 18.5696 7.64149 18.7211 7.59097Z" fill="#273472"/>
<path d="M0.990507 18.1992L0.0812412 20.4976C-0.322877 21.5332 0.86422 22.493 1.79874 21.8615L3.81934 20.4724L1.11679 18.3255C1.06628 18.275 1.01576 18.2497 0.990507 18.1992Z" fill="#273472"/>
<path d="M14.6551 18.1992C14.6299 18.2497 14.5794 18.275 14.5288 18.3002L11.8516 20.4724L13.8469 21.8615C14.7814 22.493 15.9685 21.5584 15.5644 20.4976L14.6551 18.1992Z" fill="#273472"/>
<path d="M4.22347 14.9157C4.19822 14.8399 4.17296 14.7641 4.17296 14.6884C3.7941 14.8146 3.33946 15.0167 2.83432 15.3198C2.20288 15.7239 1.79876 16.1533 1.52093 16.4816C1.21784 16.8352 1.29361 17.3909 1.64722 17.6687L4.34976 19.8661C4.62759 20.0934 5.03171 20.1187 5.3348 19.9166L5.86521 19.563C5.73892 19.4115 5.63789 19.2347 5.58737 19.0326L4.22347 14.9157Z" fill="#273472"/>
<path d="M14.1498 16.4816C13.872 16.1533 13.4678 15.7239 12.8364 15.3198C12.3313 14.9914 11.8766 14.7894 11.4978 14.6884C11.4725 14.7641 11.4725 14.8399 11.4473 14.9157L10.0581 19.0579C9.98233 19.2599 9.8813 19.4367 9.78027 19.5883L10.3107 19.9419C10.6138 20.144 11.0179 20.1187 11.2957 19.8914L14.0235 17.6687C14.3771 17.3909 14.4529 16.8605 14.1498 16.4816Z" fill="#273472"/>
<path d="M9.98174 13.2992C9.47659 13.1224 8.74413 12.9708 7.8096 12.9708C6.87508 12.9708 6.16787 13.1224 5.63747 13.2992C5.08181 13.476 4.77872 14.0822 4.98078 14.6378L6.36993 18.78C6.52148 19.2094 6.9256 19.5125 7.38023 19.5125H8.26424C8.71887 19.5125 9.12299 19.2094 9.27453 18.78L10.6637 14.6378C10.8405 14.0822 10.5374 13.476 9.98174 13.2992Z" fill="#273472"/>
</svg>
