<svg width="24" height="24" viewBox="0 0 24 24" fill="none" xmlns="http://www.w3.org/2000/svg">
<g clip-path="url(#clip0_11296_77340)">
<path d="M16.2734 16.1484L21.9964 8.54189L7.06041 2.57227L3.65077 11.1032L9.50269 13.4422L8.78325 15.2365C8.72531 15.2323 8.66737 15.229 8.60902 15.229C7.61212 15.229 6.76523 15.8803 6.46997 16.7795H4.23558V13.673H0V21.4276H4.23558V18.1809H6.46992C6.76514 19.0802 7.61213 19.7314 8.60897 19.7314C9.85017 19.7314 10.8601 18.7219 10.8601 17.4802C10.8601 16.7995 10.556 16.189 10.0767 15.7756L10.8041 13.9621L16.2734 16.1484ZM15.0944 11.7993L16.3958 12.3193L15.8754 13.6207L14.5744 13.1008L15.0944 11.7993Z" fill="#273472"/>
<path d="M22.4115 10.3218L18.5557 15.4464L21.7033 16.7044L24.0002 10.9566L22.4115 10.3218Z" fill="#273472"/>
</g>
<defs>
<clipPath id="clip0_11296_77340">
<rect width="24" height="24" fill="white"/>
</clipPath>
</defs>
</svg>
