<svg width="24" height="24" viewBox="0 0 24 24" fill="none" xmlns="http://www.w3.org/2000/svg">
<g clip-path="url(#clip0_11296_77332)">
<path d="M8.89479 4.67529C9.17575 4.4693 9.16765 4.48499 11.1431 3.36769C11.1474 3.36553 11.1513 3.36294 11.1556 3.36079C10.1196 1.90315 8.42831 1.00684 6.59473 1.00684C3.51002 1.00684 1 3.51686 1 6.60157V22.7787C1 22.8977 1.09657 22.9943 1.21556 22.9943H3.3712C3.49019 22.9943 3.58676 22.8977 3.58676 22.7787V6.60157C3.58676 4.93612 4.94739 3.58239 6.61542 3.5936C7.50958 3.59963 8.33432 4.01093 8.89479 4.67529Z" fill="#273472"/>
<path d="M13.1675 16.1645C13.5198 16.1057 13.7577 15.7725 13.699 15.4202L13.5991 14.8212C13.5404 14.4689 13.2072 14.231 12.8549 14.2897C12.5026 14.3484 12.2646 14.6816 12.3234 15.0339L12.4232 15.6329C12.482 15.9852 12.8151 16.2232 13.1675 16.1645Z" fill="#273472"/>
<path d="M16.447 14.3678C16.7585 14.193 16.8693 13.7988 16.6944 13.4873L16.4148 12.9891C16.24 12.6776 15.8458 12.5668 15.5344 12.7417C15.223 12.9165 15.1122 13.3107 15.287 13.6222L15.5666 14.1203C15.7415 14.4321 16.136 14.5424 16.447 14.3678Z" fill="#273472"/>
<path d="M19.6898 12.5041C19.9234 12.234 19.8939 11.8256 19.6238 11.5919L19.1645 11.1946C18.8944 10.961 18.4861 10.9905 18.2524 11.2605C18.0187 11.5306 18.0482 11.9391 18.3183 12.1727L18.7776 12.5701C19.0478 12.8037 19.4561 12.7742 19.6898 12.5041Z" fill="#273472"/>
<path d="M13.8756 18.6592C13.8241 18.3058 13.4959 18.0611 13.1424 18.1125C12.7889 18.1641 12.5442 18.4923 12.5957 18.8457L12.6863 19.4669C12.7379 19.8207 13.0665 20.0651 13.4195 20.0136C13.7729 19.9621 14.0177 19.6338 13.9661 19.2804L13.8756 18.6592Z" fill="#273472"/>
<path d="M16.7132 16.8949C16.5794 16.5637 16.2024 16.4038 15.8713 16.5376C15.5402 16.6715 15.3803 17.0484 15.5141 17.3795L15.7355 17.9272C15.8694 18.2585 16.2464 18.4183 16.5774 18.2845C16.9085 18.1507 17.0684 17.7737 16.9346 17.4426L16.7132 16.8949Z" fill="#273472"/>
<path d="M19.5116 15.1363C19.2987 14.8496 18.8936 14.7897 18.6069 15.0027C18.3201 15.2156 18.2603 15.6206 18.4732 15.9074L18.8254 16.3816C19.0384 16.6684 19.4435 16.7282 19.7301 16.5153C20.0169 16.3024 20.0767 15.8973 19.8638 15.6106L19.5116 15.1363Z" fill="#273472"/>
<path d="M22.7664 13.8098L22.2834 13.409C22.0085 13.1808 21.6008 13.2188 21.3727 13.4936C21.1446 13.7684 21.1825 14.1762 21.4573 14.4043L21.9404 14.8051C22.2152 15.0332 22.623 14.9953 22.851 14.7205C23.0791 14.4456 23.0412 14.0379 22.7664 13.8098Z" fill="#273472"/>
<path d="M9.00968 10.1016L16.2099 6.02878L16.0043 5.66491C15.1651 4.18007 13.2791 3.6453 11.7801 4.49268C9.83637 5.59179 9.80546 5.59261 9.53523 5.81408C8.41395 6.72996 8.03417 8.37825 8.80361 9.73733L9.00968 10.1016Z" fill="#273472"/>
<path d="M18.7901 7.46966L18.5047 6.96524C18.328 6.65134 17.9279 6.54291 17.6174 6.71864C17.2436 6.92963 9.05106 11.5635 8.87718 11.6619C8.56755 11.8365 8.45317 12.2342 8.63101 12.5492L8.91642 13.054C9.15492 13.4756 9.68908 13.6238 10.1111 13.3856L18.4586 8.66431C18.8797 8.42568 19.0289 7.89182 18.7901 7.46966Z" fill="#273472"/>
</g>
<defs>
<clipPath id="clip0_11296_77332">
<rect width="22" height="22" fill="white" transform="translate(1 1)"/>
</clipPath>
</defs>
</svg>
