<svg width="103" height="25" viewBox="0 0 103 25" fill="none" xmlns="http://www.w3.org/2000/svg">
<path d="M16.3683 7.29366C16.3683 6.45882 16.206 5.70728 15.9142 5.05444L15.8732 5.06531C15.8103 5.08251 14.2968 5.48816 11.7256 5.48816C9.15542 5.48816 7.641 5.08342 7.57809 5.06531L7.53706 5.05444C7.2453 5.70728 7.08301 6.45882 7.08301 7.29366C7.08301 10.355 9.0688 13.7786 11.7256 13.7786C14.3825 13.7786 16.3683 10.355 16.3683 7.29366ZM11.7256 12.8251C10.1547 12.8251 8.82263 11.0305 8.29199 9.06022C8.40414 7.37515 9.24842 6.84092 9.50918 6.71506C11.8624 6.98218 12.9492 6.41626 13.4115 6.00971C14.0224 6.31394 15.3553 7.15784 15.2487 8.70346C14.7919 10.8078 13.3914 12.8251 11.7256 12.8251Z" fill="#273472"/>
<path d="M11.7254 4.91523C14.2482 4.91523 15.7207 4.51411 15.7207 4.51411C16.2659 3.05903 15.2776 1.70355 15.2776 1.70355C13.8252 1.05071 12.8031 1 11.7254 1C10.6477 1 9.62565 1.05161 8.17323 1.70355C8.17323 1.70355 7.1858 3.05812 7.73012 4.51411C7.73012 4.5132 9.20351 4.91523 11.7254 4.91523Z" fill="#273472"/>
<path d="M38.272 21.144C37.1627 21.144 36.2133 20.9093 35.424 20.44C34.6347 19.9707 34.0267 19.304 33.6 18.44C33.184 17.576 32.976 16.5467 32.976 15.352C32.976 14.456 33.0933 13.656 33.328 12.952C33.5733 12.2373 33.92 11.6347 34.368 11.144C34.8267 10.6427 35.3867 10.2587 36.048 9.992C36.7093 9.71467 37.4507 9.576 38.272 9.576C38.9333 9.576 39.5627 9.672 40.16 9.864C40.7573 10.0453 41.2747 10.3173 41.712 10.68C41.8507 10.7867 41.9413 10.9093 41.984 11.048C42.0373 11.176 42.0427 11.304 42 11.432C41.968 11.5493 41.904 11.6507 41.808 11.736C41.7227 11.8107 41.616 11.848 41.488 11.848C41.36 11.848 41.216 11.7947 41.056 11.688C40.672 11.3787 40.2507 11.1493 39.792 11C39.3333 10.8507 38.8373 10.776 38.304 10.776C37.4613 10.776 36.7467 10.9573 36.16 11.32C35.5733 11.672 35.1307 12.1893 34.832 12.872C34.5333 13.5547 34.384 14.3813 34.384 15.352C34.384 16.3227 34.5333 17.1547 34.832 17.848C35.1307 18.5307 35.5733 19.0533 36.16 19.416C36.7467 19.768 37.4613 19.944 38.304 19.944C38.8267 19.944 39.3227 19.8693 39.792 19.72C40.2613 19.56 40.6933 19.3253 41.088 19.016C41.248 18.9093 41.392 18.8613 41.52 18.872C41.648 18.872 41.7547 18.9093 41.84 18.984C41.9253 19.0587 41.984 19.1547 42.016 19.272C42.0587 19.3893 42.0587 19.512 42.016 19.64C41.984 19.768 41.904 19.88 41.776 19.976C41.328 20.36 40.8 20.6533 40.192 20.856C39.5947 21.048 38.9547 21.144 38.272 21.144ZM46.6511 21.144C45.8938 21.144 45.2378 20.9787 44.6831 20.648C44.1285 20.3173 43.6965 19.8533 43.3871 19.256C43.0885 18.648 42.9391 17.9333 42.9391 17.112C42.9391 16.4933 43.0245 15.9387 43.1951 15.448C43.3658 14.9467 43.6165 14.52 43.9471 14.168C44.2778 13.816 44.6671 13.5493 45.1151 13.368C45.5738 13.176 46.0858 13.08 46.6511 13.08C47.4085 13.08 48.0645 13.2453 48.6191 13.576C49.1738 13.9067 49.6005 14.376 49.8991 14.984C50.2085 15.5813 50.3631 16.2907 50.3631 17.112C50.3631 17.7307 50.2778 18.2853 50.1071 18.776C49.9365 19.2667 49.6858 19.6933 49.3551 20.056C49.0245 20.408 48.6298 20.68 48.1711 20.872C47.7231 21.0533 47.2165 21.144 46.6511 21.144ZM46.6511 20.104C47.1311 20.104 47.5525 19.9867 47.9151 19.752C48.2778 19.5173 48.5551 19.176 48.7471 18.728C48.9498 18.28 49.0511 17.7413 49.0511 17.112C49.0511 16.1413 48.8325 15.4 48.3951 14.888C47.9685 14.376 47.3871 14.12 46.6511 14.12C46.1605 14.12 45.7338 14.2373 45.3711 14.472C45.0191 14.696 44.7418 15.032 44.5391 15.48C44.3471 15.9173 44.2511 16.4613 44.2511 17.112C44.2511 18.072 44.4698 18.8133 44.9071 19.336C45.3445 19.848 45.9258 20.104 46.6511 20.104ZM52.9498 21.112C52.7364 21.112 52.5764 21.0533 52.4698 20.936C52.3631 20.8187 52.3098 20.6533 52.3098 20.44V13.768C52.3098 13.5547 52.3631 13.3947 52.4698 13.288C52.5764 13.1707 52.7311 13.112 52.9338 13.112C53.1364 13.112 53.2911 13.1707 53.3978 13.288C53.5151 13.3947 53.5738 13.5547 53.5738 13.768V15.144L53.3978 14.952C53.6218 14.3333 53.9844 13.8693 54.4858 13.56C54.9978 13.24 55.5844 13.08 56.2458 13.08C56.8644 13.08 57.3764 13.192 57.7818 13.416C58.1978 13.64 58.5071 13.9813 58.7098 14.44C58.9124 14.888 59.0138 15.4587 59.0138 16.152V20.44C59.0138 20.6533 58.9551 20.8187 58.8378 20.936C58.7311 21.0533 58.5764 21.112 58.3738 21.112C58.1604 21.112 57.9951 21.0533 57.8778 20.936C57.7711 20.8187 57.7178 20.6533 57.7178 20.44V16.232C57.7178 15.5067 57.5738 14.9787 57.2858 14.648C57.0084 14.3067 56.5604 14.136 55.9418 14.136C55.2271 14.136 54.6564 14.36 54.2298 14.808C53.8138 15.2453 53.6058 15.832 53.6058 16.568V20.44C53.6058 20.888 53.3871 21.112 52.9498 21.112ZM64.6995 21.144C63.9208 21.144 63.2488 20.9733 62.6835 20.632C62.1182 20.2907 61.6808 19.816 61.3715 19.208C61.0728 18.5893 60.9235 17.8747 60.9235 17.064C60.9235 16.4453 61.0088 15.8907 61.1795 15.4C61.3502 14.9093 61.6008 14.4933 61.9315 14.152C62.2622 13.8 62.6568 13.5333 63.1155 13.352C63.5848 13.1707 64.1128 13.08 64.6995 13.08C65.0835 13.08 65.4835 13.1387 65.8995 13.256C66.3155 13.3733 66.6942 13.576 67.0355 13.864C67.1422 13.9387 67.2115 14.0293 67.2435 14.136C67.2755 14.2427 67.2755 14.3493 67.2435 14.456C67.2115 14.552 67.1582 14.6373 67.0835 14.712C67.0088 14.776 66.9128 14.8133 66.7955 14.824C66.6888 14.8347 66.5768 14.7973 66.4595 14.712C66.1822 14.4987 65.8995 14.3493 65.6115 14.264C65.3235 14.1787 65.0462 14.136 64.7795 14.136C64.3635 14.136 64.0008 14.2053 63.6915 14.344C63.3822 14.472 63.1208 14.6587 62.9075 14.904C62.6942 15.1493 62.5288 15.4533 62.4115 15.816C62.3048 16.1787 62.2515 16.6 62.2515 17.08C62.2515 18.008 62.4702 18.744 62.9075 19.288C63.3448 19.8213 63.9688 20.088 64.7795 20.088C65.0462 20.088 65.3182 20.0453 65.5955 19.96C65.8835 19.8747 66.1715 19.7253 66.4595 19.512C66.5768 19.4267 66.6888 19.3893 66.7955 19.4C66.9022 19.4107 66.9928 19.4533 67.0675 19.528C67.1422 19.592 67.1902 19.6773 67.2115 19.784C67.2435 19.8907 67.2435 19.9973 67.2115 20.104C67.1795 20.2 67.1102 20.2853 67.0035 20.36C66.6622 20.6373 66.2888 20.84 65.8835 20.968C65.4782 21.0853 65.0835 21.144 64.6995 21.144ZM69.4498 21.08C69.2364 21.08 69.0764 21.0213 68.9698 20.904C68.8631 20.776 68.8098 20.6 68.8098 20.376V13.832C68.8098 13.608 68.8631 13.4373 68.9698 13.32C69.0764 13.2027 69.2364 13.144 69.4498 13.144C69.6524 13.144 69.8124 13.2027 69.9298 13.32C70.0471 13.4373 70.1058 13.608 70.1058 13.832V20.376C70.1058 20.6 70.0471 20.776 69.9298 20.904C69.8231 21.0213 69.6631 21.08 69.4498 21.08ZM69.4498 11.352C69.1831 11.352 68.9751 11.2827 68.8258 11.144C68.6764 10.9947 68.6018 10.7973 68.6018 10.552C68.6018 10.296 68.6764 10.104 68.8258 9.976C68.9751 9.83733 69.1831 9.768 69.4498 9.768C69.7271 9.768 69.9351 9.83733 70.0738 9.976C70.2231 10.104 70.2978 10.296 70.2978 10.552C70.2978 10.7973 70.2231 10.9947 70.0738 11.144C69.9351 11.2827 69.7271 11.352 69.4498 11.352ZM76.0325 21.144C75.2112 21.144 74.5018 20.984 73.9045 20.664C73.3178 20.3333 72.8592 19.8693 72.5285 19.272C72.2085 18.6747 72.0485 17.96 72.0485 17.128C72.0485 16.3173 72.2085 15.6133 72.5285 15.016C72.8485 14.408 73.2858 13.9333 73.8405 13.592C74.4058 13.2507 75.0565 13.08 75.7925 13.08C76.3152 13.08 76.7845 13.1707 77.2005 13.352C77.6165 13.5227 77.9685 13.7733 78.2565 14.104C78.5552 14.4347 78.7792 14.8347 78.9285 15.304C79.0885 15.7733 79.1685 16.3013 79.1685 16.888C79.1685 17.0587 79.1205 17.1867 79.0245 17.272C78.9285 17.3467 78.7898 17.384 78.6085 17.384H73.0405V16.536H78.3045L78.0485 16.744C78.0485 16.168 77.9632 15.6827 77.7925 15.288C77.6218 14.8827 77.3712 14.5733 77.0405 14.36C76.7205 14.1467 76.3152 14.04 75.8245 14.04C75.2805 14.04 74.8165 14.168 74.4325 14.424C74.0592 14.6693 73.7765 15.016 73.5845 15.464C73.3925 15.9013 73.2965 16.4133 73.2965 17V17.096C73.2965 18.0773 73.5312 18.824 74.0005 19.336C74.4805 19.848 75.1578 20.104 76.0325 20.104C76.3952 20.104 76.7525 20.056 77.1045 19.96C77.4672 19.864 77.8192 19.704 78.1605 19.48C78.3098 19.384 78.4432 19.3413 78.5605 19.352C78.6885 19.352 78.7898 19.3893 78.8645 19.464C78.9392 19.528 78.9872 19.6133 79.0085 19.72C79.0405 19.816 79.0298 19.9227 78.9765 20.04C78.9338 20.1573 78.8432 20.2587 78.7045 20.344C78.3525 20.6 77.9365 20.7973 77.4565 20.936C76.9765 21.0747 76.5018 21.144 76.0325 21.144ZM81.7001 21.112C81.4868 21.112 81.3215 21.0533 81.2041 20.936C81.0975 20.8187 81.0441 20.6533 81.0441 20.44V13.768C81.0441 13.5547 81.0975 13.3947 81.2041 13.288C81.3108 13.1707 81.4655 13.112 81.6681 13.112C81.8708 13.112 82.0255 13.1707 82.1321 13.288C82.2495 13.3947 82.3081 13.5547 82.3081 13.768V15.064H82.1481C82.3188 14.4347 82.6441 13.9493 83.1241 13.608C83.6041 13.2667 84.1961 13.0853 84.9001 13.064C85.0601 13.0533 85.1881 13.0907 85.2841 13.176C85.3801 13.2507 85.4335 13.384 85.4441 13.576C85.4548 13.7573 85.4121 13.9013 85.3161 14.008C85.2201 14.1147 85.0708 14.1787 84.8681 14.2L84.6121 14.232C83.8868 14.296 83.3268 14.5307 82.9321 14.936C82.5481 15.3307 82.3561 15.8747 82.3561 16.568V20.44C82.3561 20.6533 82.2975 20.8187 82.1801 20.936C82.0735 21.0533 81.9135 21.112 81.7001 21.112ZM90.1248 24.024C89.5594 24.024 89.0048 23.9547 88.4608 23.816C87.9274 23.688 87.4421 23.48 87.0048 23.192C86.8768 23.1173 86.7914 23.0267 86.7488 22.92C86.7168 22.8133 86.7114 22.7067 86.7328 22.6C86.7541 22.504 86.8021 22.4133 86.8768 22.328C86.9514 22.2533 87.0368 22.2053 87.1328 22.184C87.2394 22.1627 87.3461 22.1787 87.4528 22.232C87.9221 22.52 88.3701 22.7173 88.7968 22.824C89.2234 22.9307 89.6448 22.984 90.0608 22.984C90.8181 22.984 91.3888 22.7813 91.7728 22.376C92.1674 21.9707 92.3648 21.384 92.3648 20.616V18.808H92.5248C92.3648 19.4267 92.0234 19.9173 91.5008 20.28C90.9888 20.6427 90.3861 20.824 89.6927 20.824C88.9781 20.824 88.3594 20.664 87.8368 20.344C87.3141 20.0133 86.9088 19.5547 86.6208 18.968C86.3434 18.3813 86.2048 17.704 86.2048 16.936C86.2048 16.36 86.2848 15.8373 86.4448 15.368C86.6048 14.888 86.8341 14.4827 87.1328 14.152C87.4421 13.8107 87.8101 13.5493 88.2368 13.368C88.6741 13.176 89.1594 13.08 89.6927 13.08C90.3968 13.08 91.0048 13.2613 91.5168 13.624C92.0288 13.976 92.3594 14.456 92.5088 15.064L92.3488 15.256V13.768C92.3488 13.5547 92.4021 13.3947 92.5088 13.288C92.6261 13.1707 92.7861 13.112 92.9888 13.112C93.2021 13.112 93.3621 13.1707 93.4688 13.288C93.5754 13.3947 93.6288 13.5547 93.6288 13.768V20.44C93.6288 21.624 93.3301 22.5147 92.7328 23.112C92.1461 23.72 91.2768 24.024 90.1248 24.024ZM89.9328 19.768C90.4341 19.768 90.8661 19.656 91.2288 19.432C91.5914 19.1973 91.8688 18.8667 92.0608 18.44C92.2634 18.0133 92.3648 17.512 92.3648 16.936C92.3648 16.072 92.1461 15.3893 91.7088 14.888C91.2714 14.376 90.6794 14.12 89.9328 14.12C89.4421 14.12 89.0154 14.2373 88.6528 14.472C88.2901 14.696 88.0074 15.0213 87.8048 15.448C87.6128 15.864 87.5168 16.36 87.5168 16.936C87.5168 17.8 87.7354 18.488 88.1728 19C88.6101 19.512 89.1968 19.768 89.9328 19.768ZM99.5638 21.144C98.7424 21.144 98.0331 20.984 97.4358 20.664C96.8491 20.3333 96.3904 19.8693 96.0598 19.272C95.7398 18.6747 95.5798 17.96 95.5798 17.128C95.5798 16.3173 95.7398 15.6133 96.0598 15.016C96.3798 14.408 96.8171 13.9333 97.3718 13.592C97.9371 13.2507 98.5878 13.08 99.3238 13.08C99.8464 13.08 100.316 13.1707 100.732 13.352C101.148 13.5227 101.5 13.7733 101.788 14.104C102.086 14.4347 102.31 14.8347 102.46 15.304C102.62 15.7733 102.7 16.3013 102.7 16.888C102.7 17.0587 102.652 17.1867 102.556 17.272C102.46 17.3467 102.321 17.384 102.14 17.384H96.5718V16.536H101.836L101.58 16.744C101.58 16.168 101.494 15.6827 101.324 15.288C101.153 14.8827 100.902 14.5733 100.572 14.36C100.252 14.1467 99.8464 14.04 99.3558 14.04C98.8118 14.04 98.3478 14.168 97.9638 14.424C97.5904 14.6693 97.3078 15.016 97.1158 15.464C96.9238 15.9013 96.8278 16.4133 96.8278 17V17.096C96.8278 18.0773 97.0624 18.824 97.5318 19.336C98.0118 19.848 98.6891 20.104 99.5638 20.104C99.9264 20.104 100.284 20.056 100.636 19.96C100.998 19.864 101.35 19.704 101.692 19.48C101.841 19.384 101.974 19.3413 102.092 19.352C102.22 19.352 102.321 19.3893 102.396 19.464C102.47 19.528 102.518 19.6133 102.54 19.72C102.572 19.816 102.561 19.9227 102.508 20.04C102.465 20.1573 102.374 20.2587 102.236 20.344C101.884 20.6 101.468 20.7973 100.988 20.936C100.508 21.0747 100.033 21.144 99.5638 21.144Z" fill="#273472"/>
<path d="M15.209 12.8643C13.8888 13.8195 13.7684 13.8195 13.7684 13.8195V14.773C13.7684 15.5245 12.5047 15.7581 11.9668 15.8233V17.2132C13.1503 17.1688 15.7223 16.7568 16.8365 14.15C16.4089 13.9753 16.17 13.8775 16.17 13.8775L15.209 12.8643Z" fill="#273472"/>
<path d="M9.68523 14.773V13.8195C9.68523 13.8195 9.56488 13.8195 8.24467 12.8643L7.28368 13.8775C7.28368 13.8775 7.0448 13.9744 6.61719 14.15C7.73226 16.7568 10.3025 17.1688 11.4869 17.2132V15.8233C10.9489 15.7572 9.68523 15.5245 9.68523 14.773Z" fill="#273472"/>
<path d="M6.16258 14.334C5.59273 14.5676 4.82868 14.8791 3.92149 15.2503C1.88099 16.0852 2.00134 16.9997 2.00134 18.1523C2.00134 19.3032 2.00134 23.0002 2.00134 23.0002H11.4863V17.6896C10.2044 17.6444 7.36791 17.2079 6.16258 14.334ZM9.50506 17.9332C9.85335 17.9332 10.1351 18.213 10.1351 18.5589C10.1351 18.9039 9.85244 19.1846 9.50506 19.1846C9.15768 19.1846 8.87504 18.903 8.87504 18.5589C8.87504 18.2121 9.15677 17.9332 9.50506 17.9332ZM9.50506 20.4069C9.85335 20.4069 10.1351 20.6867 10.1351 21.0326C10.1351 21.3776 9.85244 21.6583 9.50506 21.6583C9.15768 21.6583 8.87504 21.3767 8.87504 21.0326C8.87504 20.6867 9.15677 20.4069 9.50506 20.4069Z" fill="#273472"/>
<path d="M19.5316 15.2503C18.6244 14.8791 17.8604 14.5676 17.2905 14.334C16.0852 17.2079 13.2487 17.6444 11.9668 17.6887V22.9993H21.4518C21.4518 22.9993 21.4518 19.3032 21.4518 18.1514C21.4527 16.9988 21.5721 16.0852 19.5316 15.2503ZM13.948 21.6592C13.5997 21.6592 13.318 21.3776 13.318 21.0335C13.318 20.6867 13.6007 20.4078 13.948 20.4078C14.2954 20.4078 14.5781 20.6876 14.5781 21.0335C14.5781 21.3776 14.2963 21.6592 13.948 21.6592ZM13.948 19.1855C13.5997 19.1855 13.318 18.9039 13.318 18.5598C13.318 18.213 13.6007 17.9341 13.948 17.9341C14.2954 17.9341 14.5781 18.2139 14.5781 18.5598C14.5781 18.9039 14.2963 19.1855 13.948 19.1855Z" fill="#273472"/>
</svg>
