<svg width="24" height="24" viewBox="0 0 24 24" fill="none" xmlns="http://www.w3.org/2000/svg">
<path d="M18.3998 5.27378C17.8731 5.02066 17.2387 5.23441 16.9781 5.75753L15.5848 8.58691L13.9649 6.60691C13.7553 6.34816 13.4494 6.23003 13.1379 6.23003V6.21316H9.82442V6.23566C9.62618 6.23003 9.42227 6.25816 9.24102 6.36503L5.70098 8.47441C5.38379 8.66566 5.18555 9.00878 5.18555 9.38003V12.5469C5.18555 13.1319 5.66133 13.5988 6.24473 13.5988C6.83379 13.5988 7.30391 13.1263 7.30391 12.5469V9.98191L9.42793 8.71628V12.5469C9.42793 12.8282 9.54122 13.0925 9.73946 13.295L13.676 17.2044V22.0419C13.676 22.6269 14.1518 23.0938 14.7352 23.0938C15.3242 23.0938 15.7943 22.6213 15.7943 22.0419V16.7657C15.7943 16.4844 15.6811 16.22 15.4828 16.0175L13.5344 14.0825C13.6137 13.9363 13.6703 13.7732 13.6703 13.5988V9.60503L14.9674 11.1913C15.1713 11.4388 15.4772 11.5794 15.7943 11.5794C15.834 11.5794 15.8736 11.5794 15.9133 11.5738C16.2758 11.5344 16.5873 11.315 16.7459 10.9888L18.8699 6.67441C19.1418 6.15691 18.9266 5.52691 18.3998 5.27378Z" fill="#273472"/>
<path d="M12.0896 5.16125C12.9687 5.16125 13.6813 4.45358 13.6813 3.58062C13.6813 2.70767 12.9687 2 12.0896 2C11.2106 2 10.498 2.70767 10.498 3.58062C10.498 4.45358 11.2106 5.16125 12.0896 5.16125Z" fill="#273472"/>
<path d="M7.70559 17.3225L2.83448 18.3856C2.26241 18.5094 1.89991 19.0719 2.02452 19.64C2.13214 20.135 2.57394 20.4669 3.06105 20.4669C3.13468 20.4669 3.21398 20.4613 3.28761 20.4444L8.59485 19.2856C8.87238 19.2238 9.11594 19.055 9.26887 18.8131L11.0021 16.0344L9.46145 14.5044L7.70559 17.3225Z" fill="#273472"/>
</svg>
