<svg width="24" height="24" viewBox="0 0 24 24" fill="none" xmlns="http://www.w3.org/2000/svg">
<path d="M14.3223 16.25V23.15C14.3223 23.6 13.9316 24 13.4922 24C13.0527 24 12.6621 23.6 12.6621 23.15V16.25C12.6621 15.8 13.0527 15.4 13.4922 15.4C13.9316 15.4 14.3223 15.8 14.3223 16.25Z" fill="#273472"/>
<path d="M9.4873 2.74998C9.4873 1.24999 10.708 0 12.1728 0C13.6377 0 14.8584 1.24999 14.8584 2.74998C14.8584 4.29997 13.6377 5.49996 12.1728 5.49996C10.6592 5.49996 9.4873 4.29997 9.4873 2.74998Z" fill="#273472"/>
<path d="M2.6033 8.05004C2.55447 8.00004 1.62675 6.90005 2.16385 5.65006C2.6033 4.65007 2.50565 3.85007 2.50565 3.70007C2.50565 3.75007 3.38455 4.95006 2.84744 6.15006C2.55447 6.80005 2.55447 7.30005 2.6033 8.05004Z" fill="#273472"/>
<path d="M2.31016 19.6998H3.14023C3.14023 19.7998 3.0914 19.8998 3.04258 19.9498C2.79844 20.5498 2.79844 21.0998 2.79844 21.1498V21.7498C2.74961 21.6498 2.01719 20.7498 2.31016 19.6998Z" fill="#273472"/>
<path d="M4.89842 13.0996C4.70311 12.6496 4.5078 11.9996 4.80076 11.2996C5.24021 10.2996 5.14256 9.49961 5.14256 9.34961C5.14256 9.39961 5.58201 10.0496 5.63083 10.7996L4.89842 13.0996Z" fill="#273472"/>
<path d="M11.6367 16.25V23.15C11.6367 23.6 11.2461 24 10.8066 24C10.3672 24 9.97656 23.6 9.97656 23.15V16.25C9.97656 15.8 10.3672 15.4 10.8066 15.4C11.2949 15.4 11.6367 15.8 11.6367 16.25Z" fill="#273472"/>
<path d="M16.8117 19.6998H17.5441C17.5441 19.9998 17.4953 20.2998 17.3976 20.5998C17.1046 21.2498 17.1046 21.8498 17.1535 21.8498V22.4998C17.1535 22.4498 16.1769 21.3498 16.714 20.0998C16.714 19.9498 16.7628 19.7998 16.8117 19.6998Z" fill="#273472"/>
<path d="M17.5449 7.64996C17.6426 7.24996 17.8867 7.14996 17.9355 5.59998C17.9355 5.64998 18.7168 6.74997 18.2773 7.89996C18.1309 8.29996 18.0332 8.64995 18.0332 8.84995C17.6914 7.99996 17.6914 7.89996 17.5449 7.64996Z" fill="#273472"/>
<path d="M23.8921 17.4499C23.9409 18.0999 23.4527 18.6499 22.8179 18.6499C18.9605 18.6499 19.9859 18.6499 16.0797 18.6499C15.5426 18.6499 15.0543 18.1999 15.0543 17.5999V16.1999C15.0543 15.2999 14.3707 14.5999 13.4918 14.5999C12.9547 14.5999 12.4664 14.8499 12.1734 15.3499C11.8316 14.7999 11.2945 14.5499 10.7086 14.5999C9.87853 14.6999 9.2926 15.4499 9.2926 16.2999V17.5999C9.2926 18.1499 8.85315 18.6499 8.26722 18.6499H1.23602C0.650085 18.6499 0.161807 18.2499 0.112979 17.6499C0.0641514 17.2999 0.210635 16.9999 0.405946 16.7499C0.601257 16.5499 0.894224 16.3999 1.18719 16.3999H8.95081V10.9999C8.95081 10.6999 8.51136 10.5999 8.4137 10.8999L6.75356 15.4499H5.2399C5.2399 15.2999 5.2399 15.1999 5.28872 15.0499L7.58363 8.44994C8.02308 7.24995 9.14612 6.44995 10.3668 6.44995H14.0777C15.2984 6.44995 16.3726 7.19995 16.8121 8.34994L19.5464 15.0999C19.5953 15.2499 19.6441 15.3499 19.6441 15.4999H18.1304L15.8844 10.4499C15.7379 10.1499 15.3472 10.2499 15.3472 10.5499V16.4999H22.7202C23.3062 16.4499 23.8433 16.8999 23.8921 17.4499Z" fill="#273472"/>
<path d="M21.9392 4.59997C21.8904 4.54997 20.9627 3.44998 21.4998 2.19999C21.9392 1.19999 21.8416 0.399999 21.8416 0.25C21.8416 0.3 22.7205 1.49999 22.1834 2.69998C21.8904 3.34998 21.9392 3.84997 21.9392 4.59997Z" fill="#273472"/>
</svg>
