<svg width="24" height="24" viewBox="0 0 24 24" fill="none" xmlns="http://www.w3.org/2000/svg">
<path fill-rule="evenodd" clip-rule="evenodd" d="M17.4737 14.6313C17.4728 15.5433 17.1899 16.0873 16.6316 16.2582V20.1049C16.6316 20.3374 16.4429 20.526 16.2105 20.526H13.6842C13.4518 20.526 13.2632 20.3374 13.2632 20.1049V16.2582C12.704 16.0881 12.4211 15.5433 12.4211 14.6313V12.526C12.4211 12.2936 12.6097 12.1049 12.8421 12.1049H17.0526C17.2851 12.1049 17.4737 12.2936 17.4737 12.526V14.6313ZM11.5789 14.6313C11.5781 15.5433 11.2952 16.0873 10.7368 16.2582V20.1049C10.7368 20.3374 10.5482 20.526 10.3158 20.526H7.78947C7.55705 20.526 7.36842 20.3374 7.36842 20.1049V16.2582C6.80926 16.0881 6.52632 15.5433 6.52632 14.6313V12.526C6.52632 12.2936 6.71495 12.1049 6.94737 12.1049H11.1579C11.3903 12.1049 11.5789 12.2936 11.5789 12.526V14.6313ZM9.05263 7.89441C9.98147 7.89441 10.7368 8.64894 10.7368 9.57862C10.7368 10.5075 9.98147 11.2628 9.05263 11.2628C8.12379 11.2628 7.36842 10.5075 7.36842 9.57862C7.36842 8.64894 8.12379 7.89441 9.05263 7.89441ZM14.9474 7.89441C15.8762 7.89441 16.6316 8.64894 16.6316 9.57862C16.6316 10.5075 15.8762 11.2628 14.9474 11.2628C14.0185 11.2628 13.2632 10.5075 13.2632 9.57862C13.2632 8.64894 14.0185 7.89441 14.9474 7.89441ZM19.5789 7.05237H4.42105C4.18863 7.05237 4 7.241 4 7.47342V21.7892C4 22.0216 4.18863 22.2103 4.42105 22.2103H19.5789C19.8114 22.2103 20 22.0216 20 21.7892V7.47342C20 7.241 19.8114 7.05237 19.5789 7.05237Z" fill="#273472"/>
<path fill-rule="evenodd" clip-rule="evenodd" d="M8.08731 2.12316C7.9231 1.95895 7.65615 1.95895 7.49194 2.12316L5.80773 3.80737C5.64352 3.97158 5.64352 4.23853 5.80773 4.40274C5.97194 4.56695 6.23889 4.56695 6.4031 4.40274L7.36899 3.43768V5.78968C7.36899 6.02211 7.55678 6.21074 7.79004 6.21074C8.02246 6.21074 8.2111 6.02211 8.2111 5.78968V3.43768L9.17615 4.40274C9.34036 4.56695 9.60731 4.56695 9.77152 4.40274C9.93573 4.23853 9.93573 3.97158 9.77152 3.80737L8.08731 2.12316Z" fill="#273472"/>
<path fill-rule="evenodd" clip-rule="evenodd" d="M18.1924 3.8074C18.0282 3.64319 17.7613 3.64319 17.597 3.8074L16.632 4.77245V2.4213C16.632 2.18803 16.4434 2.00024 16.2109 2.00024C15.9777 2.00024 15.7899 2.18803 15.7899 2.4213V4.77245L14.824 3.8074C14.6598 3.64319 14.3928 3.64319 14.2286 3.8074C14.0644 3.97161 14.0644 4.23856 14.2286 4.40277L15.9128 6.08698C16.077 6.25119 16.344 6.25119 16.5082 6.08698L18.1924 4.40277C18.3566 4.23856 18.3566 3.97161 18.1924 3.8074Z" fill="#273472"/>
</svg>
