<svg width="24" height="24" viewBox="0 0 24 24" fill="none" xmlns="http://www.w3.org/2000/svg">
<g clip-path="url(#clip0_11296_77265)">
<path d="M17.8355 4.71736C17.6161 4.49802 17.2604 4.49802 17.041 4.71736L15.7364 6.02199L13.978 4.26358L15.2826 2.95895C15.502 2.7396 15.502 2.3839 15.2826 2.16451C15.0633 1.94516 14.7076 1.94516 14.4882 2.16451L13.1835 3.46914L12.7298 3.01542C12.7295 3.01512 12.3044 2.59002 12.3044 2.59002C12.085 2.37068 11.7293 2.37068 11.5099 2.59002C11.2906 2.80941 11.2906 3.16508 11.5099 3.3845L11.5381 3.4127L9.80806 5.1428C8.55111 6.39976 8.4295 8.36816 9.44239 9.76326L7.16454 12.041C6.94515 12.2604 6.94515 12.6161 7.16454 12.8355C7.27427 12.9452 7.418 13 7.56178 13C7.70555 13 7.84932 12.9451 7.95898 12.8355L10.2364 10.5581C10.842 10.9993 11.569 11.2377 12.3327 11.2377C12.3327 11.2377 12.3327 11.2377 12.3327 11.2377C13.2863 11.2377 14.1829 10.8663 14.8571 10.192L16.5874 8.46182L16.6156 8.49006C16.7254 8.59975 16.8691 8.65454 17.0129 8.65454C17.1566 8.65454 17.3004 8.59971 17.4101 8.49006C17.6294 8.27067 17.6294 7.915 17.41 7.69558L16.5308 6.81639L17.8354 5.51177C18.0549 5.29242 18.0549 4.93675 17.8355 4.71736Z" fill="#273472"/>
<rect x="3" y="12" width="18" height="11" rx="2" fill="#F0F0F0"/>
<path d="M5.55269 20C5.41402 20 5.30469 19.9627 5.22469 19.888C5.15002 19.808 5.11269 19.7013 5.11269 19.568C5.11269 19.4293 5.15002 19.3253 5.22469 19.256C5.30469 19.1867 5.41402 19.152 5.55269 19.152H6.44869V15.224H6.94469L5.76869 15.936C5.66735 15.9947 5.57135 16.0187 5.48069 16.008C5.39535 15.992 5.32069 15.9547 5.25669 15.896C5.19802 15.832 5.15802 15.7573 5.13669 15.672C5.11535 15.5867 5.12069 15.5013 5.15269 15.416C5.19002 15.3253 5.25935 15.2507 5.36069 15.192L6.46469 14.528C6.57135 14.464 6.67802 14.4107 6.78469 14.368C6.89135 14.32 6.99002 14.296 7.08069 14.296C7.19269 14.296 7.28602 14.328 7.36069 14.392C7.43535 14.4507 7.47269 14.5493 7.47269 14.688V19.152H8.28869C8.42735 19.152 8.53402 19.1867 8.60869 19.256C8.68869 19.3253 8.72869 19.4293 8.72869 19.568C8.72869 19.7067 8.68869 19.8133 8.60869 19.888C8.53402 19.9627 8.42735 20 8.28869 20H5.55269ZM10.3496 20C10.2109 20 10.1016 19.9627 10.0216 19.888C9.9469 19.808 9.90956 19.7013 9.90956 19.568C9.90956 19.4293 9.9469 19.3253 10.0216 19.256C10.1016 19.1867 10.2109 19.152 10.3496 19.152H11.2456V15.224H11.7416L10.5656 15.936C10.4642 15.9947 10.3682 16.0187 10.2776 16.008C10.1922 15.992 10.1176 15.9547 10.0536 15.896C9.9949 15.832 9.9549 15.7573 9.93356 15.672C9.91223 15.5867 9.91756 15.5013 9.94956 15.416C9.9869 15.3253 10.0562 15.2507 10.1576 15.192L11.2616 14.528C11.3682 14.464 11.4749 14.4107 11.5816 14.368C11.6882 14.32 11.7869 14.296 11.8776 14.296C11.9896 14.296 12.0829 14.328 12.1576 14.392C12.2322 14.4507 12.2696 14.5493 12.2696 14.688V19.152H13.0856C13.2242 19.152 13.3309 19.1867 13.4056 19.256C13.4856 19.3253 13.5256 19.4293 13.5256 19.568C13.5256 19.7067 13.4856 19.8133 13.4056 19.888C13.3309 19.9627 13.2242 20 13.0856 20H10.3496ZM16.2984 20.08C15.6318 20.08 15.1224 19.8293 14.7704 19.328C14.4184 18.8213 14.2424 18.1013 14.2424 17.168C14.2424 16.5387 14.3198 16.0107 14.4744 15.584C14.6344 15.152 14.8664 14.8267 15.1704 14.608C15.4798 14.3893 15.8558 14.28 16.2984 14.28C16.9704 14.28 17.4798 14.5253 17.8264 15.016C18.1784 15.5067 18.3544 16.2213 18.3544 17.16C18.3544 17.784 18.2744 18.3147 18.1144 18.752C17.9598 19.184 17.7304 19.5147 17.4264 19.744C17.1224 19.968 16.7464 20.08 16.2984 20.08ZM16.2984 19.24C16.6611 19.24 16.9278 19.072 17.0984 18.736C17.2744 18.4 17.3624 17.8747 17.3624 17.16C17.3624 16.4453 17.2744 15.928 17.0984 15.608C16.9278 15.2827 16.6611 15.12 16.2984 15.12C15.9411 15.12 15.6744 15.2827 15.4984 15.608C15.3224 15.928 15.2344 16.4453 15.2344 17.16C15.2344 17.8747 15.3224 18.4 15.4984 18.736C15.6744 19.072 15.9411 19.24 16.2984 19.24Z" fill="#273472"/>
</g>
<defs>
<clipPath id="clip0_11296_77265">
<rect width="24" height="24" fill="white"/>
</clipPath>
</defs>
</svg>
