<svg width="24" height="24" viewBox="0 0 24 24" fill="none" xmlns="http://www.w3.org/2000/svg">
<g clip-path="url(#clip0_11296_77267)">
<path d="M17.8355 4.71736C17.6161 4.49802 17.2604 4.49802 17.041 4.71736L15.7364 6.02199L13.978 4.26358L15.2826 2.95895C15.502 2.7396 15.502 2.3839 15.2826 2.16451C15.0633 1.94516 14.7076 1.94516 14.4882 2.16451L13.1835 3.46914L12.7298 3.01542C12.7295 3.01512 12.3044 2.59002 12.3044 2.59002C12.085 2.37068 11.7293 2.37068 11.5099 2.59002C11.2906 2.80941 11.2906 3.16508 11.5099 3.3845L11.5381 3.4127L9.80806 5.1428C8.55111 6.39976 8.4295 8.36816 9.44239 9.76326L7.16454 12.041C6.94515 12.2604 6.94515 12.6161 7.16454 12.8355C7.27427 12.9452 7.418 13 7.56178 13C7.70555 13 7.84932 12.9451 7.95898 12.8355L10.2364 10.5581C10.842 10.9993 11.569 11.2377 12.3327 11.2377C12.3327 11.2377 12.3327 11.2377 12.3327 11.2377C13.2863 11.2377 14.1829 10.8663 14.8571 10.192L16.5874 8.46182L16.6156 8.49006C16.7254 8.59975 16.8691 8.65454 17.0129 8.65454C17.1566 8.65454 17.3004 8.59971 17.4101 8.49006C17.6294 8.27067 17.6294 7.915 17.41 7.69558L16.5308 6.81639L17.8354 5.51177C18.0549 5.29242 18.0549 4.93675 17.8355 4.71736Z" fill="#273472"/>
<rect x="3" y="12" width="18" height="11" rx="2" fill="#F0F0F0"/>
<path d="M5.36869 20C5.19802 20 5.07269 19.9627 4.99269 19.888C4.91802 19.808 4.88069 19.6933 4.88069 19.544C4.88069 19.4533 4.90469 19.3653 4.95269 19.28C5.00069 19.1947 5.07002 19.104 5.16069 19.008L6.76869 17.296C7.01402 17.04 7.19002 16.808 7.29669 16.6C7.40335 16.3867 7.45669 16.1733 7.45669 15.96C7.45669 15.6933 7.37135 15.4907 7.20069 15.352C7.03535 15.2133 6.79269 15.144 6.47269 15.144C6.29135 15.144 6.11002 15.1707 5.92869 15.224C5.74735 15.272 5.56335 15.3573 5.37669 15.48C5.28069 15.544 5.19002 15.5707 5.10469 15.56C5.02469 15.5493 4.95269 15.5147 4.88869 15.456C4.83002 15.3973 4.79002 15.3253 4.76869 15.24C4.74735 15.1547 4.75002 15.0693 4.77669 14.984C4.80869 14.8933 4.87269 14.816 4.96869 14.752C5.19802 14.5973 5.45402 14.48 5.73669 14.4C6.02469 14.32 6.31269 14.28 6.60069 14.28C7.00602 14.28 7.34735 14.3413 7.62469 14.464C7.90202 14.5867 8.11269 14.7653 8.25669 15C8.40069 15.2347 8.47269 15.52 8.47269 15.856C8.47269 16.08 8.43535 16.2987 8.36069 16.512C8.29135 16.7253 8.18202 16.9413 8.03269 17.16C7.88869 17.3787 7.69935 17.6107 7.46469 17.856L5.96069 19.424V19.152H8.31269C8.45669 19.152 8.56602 19.1867 8.64069 19.256C8.71535 19.3253 8.75269 19.4293 8.75269 19.568C8.75269 19.7067 8.71535 19.8133 8.64069 19.888C8.56602 19.9627 8.45669 20 8.31269 20H5.36869ZM10.1656 20C9.9949 20 9.86956 19.9627 9.78956 19.888C9.7149 19.808 9.67756 19.6933 9.67756 19.544C9.67756 19.4533 9.70156 19.3653 9.74956 19.28C9.79756 19.1947 9.8669 19.104 9.95756 19.008L11.5656 17.296C11.8109 17.04 11.9869 16.808 12.0936 16.6C12.2002 16.3867 12.2536 16.1733 12.2536 15.96C12.2536 15.6933 12.1682 15.4907 11.9976 15.352C11.8322 15.2133 11.5896 15.144 11.2696 15.144C11.0882 15.144 10.9069 15.1707 10.7256 15.224C10.5442 15.272 10.3602 15.3573 10.1736 15.48C10.0776 15.544 9.9869 15.5707 9.90156 15.56C9.82156 15.5493 9.74956 15.5147 9.68556 15.456C9.6269 15.3973 9.5869 15.3253 9.56556 15.24C9.54423 15.1547 9.5469 15.0693 9.57356 14.984C9.60556 14.8933 9.66956 14.816 9.76556 14.752C9.9949 14.5973 10.2509 14.48 10.5336 14.4C10.8216 14.32 11.1096 14.28 11.3976 14.28C11.8029 14.28 12.1442 14.3413 12.4216 14.464C12.6989 14.5867 12.9096 14.7653 13.0536 15C13.1976 15.2347 13.2696 15.52 13.2696 15.856C13.2696 16.08 13.2322 16.2987 13.1576 16.512C13.0882 16.7253 12.9789 16.9413 12.8296 17.16C12.6856 17.3787 12.4962 17.6107 12.2616 17.856L10.7576 19.424V19.152H13.1096C13.2536 19.152 13.3629 19.1867 13.4376 19.256C13.5122 19.3253 13.5496 19.4293 13.5496 19.568C13.5496 19.7067 13.5122 19.8133 13.4376 19.888C13.3629 19.9627 13.2536 20 13.1096 20H10.1656ZM16.2984 20.08C15.6318 20.08 15.1224 19.8293 14.7704 19.328C14.4184 18.8213 14.2424 18.1013 14.2424 17.168C14.2424 16.5387 14.3198 16.0107 14.4744 15.584C14.6344 15.152 14.8664 14.8267 15.1704 14.608C15.4798 14.3893 15.8558 14.28 16.2984 14.28C16.9704 14.28 17.4798 14.5253 17.8264 15.016C18.1784 15.5067 18.3544 16.2213 18.3544 17.16C18.3544 17.784 18.2744 18.3147 18.1144 18.752C17.9598 19.184 17.7304 19.5147 17.4264 19.744C17.1224 19.968 16.7464 20.08 16.2984 20.08ZM16.2984 19.24C16.6611 19.24 16.9278 19.072 17.0984 18.736C17.2744 18.4 17.3624 17.8747 17.3624 17.16C17.3624 16.4453 17.2744 15.928 17.0984 15.608C16.9278 15.2827 16.6611 15.12 16.2984 15.12C15.9411 15.12 15.6744 15.2827 15.4984 15.608C15.3224 15.928 15.2344 16.4453 15.2344 17.16C15.2344 17.8747 15.3224 18.4 15.4984 18.736C15.6744 19.072 15.9411 19.24 16.2984 19.24Z" fill="#273472"/>
</g>
<defs>
<clipPath id="clip0_11296_77267">
<rect width="24" height="24" fill="white"/>
</clipPath>
</defs>
</svg>
