<svg width="24" height="24" viewBox="0 0 24 24" fill="none" xmlns="http://www.w3.org/2000/svg">
<g clip-path="url(#clip0_11296_77342)">
<path d="M5.46094 13.7092H14.685V15.6402H5.46094V13.7092Z" fill="#273472"/>
<path d="M5.46094 16.9292H14.685V22.9999H5.46094V16.9292Z" fill="#273472"/>
<path d="M18.5483 7.2303V9.85758C18.0236 10.0892 17.6445 10.5951 17.5994 11.2011L17.5367 12.044H20.8489L20.7862 11.2011C20.7411 10.5951 20.3619 10.0892 19.8373 9.85758V7.2303C19.8373 4.87406 17.9204 2.95714 15.5641 2.95714H14.3635C14.1236 2.46072 13.6153 2.11826 13.0271 2.11826H11.5436V1H4.76562V2.48341L7.63653 3.60086L4.66211 4.59232L5.06971 5.81525L8.57682 4.64624V6.34952H8.53514C6.83706 6.34952 5.46047 7.72611 5.46047 9.4242V12.4202H14.6845V9.4242C14.6845 7.72611 13.3079 6.34952 11.6098 6.34952H11.5436V5.08508H13.0271C13.6153 5.08508 14.1236 4.74262 14.3635 4.2462H15.5642C17.2096 4.2462 18.5483 5.58485 18.5483 7.2303Z" fill="#273472"/>
<path d="M20.945 13.3331H17.4411L17.0479 18.6222H21.3383L20.945 13.3331Z" fill="#273472"/>
</g>
<defs>
<clipPath id="clip0_11296_77342">
<rect width="22" height="22" fill="white" transform="translate(2 1)"/>
</clipPath>
</defs>
</svg>
