<svg width="24" height="24" viewBox="0 0 24 24" fill="none" xmlns="http://www.w3.org/2000/svg">
<path d="M13.567 7.63342H11.567C10.7004 7.63342 9.98926 8.34453 9.98926 9.2112V14.1445C9.98926 14.789 10.3893 15.3668 10.9448 15.6112V18.5001C10.9448 19.2112 11.5226 19.789 12.2337 19.789H12.9226C13.6337 19.789 14.2115 19.2112 14.2115 18.5001V15.6112C14.7893 15.3668 15.167 14.8112 15.167 14.1445V9.2112C15.1448 8.34453 14.4337 7.63342 13.567 7.63342Z" fill="#273472"/>
<path d="M12.5448 7.14452C13.3548 7.14452 14.0115 6.48787 14.0115 5.67785C14.0115 4.86783 13.3548 4.21118 12.5448 4.21118C11.7348 4.21118 11.0781 4.86783 11.0781 5.67785C11.0781 6.48787 11.7348 7.14452 12.5448 7.14452Z" fill="#273472"/>
<path d="M7.45571 7.63342H5.45571C4.58904 7.63342 3.87793 8.34453 3.87793 9.2112V14.1445C3.87793 14.789 4.27793 15.3668 4.83349 15.6112V18.5001C4.83349 19.2112 5.41126 19.789 6.12237 19.789H6.81126C7.52237 19.789 8.10015 19.2112 8.10015 18.5001V15.6112C8.67793 15.3668 9.05571 14.8112 9.05571 14.1445V9.2112C9.03348 8.34453 8.32237 7.63342 7.45571 7.63342Z" fill="#273472"/>
<path d="M6.43346 7.14452C7.24348 7.14452 7.90013 6.48787 7.90013 5.67785C7.90013 4.86783 7.24348 4.21118 6.43346 4.21118C5.62345 4.21118 4.9668 4.86783 4.9668 5.67785C4.9668 6.48787 5.62345 7.14452 6.43346 7.14452Z" fill="#273472"/>
<path d="M18.9668 10.3889H17.2112C16.589 10.3889 16.0557 10.9 16.0557 11.5445V15.5C16.0557 15.9889 16.3668 16.4111 16.8112 16.5667V18.7889C16.8112 19.3223 17.2557 19.7667 17.789 19.7667H18.389C18.9223 19.7667 19.3668 19.3223 19.3668 18.7889V16.5667C19.8112 16.4111 20.1223 15.9889 20.1223 15.5V11.5445C20.1223 10.9 19.6112 10.3889 18.9668 10.3889Z" fill="#273472"/>
<path d="M18.0999 9.9222C18.7381 9.9222 19.2554 9.40484 19.2554 8.76664C19.2554 8.12844 18.7381 7.61108 18.0999 7.61108C17.4617 7.61108 16.9443 8.12844 16.9443 8.76664C16.9443 9.40484 17.4617 9.9222 18.0999 9.9222Z" fill="#273472"/>
</svg>
