<svg width="24" height="24" viewBox="0 0 24 24" fill="none" xmlns="http://www.w3.org/2000/svg">
<path d="M9.42871 14.9598C9.42871 15.9843 10.0227 16.8442 10.879 17.2657C10.69 17.0206 10.5717 16.7352 10.5717 16.4006C10.5717 15.4396 11.842 14.8068 11.842 13.5189C12.7034 14.3879 13.4299 15.1465 13.4299 16.4006C13.4299 16.7352 13.3129 17.0206 13.1226 17.2657C13.9776 16.8442 14.5716 15.9856 14.5716 14.9598C14.5716 13.231 12.2856 12.0898 12.2856 9.77222C10.735 11.3363 9.42871 12.7019 9.42871 14.9598Z" fill="#273472"/>
<path d="M3 3V6.89068C3 7.60657 3.576 8.18758 4.28571 8.18758V18.5627C3.576 18.5627 3 19.1437 3 19.8596V21.1565H21V19.8596C21 19.1437 20.424 18.5627 19.7143 18.5627V8.18758C20.424 8.18758 21 7.60657 21 6.89068V3H3ZM17.1429 18.5627H6.85714V10.7814C6.85714 9.3483 9.15986 8.18758 12 8.18758C14.8401 8.18758 17.1429 9.3483 17.1429 10.7814V18.5627Z" fill="#273472"/>
</svg>
