<svg width="25" height="25" viewBox="0 0 25 25" fill="none" xmlns="http://www.w3.org/2000/svg">
<path d="M7.89015 9.98753V9.3501H6.98145V10.552C7.28449 10.351 7.58746 10.1647 7.89015 9.98753Z" fill="#273472"/>
<path d="M15.1436 13.2168C14.7915 12.7259 14.0772 12.3844 13.2488 12.3727C13.2344 12.3723 13.22 12.3723 13.2055 12.3723C12.3954 12.3723 11.6901 12.6911 11.3298 13.1635C11.2156 13.313 11.2262 13.4682 11.3064 13.5965C11.4061 13.7562 11.6157 13.8732 11.854 13.8766L14.5983 13.9148C14.6018 13.9148 14.6053 13.9148 14.6088 13.9148C15.0053 13.9148 15.3325 13.6037 15.1783 13.2857C15.1673 13.2633 15.1599 13.2398 15.1436 13.2168Z" fill="#273472"/>
<path d="M20.6701 9.17632C20.6268 9.1173 20.5739 9.06538 20.5155 9.01848C20.4586 8.97268 20.3928 8.93559 20.3207 8.90531C20.2607 8.87998 20.1965 8.86105 20.1259 8.84894V8.2232C20.1259 8.11268 20.0285 7.99611 19.9222 7.97864C19.4922 7.90709 18.5929 7.78711 17.3984 7.78711C15.1795 7.78711 11.7879 8.20462 8.28028 10.2018C8.21562 10.2389 8.1506 10.2791 8.08551 10.3169C8.02049 10.3547 7.95583 10.3933 7.89074 10.4323C7.71472 10.5383 7.53828 10.6488 7.36184 10.7632C7.26567 10.8253 7.16986 10.8877 7.07362 10.9525C6.98246 11.0138 6.89138 11.0778 6.80022 11.1418C4.88164 12.4849 2.97243 14.3423 1.24432 16.9096C1.2416 16.9138 1.23924 16.9175 1.2373 16.9206C1.2416 16.9209 1.24626 16.9209 1.25213 16.9209H18.0445C18.1458 16.9209 18.2358 16.8346 18.2537 16.721C18.3425 16.1612 18.6747 15.1732 19.9051 14.8548C20.0266 14.8234 20.1259 14.7125 20.1259 14.6076V10.6224C20.196 10.6103 20.261 10.5917 20.3207 10.5671C20.3919 10.5372 20.4585 10.502 20.5155 10.457C20.5626 10.4195 20.605 10.3778 20.6421 10.3325C22.3947 10.6425 22.4068 13.0663 22.496 14.5228C22.5408 15.2504 23.7092 15.2546 23.6644 14.5228C23.5347 12.4007 23.2488 9.42881 20.6701 9.17632ZM17.8015 12.2716C17.7964 13.2039 16.8968 13.2222 15.585 13.2698C15.6302 13.4443 15.6153 13.6253 15.5254 13.793C15.3622 14.0973 15.0031 14.2938 14.5942 14.2938C14.5942 14.2938 14.5942 14.2938 14.5938 14.2938L11.8495 14.2556C11.453 14.2499 11.0943 14.0455 10.9358 13.734C10.9117 13.6863 10.8984 13.6363 10.8852 13.5864C9.52783 13.5273 8.52139 13.2215 8.94008 12.5325C9.75955 11.1831 11.1757 10.3499 13.4101 9.93081C17.8186 9.10366 17.8186 9.10366 17.8015 12.2716Z" fill="#273472"/>
<path d="M19.0466 17.4875H1.0293V18.3987H19.0466V17.4875Z" fill="#273472"/>
</svg>
