<svg width="24" height="24" viewBox="0 0 24 24" fill="none" xmlns="http://www.w3.org/2000/svg">
<path fill-rule="evenodd" clip-rule="evenodd" d="M13.2275 4.45625C13.2275 4.00297 13.5932 3.63806 14.0457 3.63806C14.4973 3.63806 14.8638 4.00297 14.8638 4.45625C14.8638 4.90706 14.4973 5.27443 14.0457 5.27443C13.5932 5.27443 13.2275 4.90706 13.2275 4.45625ZM19.6459 4.29221C19.9103 4.18937 19.8974 3.81096 19.6267 3.72629L14.1676 2.01902C14.0882 1.99366 14.0031 1.99366 13.9237 2.01902L7.37828 4.0653C7.27332 4.09916 7.30467 4.23167 7.40929 4.26654L13.9315 6.44061C13.9979 6.46273 14.0699 6.46096 14.1351 6.4356L19.6459 4.29221Z" fill="#273472"/>
<path fill-rule="evenodd" clip-rule="evenodd" d="M18.9541 8.13629C18.5017 8.13629 18.136 7.77056 18.136 7.3181C18.136 6.86647 18.5017 6.49992 18.9541 6.49992C19.4058 6.49992 19.7723 6.86647 19.7723 7.3181C19.7723 7.77056 19.4058 8.13629 18.9541 8.13629ZM18.9541 12.2272C18.5017 12.2272 18.136 11.8614 18.136 11.409C18.136 10.9573 18.5017 10.5908 18.9541 10.5908C19.4058 10.5908 19.7723 10.9573 19.7723 11.409C19.7723 11.8614 19.4058 12.2272 18.9541 12.2272ZM14.6453 7.11436C14.53 7.15921 14.4541 7.27024 14.4541 7.39395V8.03684C14.4541 8.16801 14.5393 8.28397 14.6645 8.32315L17.4397 9.19167C17.6098 9.24403 17.7268 9.40276 17.7268 9.58276V13.7794C17.7268 13.9917 17.9412 14.1368 18.1383 14.058L20.7418 13.0159C20.8973 12.9537 20.9996 12.8031 20.9996 12.6362V5.08117C20.9996 4.87015 20.7875 4.72508 20.5908 4.80158L14.6453 7.11436Z" fill="#273472"/>
<path fill-rule="evenodd" clip-rule="evenodd" d="M10.0764 6.88861L13.2467 7.8803C13.4399 7.94074 13.6363 7.79641 13.6363 7.59399V7.42065C13.6363 7.29153 13.5537 7.17689 13.4312 7.13605L7.4857 5.15398C7.29144 5.08922 7.09082 5.23381 7.09082 5.43858V7.33788C7.09082 7.54031 7.28719 7.68464 7.48039 7.6242L9.83173 6.88861C9.91191 6.86407 9.99619 6.86407 10.0764 6.88861Z" fill="#273472"/>
<path fill-rule="evenodd" clip-rule="evenodd" d="M5.4546 13.0457C5.90623 13.0457 6.27278 13.4122 6.27278 13.8638C6.27278 14.3163 5.90623 14.682 5.4546 14.682C5.00214 14.682 4.63642 14.3163 4.63642 13.8638C4.63642 13.4122 5.00214 13.0457 5.4546 13.0457ZM7.90906 17.1365C8.36069 17.1365 8.72724 17.5031 8.72724 17.9547C8.72724 18.4072 8.36069 18.7729 7.90906 18.7729C7.4566 18.7729 7.09087 18.4072 7.09087 17.9547C7.09087 17.5031 7.4566 17.1365 7.90906 17.1365ZM3 18.3641C3 18.5261 3.09573 18.6726 3.24464 18.738L9.12522 21.3107C9.32343 21.3974 9.54546 21.2521 9.54546 21.0358V13.0459C9.54546 12.9764 9.51929 12.9063 9.45448 12.8811L3.40875 10.5295C3.21209 10.453 3 10.5981 3 10.8091V18.3641Z" fill="#273472"/>
<path fill-rule="evenodd" clip-rule="evenodd" d="M12.0005 17.1368C12.4522 17.1368 12.8187 17.5033 12.8187 17.955C12.8187 18.4074 12.4522 18.7731 12.0005 18.7731C11.5481 18.7731 11.1824 18.4074 11.1824 17.955C11.1824 17.5033 11.5481 17.1368 12.0005 17.1368ZM13.2278 15.0913C13.6795 15.0913 14.046 15.4579 14.046 15.9095C14.046 16.362 13.6795 16.7277 13.2278 16.7277C12.7754 16.7277 12.4096 16.362 12.4096 15.9095C12.4096 15.4579 12.7754 15.0913 13.2278 15.0913ZM14.4551 13.0459C14.9068 13.0459 15.2733 13.4124 15.2733 13.8641C15.2733 14.3165 14.9068 14.6823 14.4551 14.6823C14.0027 14.6823 13.6369 14.3165 13.6369 13.8641C13.6369 13.4124 14.0027 13.0459 14.4551 13.0459ZM10.3643 13.046V21.0358C10.3643 21.2522 10.5863 21.3974 10.7845 21.3107L16.6651 18.7381C16.814 18.6726 16.9097 18.5262 16.9097 18.3642V10.8091C16.9097 10.5981 16.6976 10.453 16.501 10.5295L10.4546 12.881C10.3897 12.9063 10.3643 12.9763 10.3643 13.046Z" fill="#273472"/>
<path fill-rule="evenodd" clip-rule="evenodd" d="M9.95431 11.0017C9.50185 11.0017 9.13612 10.6343 9.13612 10.1835C9.13612 9.73022 9.50185 9.36531 9.95431 9.36531C10.4059 9.36531 10.7725 9.73022 10.7725 10.1835C10.7725 10.6343 10.4059 11.0017 9.95431 11.0017ZM10.0438 7.73548C9.98553 7.71724 9.92305 7.71724 9.86474 7.73548L4.37257 9.45314C4.1018 9.53782 4.08898 9.91626 4.3534 10.0191L9.84556 12.1546C9.9155 12.1818 9.99308 12.1818 10.063 12.1546L15.5545 10.0191C15.8189 9.91625 15.8061 9.53783 15.5353 9.45314L10.0438 7.73548Z" fill="#273472"/>
</svg>
