<svg width="24" height="24" viewBox="0 0 24 24" fill="none" xmlns="http://www.w3.org/2000/svg">
<path d="M21.5754 11.204L22.9632 11.0904C22.8413 9.60358 22.4268 8.18235 21.7309 6.86597L20.5 7.51678C21.1072 8.66537 21.469 9.90601 21.5754 11.204Z" fill="#273472"/>
<path d="M2.88668 15.0521L1.56641 15.4941C2.03815 16.9036 2.7803 18.1846 3.77225 19.3015L4.81336 18.3768C3.94672 17.4013 3.29856 16.2826 2.88668 15.0521Z" fill="#273472"/>
<path d="M7.86819 3.32366L7.26848 2.06702C5.92676 2.70724 4.7453 3.59866 3.75684 4.71648L4.80003 5.63881C5.66387 4.66176 6.69606 3.88285 7.86819 3.32366Z" fill="#273472"/>
<path d="M4.31119 6.23881L3.19754 5.40295C2.30125 6.59722 1.66757 7.93546 1.31445 9.38036L2.66717 9.71092C2.97531 8.44981 3.52838 7.28159 4.31119 6.23881Z" fill="#273472"/>
<path d="M4.38672 19.9396C5.46472 20.9733 6.71607 21.7642 8.10583 22.2905L8.59888 20.9884C7.38526 20.5289 6.2925 19.8378 5.35054 18.9346L4.38672 19.9396Z" fill="#273472"/>
<path d="M18.0781 19.4408L18.9595 20.5187C20.114 19.5746 21.0503 18.4283 21.7424 17.1118L20.5098 16.4639C19.9052 17.6141 19.0871 18.6157 18.0781 19.4408Z" fill="#273472"/>
<path d="M21.6075 11.9761V12.0002C21.6075 13.3071 21.3499 14.5739 20.8418 15.7651L22.1227 16.3113C22.7047 14.9464 22.9999 13.4959 22.9999 12.0002V11.9761H21.6075Z" fill="#273472"/>
<path d="M12 21.6075C11.0927 21.6075 10.1951 21.4814 9.33212 21.2324L8.94629 22.5702C9.93476 22.8554 10.9622 22.9999 12 22.9999C12.4446 22.9999 12.8922 22.9731 13.3307 22.9202L13.1637 21.5378C12.7806 21.5841 12.389 21.6075 12 21.6075Z" fill="#273472"/>
<path d="M13.9268 21.4144L14.2044 22.7788C15.6627 22.4821 17.0243 21.9007 18.2519 21.0514L17.4597 19.9062C16.3878 20.648 15.1993 21.1554 13.9268 21.4144Z" fill="#273472"/>
<path d="M2.39241 12C2.39241 11.4868 2.4332 10.9716 2.51368 10.4688L1.13868 10.2488C1.04665 10.8241 1 11.4132 1 12C1 12.8935 1.10749 13.783 1.31984 14.6432L2.67172 14.3097C2.48639 13.5584 2.39241 12.7813 2.39241 12Z" fill="#273472"/>
<path d="M12.0003 2.39241C12.1243 2.39241 12.2478 2.39477 12.3708 2.39937L12.4233 1.00794C12.2829 1.00265 12.142 1 12.0003 1C10.6509 1 9.33255 1.24172 8.08203 1.71848L8.57815 3.01954C9.66965 2.60335 10.8209 2.39241 12.0003 2.39241Z" fill="#273472"/>
<path d="M17.4826 2.46167C16.191 1.71785 14.7855 1.25195 13.3053 1.07678L13.1416 2.45944C14.4335 2.61233 15.6603 3.01905 16.7878 3.66833L17.4826 2.46167Z" fill="#273472"/>
<path d="M20.1114 6.8481L21.286 6.10038C20.4866 4.84443 19.4591 3.77924 18.2322 2.93433L17.4424 4.08111C18.5147 4.81964 19.4126 5.7506 20.1114 6.8481Z" fill="#273472"/>
<path d="M11.9996 4.20251C7.70001 4.20251 4.20215 7.70051 4.20215 12C4.20215 16.2994 7.70001 19.7974 11.9996 19.7974C16.2992 19.7974 19.7971 16.2994 19.7971 12C19.7971 7.70051 16.2992 4.20251 11.9996 4.20251ZM11.9996 18.962C8.16076 18.962 5.03759 15.8388 5.03759 12C5.03759 8.16112 8.16076 5.03796 11.9996 5.03796C15.8385 5.03796 18.9616 8.16112 18.9616 12C18.9616 15.8388 15.8385 18.962 11.9996 18.962Z" fill="#273472"/>
<path d="M13.3983 11.1311H10.6023V8.24585H8.90918V15.754H10.6023V12.6126H13.3983V15.754H15.0915V8.24585H13.3983V11.1311Z" fill="#273472"/>
</svg>
