<svg width="24" height="24" viewBox="0 0 24 24" fill="none" xmlns="http://www.w3.org/2000/svg">
<path d="M18.2528 20.5754C18.0691 20.6218 17.8395 20.6218 17.6558 20.6218H16.6914L17.518 22.2894C17.6558 22.5673 17.9313 22.66 18.2069 22.5673C18.4824 22.4747 18.6202 22.1967 18.5743 21.9188L18.2528 20.5754Z" fill="#273472"/>
<path d="M5.71594 20.3439L5.34855 21.8262C5.30262 22.1041 5.44039 22.3821 5.71594 22.4747C5.99148 22.5674 6.31294 22.4747 6.40479 22.1968L7.27734 20.4365H6.8181C6.45071 20.4828 6.08332 20.4365 5.71594 20.3439Z" fill="#273472"/>
<path d="M7.13945 9.8287C7.13945 9.27282 7.59869 9.45812 7.96608 9.31915C8.19569 9.2265 8.24162 8.94856 8.14977 8.76327C8.05792 8.57798 8.14977 8.57798 8.19569 8.48533C8.24162 8.39269 8.10385 8.30004 8.10385 8.30004C8.10385 8.30004 8.14977 8.20739 8.14977 8.11475C8.10385 7.88313 8.012 7.83681 8.24162 7.74416C8.37939 7.65152 8.33347 7.4199 7.96608 7.23461C7.59869 7.003 7.59869 6.77138 7.59869 6.58609C7.55276 6.4008 7.00168 5.56698 7.00168 5.56698C7.00168 5.56698 6.08321 4.73317 4.98104 5.05743C3.87887 5.38169 3.64925 6.26183 3.46556 6.8177C3.32778 7.23461 3.51148 7.79049 3.60333 8.11475C4.5218 8.39269 5.76174 8.99489 7.13945 9.8287Z" fill="#273472"/>
<path d="M21.6514 11.7278C18.6664 12.7932 12.5586 14.4145 8.9765 11.6351C5.99146 9.31896 3.64936 8.48515 2.22572 8.16089C1.49094 7.9756 0.848012 8.62412 1.03171 9.36529L2.45534 16.3137C2.91458 18.4446 4.75153 20.0196 6.95586 20.0196L17.6102 20.1585C19.7686 20.1585 21.6514 18.6762 22.1566 16.5454L22.9832 12.9322C23.121 12.1447 22.3862 11.4498 21.6514 11.7278Z" fill="#273472"/>
<path d="M12.834 11.8668C12.834 11.8668 14.8087 11.1256 14.5791 9.36537C14.3495 7.6051 13.1555 7.46613 14.1198 5.38159C14.1198 5.38159 12.0533 6.26173 13.2014 8.43891C14.3495 10.6624 12.834 11.8668 12.834 11.8668Z" fill="#273472"/>
<path d="M17.8398 11.8668C17.8398 11.8668 19.8146 11.1256 19.5849 9.36537C19.3094 7.6051 18.1613 7.46613 19.1257 5.38159C19.1257 5.38159 17.0591 6.26173 18.2072 8.43891C19.3553 10.6624 17.8398 11.8668 17.8398 11.8668Z" fill="#273472"/>
<path d="M15.3594 8.48522C15.3594 8.48522 17.3341 7.74405 17.1045 5.98378C16.8289 4.22351 15.6808 4.08454 16.6452 2C16.6452 2 14.5787 2.88014 15.7268 5.05732C16.8289 7.2345 15.3594 8.48522 15.3594 8.48522Z" fill="#273472"/>
</svg>
