<svg width="24" height="24" viewBox="0 0 24 24" fill="none" xmlns="http://www.w3.org/2000/svg">
<path d="M23 18.8685C21.9809 18.8685 21.4462 18.4215 21.0165 18.0623C20.6515 17.7572 20.4103 17.5557 19.8589 17.5557C19.3075 17.5557 19.0664 17.7572 18.7014 18.0623C18.2717 18.4215 17.737 18.8685 16.7178 18.8685C15.6987 18.8685 15.1641 18.4215 14.7344 18.0622C14.3695 17.7572 14.1284 17.5557 13.5771 17.5557C13.0258 17.5557 12.7848 17.7572 12.4198 18.0622C11.9902 18.4215 11.4555 18.8685 10.4364 18.8685C9.41738 18.8685 8.88278 18.4215 8.45314 18.0622C8.08822 17.7572 7.84713 17.5557 7.29585 17.5557C6.74466 17.5557 6.50357 17.7572 6.13865 18.0622C5.70901 18.4215 5.17441 18.8685 4.15535 18.8685C3.13638 18.8685 2.60178 18.4215 2.17223 18.0622C1.8074 17.7572 1.56632 17.5557 1.01522 17.5557V16.2776C2.03418 16.2776 2.56878 16.7245 2.99833 17.0838C3.36317 17.3889 3.60425 17.5904 4.15535 17.5904C4.70654 17.5904 4.94772 17.3889 5.31264 17.0838C5.74219 16.7245 6.27688 16.2776 7.29585 16.2776C8.31491 16.2776 8.8496 16.7245 9.27915 17.0838C9.64408 17.3889 9.88525 17.5904 10.4364 17.5904C10.9877 17.5904 11.2289 17.3889 11.5938 17.0838C12.0235 16.7245 12.5581 16.2776 13.5771 16.2776C14.5962 16.2776 15.1309 16.7245 15.5605 17.0838C15.9254 17.3889 16.1665 17.5904 16.7178 17.5904C17.2693 17.5904 17.5104 17.3889 17.8754 17.0837C18.3051 16.7245 18.8398 16.2776 19.8589 16.2776C20.8781 16.2776 21.4128 16.7245 21.8424 17.0837C22.2075 17.3889 22.4486 17.5904 23 17.5904V18.8685ZM18.3008 8.84479C16.7684 8.84479 15.526 10.0813 15.526 11.6062C15.526 13.1315 16.7685 14.3682 18.3008 14.3682C19.8334 14.3682 21.0756 13.1315 21.0756 11.6062C21.0756 10.0813 19.8334 8.84479 18.3008 8.84479ZM11.099 12.0922L12.4664 12.8616L8.84896 15.7177C9.00415 15.8266 9.14174 15.941 9.26962 16.048C9.64967 16.3657 9.90065 16.5755 10.4746 16.5755C11.0485 16.5755 11.2996 16.3657 11.6795 16.048C12.1267 15.674 12.6835 15.2086 13.7444 15.2086C14.8054 15.2086 15.3622 15.674 15.8094 16.048C15.9267 16.1461 16.0319 16.2339 16.1379 16.3084L16.5254 15.5944L14.1974 11.822L11.2405 10.5194L6.85548 12.5943L7.56187 13.4982L11.099 12.0922ZM23 20.0554C22.4486 20.0554 22.2075 19.8539 21.8424 19.5487C21.4128 19.1896 20.8781 18.7425 19.8589 18.7425C18.8398 18.7425 18.3051 19.1896 17.8754 19.5487C17.5105 19.8539 17.2693 20.0554 16.7178 20.0554C16.1665 20.0554 15.9254 19.8539 15.5605 19.5488C15.1309 19.1896 14.5962 18.7425 13.5771 18.7425C12.5581 18.7425 12.0235 19.1896 11.5938 19.5488C11.2289 19.8539 10.9877 20.0554 10.4364 20.0554C9.88525 20.0554 9.64408 19.8539 9.27915 19.5488C8.8496 19.1896 8.31491 18.7425 7.29585 18.7425C6.27688 18.7425 5.74219 19.1896 5.31264 19.5488C4.94772 19.8539 4.70654 20.0554 4.15535 20.0554C3.60425 20.0554 3.36317 19.8539 2.99833 19.5488C2.56878 19.1896 2.03418 18.7425 1.01522 18.7425V20.0206C1.56632 20.0206 1.8074 20.2222 2.17223 20.5272C2.60188 20.8865 3.13648 21.3335 4.15544 21.3335C5.1745 21.3335 5.7091 20.8865 6.13874 20.5272C6.50367 20.2222 6.74475 20.0206 7.29594 20.0206C7.84723 20.0206 8.08831 20.2222 8.45323 20.5272C8.88287 20.8865 9.41748 21.3335 10.4365 21.3335C11.4556 21.3335 11.9903 20.8865 12.4199 20.5272C12.7849 20.2222 13.0259 20.0206 13.5772 20.0206C14.1285 20.0206 14.3696 20.2222 14.7345 20.5272C15.1641 20.8865 15.6988 21.3335 16.7179 21.3335C17.7371 21.3335 18.2717 20.8865 18.7015 20.5273C19.0665 20.2222 19.3076 20.0206 19.859 20.0206C20.4104 20.0206 20.6516 20.2222 21.0166 20.5273C21.4462 20.8865 21.9809 21.3335 23 21.3335V20.0554ZM22.9555 6.10616L11.9784 3.00049L11.9783 3.00012L11.9777 3.00031L11.9773 3.00012L11.9772 3.00049L1 6.10616L1.43056 7.88797L11.9777 4.90395L22.5249 7.88797L22.9555 6.10616Z" fill="#273472"/>
</svg>
