<svg width="24" height="24" viewBox="0 0 24 24" fill="none" xmlns="http://www.w3.org/2000/svg">
<path d="M18.9388 6.03617C18.932 6.02997 18.9258 6.02303 18.919 6.01708C18.208 5.39484 17.278 5.01392 16.2575 5.01392H7.74202C6.72152 5.01392 5.79102 5.39484 5.08002 6.01708C5.07327 6.02303 5.06727 6.02997 5.06027 6.03617C3.39977 6.2058 2.10352 7.59287 2.10352 9.28497V10.6026C2.10352 12.2949 3.39977 13.682 5.06077 13.8519C5.06752 13.8578 5.07352 13.865 5.08052 13.871C5.79152 14.493 6.72202 14.8739 7.74227 14.8739H8.83902V16.4643H7.67127C6.24277 16.4643 5.08077 17.584 5.02027 18.9862H18.979C18.9188 17.584 17.7565 16.4643 16.328 16.4643H15.1605V14.8739H16.2573C17.2778 14.8739 18.2083 14.493 18.919 13.871C18.9258 13.865 18.932 13.8578 18.9388 13.8519C20.5993 13.6818 21.8955 12.2949 21.8955 10.6026V9.28497C21.8953 7.59287 20.599 6.2058 18.9388 6.03617ZM7.74202 6.10437H10.6613C9.34652 6.55672 8.33577 7.65264 8.01277 9.01242H4.80852C4.80952 7.40637 6.12277 6.10437 7.74202 6.10437ZM7.74202 13.7829C6.12252 13.7829 4.80952 12.4814 4.80852 10.8751H8.01277C8.33552 12.2342 9.34552 13.3301 10.6593 13.7829H7.74202ZM8.44977 9.94391C8.44977 8.00232 10.042 6.42256 11.9995 6.42256C13.957 6.42256 15.5493 8.00207 15.5493 9.94391C15.5493 11.8855 13.957 13.4655 11.9995 13.4655C10.0423 13.4655 8.44977 11.8855 8.44977 9.94391ZM16.2568 13.7829H13.3395C14.6535 13.3303 15.6635 12.2344 15.9863 10.8751H19.1903C19.1893 12.4809 17.876 13.7829 16.2568 13.7829ZM15.9863 9.01242C15.6633 7.65288 14.6523 6.55672 13.3375 6.10437H16.2568C17.876 6.10437 19.189 7.40612 19.1903 9.01242H15.9863Z" fill="#273472"/>
<path d="M11.9996 7.74854C10.7771 7.74854 9.78613 8.73136 9.78613 9.94408C9.78613 10.0812 9.80038 10.2149 9.82463 10.3451C10.0054 10.2345 10.2159 10.1673 10.4439 10.1673C11.0971 10.1673 11.6269 10.6928 11.6269 11.3408C11.6269 11.6092 11.5329 11.8532 11.3801 12.0508C11.5769 12.1074 11.7844 12.1389 11.9996 12.1389C13.2224 12.1389 14.2131 11.1566 14.2131 9.94334C14.2131 8.73136 13.2224 7.74854 11.9996 7.74854Z" fill="#273472"/>
</svg>
