<svg width="24" height="24" viewBox="0 0 24 24" fill="none" xmlns="http://www.w3.org/2000/svg">
<path d="M12.8335 15.1377V14.1252H13.8241C13.9582 14.1252 14.0823 14.082 14.1832 14.0076C14.343 13.8926 14.4479 13.702 14.4479 13.4863V13.0606C14.4479 12.7078 14.168 12.4217 13.8241 12.4217H12.8335V11.4092C12.8335 11.0564 12.5537 10.7715 12.2086 10.7715H11.792C11.447 10.7715 11.1671 11.0564 11.1671 11.4092V12.4217H10.1765C9.83145 12.4217 9.55273 12.7078 9.55273 13.0606V13.4863C9.55273 13.702 9.65764 13.8926 9.81739 14.0076C9.91836 14.082 10.0424 14.1252 10.1765 14.1252H11.1671V15.1377C11.1671 15.4905 11.447 15.7754 11.792 15.7754H12.2086C12.5537 15.7754 12.8335 15.4905 12.8335 15.1377Z" fill="#273472"/>
<path d="M7.08301 17.8299H16.9172V8.77649H7.08301V17.8299ZM12.0001 9.71C13.9253 9.71 15.4859 11.3053 15.4859 13.2733C15.4859 15.2412 13.9253 16.8368 12.0001 16.8368C10.0749 16.8368 8.51429 15.2415 8.51429 13.2736C8.51429 11.3056 10.0749 9.71 12.0001 9.71Z" fill="#273472"/>
<path d="M20.7188 7.84421V7.52594V6.75889C20.7188 6.39837 20.433 6.10627 20.0803 6.10627H18.9199C18.9199 5.77593 18.6578 5.50798 18.3346 5.50798H17.6306C17.3075 5.50798 17.0453 5.77593 17.0453 6.10627H15.6638V5.50539C15.6638 4.64979 14.9852 3.95605 14.1482 3.95605H9.85181C9.01481 3.95605 8.33616 4.64979 8.33616 5.50539V6.10627H6.95466C6.95466 5.77593 6.69253 5.50798 6.36937 5.50798H5.66569C5.34253 5.50798 5.08041 5.77593 5.08041 6.10627H3.91969C3.567 6.10627 3.28125 6.39837 3.28125 6.75889V7.84421H20.7188ZM9.52444 5.50539C9.52444 5.32082 9.67125 5.17074 9.85181 5.17074H14.1482C14.3288 5.17074 14.4756 5.32082 14.4756 5.50539V6.10627H9.52444V5.50539Z" fill="#273472"/>
<path d="M17.835 8.77649V17.7704H20.7186V9.92563V8.77649H17.835Z" fill="#273472"/>
<path d="M18.7416 18.7028V18.7089H5.26997V18.7028H3.28125V18.7089V18.9003V19.2508C3.28125 19.6889 3.62859 20.044 4.05722 20.044H19.9428C20.3714 20.044 20.7188 19.6889 20.7188 19.2508V19.009V18.9003V18.7089V18.7028H18.7416Z" fill="#273472"/>
<path d="M6.16491 8.77649H3.28125V17.7704H6.16491V8.77649Z" fill="#273472"/>
</svg>
