<svg width="24" height="24" viewBox="0 0 24 24" fill="none" xmlns="http://www.w3.org/2000/svg">
<g clip-path="url(#clip0_11296_79453)">
<path d="M19.2845 23.2594H3.68359V24H19.2845V23.2594Z" fill="#273472"/>
<path d="M11.2625 22.7486H11.6693H13.7757H14.0716H16.5863L15.181 20.6407L13.9244 22.5271L12.6678 20.6407L11.4659 22.4445L10.2635 20.6407L9.00738 22.5271L7.75038 20.6407L6.34473 22.7486H8.85974H9.15495H11.2625Z" fill="#273472"/>
<path d="M19.8045 11.9112C19.5264 12.0094 19.1695 12.3384 18.9367 12.5748C18.927 11.9867 18.9077 11.5777 18.9033 11.461H19.4192V10.7308H4.42022V11.461H5.00501C4.99944 11.58 4.97903 12.0079 4.97084 12.6195C4.74218 12.3957 4.43917 12.1328 4.19573 12.047C3.74629 11.8886 2.25098 12.047 2.25098 12.047V12.6522C2.25098 12.6522 3.72056 12.6009 4.03657 12.7846C4.35405 12.9682 4.69419 14.5229 4.95855 14.5229C4.96821 14.5229 4.98421 14.5229 4.99496 14.5229C5.06677 16.1818 5.29945 17.9797 5.93665 18.5604H5.14593V19.524H18.6236V18.5604H17.9708C18.6236 17.9641 18.8542 16.0815 18.9196 14.3891C18.9657 14.3891 19.0073 14.3891 19.0401 14.3891C19.3032 14.3891 19.6453 12.8336 19.962 12.6507C20.2773 12.4663 21.7496 12.5168 21.7496 12.5168V11.912C21.7481 11.9112 20.2506 11.7544 19.8045 11.9112ZM6.83009 17.3291C6.68764 17.048 6.54749 16.7075 6.44158 16.3283C6.37688 16.1446 6.34942 15.932 6.30552 15.7275C6.25349 15.5163 6.24901 15.3111 6.23302 15.1118C6.2133 14.9214 6.21183 14.6895 6.22297 14.4858C6.22854 14.2791 6.23526 14.0784 6.25125 13.885C6.27282 13.6902 6.26431 13.5043 6.30552 13.3258C6.3397 13.1504 6.37246 12.9831 6.40145 12.8292C6.52707 12.2112 6.73493 11.8417 6.73493 11.8417C6.73493 11.8417 6.73269 11.9469 6.75093 12.1284C6.7684 12.3109 6.76763 12.5555 6.80782 12.8603C6.8338 13.1623 6.85204 13.5072 6.90375 13.8804C6.9298 14.0663 6.94503 14.2567 6.96102 14.45C6.96774 14.6478 7.00902 14.8166 7.035 15.0329C7.08665 15.4477 7.14616 15.7957 7.19858 16.1661C7.24875 16.5326 7.2945 16.8784 7.33501 17.1728C7.40861 17.7698 7.42608 18.2048 7.42608 18.2048C7.42608 18.2048 7.11333 17.8949 6.83009 17.3291Z" fill="#273472"/>
<path d="M8.66783 6.07591C8.75518 6.24025 8.8147 6.28601 8.89169 6.39717L9.08943 6.63549C9.12584 6.71465 9.18536 6.77864 9.21211 6.86709C9.27611 7.03219 9.34676 7.20728 9.36903 7.39985C9.43219 7.77831 9.42739 8.17425 9.41139 8.51925C9.36602 9.21072 9.2987 9.71519 9.2987 9.71519C9.2987 9.71519 9.66827 9.35759 9.96194 8.64935C10.0352 8.47349 10.1066 8.27575 10.153 8.0549C10.2002 7.83552 10.2467 7.59503 10.2359 7.33515C10.2359 7.07936 10.2051 6.79611 10.1021 6.52138C10.0615 6.38047 9.97564 6.25107 9.91024 6.11578C9.87229 6.04923 9.82103 5.99086 9.77604 5.9284L9.70391 5.83548L9.6682 5.78973L9.65963 5.77897C9.66411 5.78454 9.67115 5.79203 9.68491 5.80726L9.68088 5.80278L9.6682 5.78531C9.60651 5.70052 9.48383 5.58123 9.47084 5.52767C9.44109 5.46636 9.39942 5.41427 9.3712 5.3191C9.30426 5.15553 9.25224 4.96739 9.22587 4.77707C9.16789 4.39412 9.17563 3.99741 9.19163 3.65024C9.237 2.958 9.29722 2.45276 9.29722 2.45276C9.29722 2.45276 8.93181 2.81414 8.63807 3.52014C8.49197 3.87185 8.36148 4.31201 8.35547 4.8273C8.36072 5.08232 8.36552 5.36339 8.47034 5.63927C8.50471 5.77296 8.58387 5.92757 8.66783 6.07591ZM9.65976 5.77885C9.64677 5.76362 9.66053 5.77961 9.65976 5.77885V5.77885Z" fill="#273472"/>
<path d="M10.8445 3.62399C10.9318 3.78871 10.9913 3.8344 11.0683 3.94556L11.2661 4.18388C11.3029 4.26304 11.362 4.32704 11.3888 4.41509C11.4527 4.58052 11.5237 4.75561 11.5456 4.94824C11.6088 5.32671 11.6044 5.72264 11.5884 6.06726C11.5426 6.75873 11.4758 7.26359 11.4758 7.26359C11.4758 7.26359 11.8449 6.9056 12.1386 6.19774C12.2118 6.02189 12.2832 5.82376 12.3293 5.60291C12.3768 5.38353 12.4229 5.14304 12.4125 4.88354C12.4125 4.62775 12.3813 4.34451 12.2787 4.06939C12.2385 3.92886 12.1523 3.79946 12.0868 3.66379C12.0489 3.59762 11.9976 3.53887 11.953 3.47641L11.8821 3.38496L11.8463 3.33927L11.8363 3.3266C11.8411 3.33185 11.8478 3.33927 11.8616 3.35482L11.8586 3.35002L11.8448 3.33255C11.7831 3.24891 11.6605 3.12847 11.6475 3.07529C11.6181 3.0136 11.5761 2.96266 11.5478 2.86743C11.4809 2.70271 11.4292 2.51572 11.4025 2.32539C11.3452 1.94136 11.353 1.5458 11.369 1.19857C11.4141 0.505626 11.4751 0 11.4751 0C11.4751 0 11.1092 0.361765 10.8155 1.06738C10.6687 1.41941 10.5382 1.85925 10.5322 2.37493C10.5382 2.62995 10.5422 2.91101 10.6479 3.18651C10.6824 3.32026 10.7616 3.47494 10.8445 3.62399ZM11.8364 3.3266C11.8245 3.31207 11.8379 3.32737 11.8364 3.3266V3.3266Z" fill="#273472"/>
<path d="M13.5322 5.8476C13.62 6.01194 13.6795 6.05763 13.7568 6.16886L13.9546 6.40718C13.991 6.48634 14.0505 6.55033 14.0773 6.63839C14.1412 6.80382 14.2119 6.97897 14.2341 7.17153C14.2967 7.55 14.2921 7.94594 14.2766 8.29094C14.2312 8.98202 14.1643 9.48688 14.1643 9.48688C14.1643 9.48688 14.5331 9.12928 14.8275 8.42104C14.9004 8.24518 14.9717 8.04705 15.0178 7.8262C15.0654 7.60721 15.1115 7.36633 15.1011 7.10683C15.1011 6.85105 15.0699 6.5678 14.9673 6.29307C14.9271 6.15215 14.8409 6.02276 14.7755 5.88709C14.7368 5.82091 14.6862 5.76217 14.6416 5.69971L14.5702 5.60864L14.5345 5.56295L14.5263 5.55143C14.5308 5.55668 14.5375 5.56442 14.5509 5.57965L14.5464 5.57332L14.5331 5.55585C14.4713 5.4722 14.3487 5.35177 14.336 5.29859C14.3063 5.23689 14.2639 5.18595 14.2364 5.09073C14.1687 4.92601 14.1174 4.73901 14.0907 4.54869C14.0334 4.16465 14.0409 3.7691 14.0573 3.42186C14.1033 2.72963 14.1628 2.224 14.1628 2.224C14.1628 2.224 13.7977 2.58576 13.504 3.29176C13.3568 3.64348 13.2267 4.08325 13.2207 4.59893C13.2267 4.85395 13.2304 5.13501 13.336 5.41051C13.3701 5.54388 13.4497 5.69817 13.5322 5.8476ZM14.5256 5.54983C14.5123 5.5353 14.5263 5.55053 14.5256 5.54983V5.54983Z" fill="#273472"/>
</g>
<defs>
<clipPath id="clip0_11296_79453">
<rect width="24" height="24" fill="white"/>
</clipPath>
</defs>
</svg>
