<svg width="24" height="25" viewBox="0 0 24 25" fill="none" xmlns="http://www.w3.org/2000/svg">
<g clip-path="url(#clip0_11296_77184)">
<path d="M18.9393 1.78711H5.16883C4.06875 1.78711 3 2.90387 3 4.00445V20.8518C3.00051 21.9519 3.88987 23.1743 4.98944 23.1743H5.92277V23.6018C5.92277 24.0212 6.26639 24.3491 6.6853 24.3491H7.59639C8.01581 24.3491 8.35386 24.0217 8.35386 23.6018V23.1743H15.6466V23.6018C15.6466 24.0212 15.9842 24.3491 16.4036 24.3491H17.3152C17.7346 24.3491 18.0777 24.0217 18.0777 23.6018V23.1743H18.9529C20.053 23.1743 21 21.9524 21 20.8518V4.01355C21 2.91296 20.0394 1.78711 18.9393 1.78711ZM5.00107 4.77507V4.07924C5.00107 3.73461 5.26838 3.46679 5.6125 3.46679H7.76618C8.11081 3.46679 8.38772 3.73461 8.38772 4.07924V4.77507C8.38772 5.11919 8.11081 5.40621 7.76618 5.40621H5.6125C5.26838 5.40621 5.00107 5.11969 5.00107 4.77507ZM11.9613 19.3955C8.37357 19.3955 5.46546 16.4879 5.46546 12.9001C5.46546 9.31284 8.37357 6.40472 11.9613 6.40472C15.5486 6.40472 18.4567 9.31284 18.4567 12.9001C18.4567 16.4879 15.5486 19.3955 11.9613 19.3955Z" fill="#273472"/>
<path d="M11.961 7.94543C9.22421 7.94543 7.00586 10.1638 7.00586 12.9001C7.00586 15.6369 9.22421 17.8558 11.961 17.8558C14.6983 17.8558 16.9162 15.6369 16.9162 12.9001C16.9162 10.1633 14.6978 7.94543 11.961 7.94543ZM11.961 15.88C10.3177 15.88 8.98115 14.5429 8.98115 12.9006C8.98115 11.2583 10.3177 9.92124 11.961 9.92124C13.6033 9.92124 14.9404 11.2578 14.9404 12.9006C14.9409 14.5429 13.6043 15.88 11.961 15.88Z" fill="#273472"/>
<path d="M10.7169 11.9299C10.3349 12.2554 10.0918 12.7384 10.0918 13.2796C10.0918 14.259 10.8851 15.0518 11.8645 15.0518C12.6315 15.0518 13.2829 14.5642 13.529 13.8835C12.3794 13.5929 11.3829 12.8825 10.7169 11.9299Z" fill="#273472"/>
</g>
<defs>
<clipPath id="clip0_11296_77184">
<rect width="24" height="24" fill="white" transform="translate(0 0.787109)"/>
</clipPath>
</defs>
</svg>
