<svg width="24" height="24" viewBox="0 0 24 24" fill="none" xmlns="http://www.w3.org/2000/svg">
<path d="M16.9193 15.4326C18.1781 15.4326 19.2019 14.4156 19.2019 13.1581C19.2019 11.9028 18.1781 10.8835 16.9193 10.8835C15.6561 10.8835 14.6309 11.9028 14.6309 13.1581C14.6309 14.4156 15.6561 15.4326 16.9193 15.4326Z" fill="#273472"/>
<path d="M7.58573 5.78307C8.63733 5.78307 9.48982 4.9344 9.48982 3.88751C9.48982 2.84062 8.63733 1.99194 7.58573 1.99194C6.53413 1.99194 5.68164 2.84062 5.68164 3.88751C5.68164 4.9344 6.53413 5.78307 7.58573 5.78307Z" fill="#273472"/>
<path d="M14.9981 19.7877H0.5V22.0082H14.9981C15.6138 22.0082 16.1134 21.5108 16.1134 20.898C16.1134 20.2851 15.6138 19.7877 14.9981 19.7877Z" fill="#273472"/>
<path d="M23.4123 16.9848C23.1662 16.4356 22.4859 16.255 22.0115 16.406L18.5431 18.0573C17.9914 17.7101 15.8792 16.4252 14.6167 15.6184C14.4249 15.3461 14.2026 15.0922 13.9461 14.8694C13.0405 14.087 11.8398 13.7347 10.6532 13.9005L0.5 15.3313V19.0476H15.123C16.0836 19.7878 17.6457 20.2615 17.6457 20.2615C18.329 20.5664 18.529 20.528 18.9059 20.3636L22.9178 18.4562C23.3468 18.2068 23.6591 17.5347 23.4123 16.9848Z" fill="#273472"/>
<path d="M4.21746 9.77992C4.21746 9.57564 4.384 9.40984 4.5892 9.40984C4.79441 9.40984 4.96095 9.57564 4.96095 9.77992V13.8664H5.70519L10.1654 13.2232V9.77992C10.1654 9.57564 10.332 9.40984 10.5372 9.40984C10.7424 9.40984 10.9089 9.57564 10.9089 9.77992V13.144C11.0175 13.1366 11.1253 13.1218 11.2331 13.1218C11.6294 13.1218 12.0167 13.1862 12.3959 13.2794V8.62452C12.3959 7.4225 11.4175 6.46472 10.2108 6.46472H4.9156C3.70816 6.46472 2.73047 7.4225 2.73047 8.62452V13.8664H4.21746V9.77992Z" fill="#273472"/>
</svg>
