<svg width="24" height="24" viewBox="0 0 24 24" fill="none" xmlns="http://www.w3.org/2000/svg">
<path fill-rule="evenodd" clip-rule="evenodd" d="M18.7288 12.3958C18.7288 12.6143 18.5515 12.7917 18.333 12.7917H16.3538V14.7708C16.3538 14.9893 16.1765 15.1667 15.958 15.1667H11.9997C11.7812 15.1667 11.6038 14.9893 11.6038 14.7708V12.7917H9.62467C9.40617 12.7917 9.22884 12.6143 9.22884 12.3958V8.4375C9.22884 8.219 9.40617 8.04167 9.62467 8.04167H11.6038V6.0625C11.6038 5.844 11.7812 5.66667 11.9997 5.66667H15.958C16.1765 5.66667 16.3538 5.844 16.3538 6.0625V8.04167H18.333C18.5515 8.04167 18.7288 8.219 18.7288 8.4375V12.3958ZM4.47884 13.5833H6.85384V7.25H4.47884V13.5833ZM19.9163 3.29167H8.04134C7.38663 3.29167 6.85384 3.82446 6.85384 4.47917V5.66667H4.47884V3.29167C4.47884 2.85546 4.12497 2.5 3.68717 2.5C3.24938 2.5 2.89551 2.85546 2.89551 3.29167V20.7083C2.89551 21.1453 3.24938 21.5 3.68717 21.5C4.12497 21.5 4.47884 21.1453 4.47884 20.7083V15.1667H6.85384V16.3542C6.85384 17.0089 7.38663 17.5417 8.04134 17.5417H19.9163C20.5711 17.5417 21.1038 17.0089 21.1038 16.3542V4.47917C21.1038 3.82446 20.5711 3.29167 19.9163 3.29167Z" fill="#273472"/>
</svg>
