<svg width="24" height="24" viewBox="0 0 24 24" fill="none" xmlns="http://www.w3.org/2000/svg">
<path d="M19.8677 16.8899C20.2196 17.5559 19.7368 18.3572 18.9836 18.3572H5.01571C4.26275 18.3572 3.7799 17.5565 4.13127 16.8905L4.8831 15.4656L6.55374 12.3162L6.8194 11.8164C6.99297 11.4899 7.3326 11.2858 7.70242 11.2858H16.2998C16.6687 11.2858 17.0077 11.4889 17.1816 11.8142L17.4468 12.3099L19.1175 15.4704L19.8677 16.8899Z" fill="#273472"/>
<path d="M12.0001 8.14286C12.868 8.14286 13.5716 7.4393 13.5716 6.57143C13.5716 5.70355 12.868 5 12.0001 5C11.1323 5 10.4287 5.70355 10.4287 6.57143C10.4287 7.4393 11.1323 8.14286 12.0001 8.14286Z" fill="#273472"/>
<path d="M15.1431 9.59217V10.7412C15.1431 11.0389 14.879 11.2857 14.5057 11.2857H9.55736C9.18404 11.2857 8.85742 11.0389 8.85742 10.7412V9.59217C8.85742 8.98597 9.26993 8.45827 9.86541 8.14941C10.3705 8.64355 11.1566 8.96849 12.0249 8.96849C12.896 8.96849 13.6538 8.64579 14.1589 8.14282C14.7604 8.44736 15.1431 8.98231 15.1431 9.59217Z" fill="#273472"/>
<path d="M19.8576 11.2857C20.7254 11.2857 21.429 10.5821 21.429 9.71425C21.429 8.84637 20.7254 8.14282 19.8576 8.14282C18.9897 8.14282 18.2861 8.84637 18.2861 9.71425C18.2861 10.5821 18.9897 11.2857 19.8576 11.2857Z" fill="#273472"/>
<path d="M23 13.0974V14.5337C23 14.9059 22.7644 15.2143 22.4377 15.2143H18.1079C17.7812 15.2143 17.5 14.9059 17.5 14.5337V13.0974C17.5 12.3397 17.8586 11.6801 18.3797 11.294C18.8217 11.9117 19.5084 12.3179 20.2681 12.3179C21.0303 12.3179 21.6952 11.9145 22.1371 11.2858C22.6634 11.6664 23 12.3351 23 13.0974Z" fill="#273472"/>
<path d="M4.14272 11.2857C5.01059 11.2857 5.71415 10.5821 5.71415 9.71425C5.71415 8.84637 5.01059 8.14282 4.14272 8.14282C3.27484 8.14282 2.57129 8.84637 2.57129 9.71425C2.57129 10.5821 3.27484 11.2857 4.14272 11.2857Z" fill="#273472"/>
<path d="M6.5 13.0974V14.5337C6.5 14.9059 6.26437 15.2143 5.93767 15.2143H1.6079C1.28125 15.2143 1 14.9059 1 14.5337V13.0974C1 12.3397 1.35865 11.6801 1.8797 11.294C2.32166 11.9117 3.00837 12.3179 3.76814 12.3179C4.53037 12.3179 5.19517 11.9145 5.63713 11.2858C6.16338 11.6664 6.5 12.3351 6.5 13.0974Z" fill="#273472"/>
</svg>
