<svg width="24" height="24" viewBox="0 0 24 24" fill="none" xmlns="http://www.w3.org/2000/svg">
<path d="M19.3859 6.9192C19.3561 6.92438 18.4707 6.75418 17.7226 7.07503C17.4886 7.17565 16.9537 7.68625 16.4997 7.25558C16.2438 7.0135 16.1577 6.14985 16.124 6.07108C15.7212 5.16775 14.4843 5.20053 14.3431 4.6399C14.2345 4.21325 14.6592 3.76533 15.386 4.06893C16.9869 4.73478 17.1984 4.75663 16.7956 4.4237C16.7326 4.36965 16.6314 4.30698 16.5155 4.24085C16.4857 4.2213 16.4564 4.20463 16.4317 4.1937C16.4058 4.17933 16.3782 4.1638 16.3507 4.15C15.0625 3.42378 13.5894 3 12.016 3C9.10454 3 6.52435 4.41565 4.87623 6.60295C4.88354 6.60295 4.88916 6.6041 4.89591 6.6041L4.84473 6.65585C6.00291 5.70595 5.39541 6.73635 7.74666 5.79393C7.83104 5.75885 8.49648 5.69618 8.63035 5.73183C11.0491 6.38158 12.1482 5.71688 12.2382 5.65363C13.3531 4.87795 14.2149 5.06023 14.2205 5.72435C14.2239 6.13203 14.3358 6.59203 13.8492 6.4776C13.1489 6.312 12.7445 5.56795 12.6449 6.38158C12.5729 6.97325 11.4603 7.03248 11.6392 7.40968C11.755 7.65463 12.8097 7.19808 13.2873 6.91403C13.7649 6.63055 14.1659 7.16818 14.1969 7.23718C14.5389 7.99215 15.5485 8.3084 15.6532 8.35095C16.4637 8.67928 15.6025 9.12663 15.1284 9.38078C15.116 9.38653 13.1557 11.625 12.4492 11.4577C12.3609 11.437 12.1471 11.0799 12.0307 11.05C9.78066 10.475 10.9743 13.7301 11.5514 12.4421C11.7922 11.9056 11.7567 12.7077 11.7607 13.0332C11.7646 13.3581 12.2433 13.6795 12.2433 13.6795C12.263 13.7163 12.7754 13.7738 12.8154 13.9118L12.9723 14.0113C12.9723 14.0113 13.2654 13.5081 13.6743 13.5536C14.6857 13.6657 16.2685 14.6771 16.4384 14.7634C18.0764 15.6011 17.5246 17.103 15.9867 17.9322C15.4996 18.1973 15.5362 19.2949 14.9635 18.8815C14.6384 18.6481 13.8127 20.8796 13.7643 21.2551C17.3035 20.5433 20.0992 17.716 20.8372 14.1142C20.8152 14.0854 20.7922 14.0544 20.7702 14.0199C20.7764 14.0061 20.782 13.994 20.786 13.9848C20.8209 13.9152 20.786 13.7226 20.7697 13.6709C20.7528 13.6174 20.7348 13.5835 20.7269 13.5053C20.7179 13.4265 20.7354 13.3828 20.7269 13.2689C20.7179 13.1568 20.7944 13.1649 20.8293 12.9642C20.8636 12.7635 20.804 12.817 20.7781 12.7037C20.7685 12.6612 20.7899 12.6295 20.8209 12.5996C20.8332 12.5893 20.8484 12.5778 20.8642 12.5634C20.8996 12.537 20.9373 12.5111 20.9559 12.4812C20.9896 12.4501 21.0048 12.4335 21.0205 12.4133C21.0228 12.3478 21.0307 12.284 21.0307 12.2155C21.0307 10.2427 20.4192 8.41823 19.3859 6.9192Z" fill="#273472"/>
<path d="M12.8708 14.5914C13.0598 14.2044 12.4562 14.2084 12.1114 13.9261C11.6079 13.5133 10.9774 13.2327 10.8604 13.1838C10.6101 13.0774 9.67125 12.1867 9.44737 11.9021C9.25725 11.6577 9.39225 11.3306 9.06544 11.4772C9.05869 11.4801 9.05869 11.4709 9.05644 11.4726C8.83931 11.6198 8.51531 11.5335 8.22787 10.3594C8.17556 10.1478 8.18569 10.1334 8.25319 10.0362C8.61375 9.53599 7.40887 7.97371 7.14563 7.64941C7.01288 7.48611 6.55612 7.61376 6.3615 7.64194C6.30469 7.60744 6.16744 7.64941 6.11513 7.64941C6.05494 7.64941 6.123 7.56259 6.15787 7.49359C6.19162 7.42286 6.12244 7.45736 6.07237 7.44874C6.02119 7.44069 6.08925 7.37169 6.123 7.29234C6.18375 7.15549 5.64375 7.54131 5.50987 7.60514C5.34731 7.68391 5.41537 7.70231 5.36475 7.76326C5.31413 7.82421 5.28825 7.95416 5.2275 8.00649C5.169 8.05996 5.34731 8.03179 5.3985 8.04156C5.46431 8.05306 5.42438 8.27846 5.27925 8.25144C5.27925 8.25144 5.05594 8.41186 4.80394 8.54986C4.76175 8.55849 4.75781 8.53261 4.76231 8.50789C4.8315 8.46246 4.86975 8.38196 4.95075 8.36471C5.061 8.34056 5.01487 8.22499 4.95075 8.20831C4.92825 8.20084 4.91813 8.19279 4.91531 8.18014C4.917 8.16864 4.917 8.16059 4.91869 8.15484C4.92375 8.13931 4.93613 8.12206 4.9485 8.10309C4.97888 8.05709 4.77637 8.02431 4.66556 8.02431C4.55531 8.02431 4.58119 7.95474 4.55531 7.83226C4.50694 7.60399 5.15662 7.50451 4.89619 7.33891C4.85962 7.19171 4.74713 7.39354 4.61156 7.34811C4.575 7.33546 4.51425 7.37226 4.46644 7.40964C4.42481 7.44069 4.36069 7.44414 4.31287 7.44586C3.48431 8.83794 3 10.4663 3 12.2155C3 17.306 7.03594 21.4316 12.0157 21.4316C12.3898 21.4316 12.7583 21.4 13.1211 21.354C13.1177 21.3206 13.1779 20.3977 13.2819 20.0832C13.3944 19.7428 13.6121 17.7378 13.5339 17.2289C13.4203 16.4843 13.4108 16.8304 12.8708 14.5914Z" fill="#273472"/>
</svg>
