<svg width="24" height="24" viewBox="0 0 24 24" fill="none" xmlns="http://www.w3.org/2000/svg">
<path d="M13.148 18.9302C12.9215 18.7814 12.6358 18.8016 12.4283 18.9522L10.2468 17.4956C10.6745 16.7027 10.7521 15.7597 10.4575 14.8017C10.1361 13.7566 9.40939 12.8181 8.41094 12.1594C7.55757 11.5972 6.55975 11.2871 5.60012 11.2871C4.29875 11.2871 3.18385 11.8342 2.54175 12.7885C1.38675 14.508 2.13957 17.0229 4.21985 18.395C5.07321 18.9579 6.07103 19.2674 7.03003 19.2674C8.21239 19.2674 9.2363 18.8117 9.89557 18.0143L12.0834 19.4747C12.0357 19.7149 12.133 19.9708 12.3519 20.1151L13.9378 21.1602C14.2273 21.3524 14.6174 21.2743 14.8102 20.9875L14.9082 20.8419C15.101 20.5551 15.0228 20.1687 14.7332 19.9771L13.148 18.9302ZM6.67621 18.6156C6.27975 18.5797 5.88394 18.4871 5.4983 18.3396L5.81203 17.8731L6.75639 18.4959L6.67621 18.6156ZM7.41057 18.3654L7.97057 17.5334L8.85957 18.1196C8.53248 18.3408 8.14939 18.4946 7.72875 18.5759L7.41057 18.3654ZM7.01794 18.1064L6.07294 17.4836L6.63294 16.6504L7.5773 17.2731L7.01794 18.1064ZM2.69575 15.2574C2.61048 14.8477 2.60539 14.4367 2.68621 14.0472L3.56566 14.6277L3.00503 15.461L2.69575 15.2574ZM3.9583 14.8861L4.90266 15.5089L4.34266 16.3421L3.3983 15.72L3.9583 14.8861ZM5.93994 11.9376C6.33703 11.9716 6.73348 12.063 7.12039 12.2099L6.80857 12.6725L5.86421 12.0498L5.93994 11.9376ZM5.20939 12.1809L4.64875 13.0141L3.77057 12.4349C4.0983 12.213 4.48139 12.0592 4.90266 11.9786L5.20939 12.1809ZM5.60266 12.4393L6.54766 13.062L5.98703 13.8959L5.04203 13.2738L5.60266 12.4393ZM6.37966 14.155L6.93966 13.3217L7.8853 13.9445L7.32466 14.7784L6.37966 14.155ZM7.06312 15.1679L6.50248 16.0011L5.55748 15.3784L6.11812 14.5445L7.06312 15.1679ZM5.72485 14.2861L5.16485 15.1194L4.22048 14.4966L4.78112 13.6634L5.72485 14.2861ZM5.2953 15.7686L6.2403 16.3913L5.6803 17.2246L4.7353 16.6018L5.2953 15.7686ZM6.89512 16.2615L7.45512 15.4282L8.39948 16.0497L7.83885 16.8836L6.89512 16.2615ZM7.7173 15.0374L8.27794 14.2042L9.2223 14.8263L8.66166 15.6595L7.7173 15.0374ZM9.61557 15.0859L9.91721 15.2845C10.0069 15.7049 10.012 16.1127 9.93185 16.4978L9.05494 15.9198L9.61557 15.0859ZM9.57166 14.3075L9.48448 14.4367L8.54012 13.8146L8.85321 13.3495C9.13766 13.6426 9.38712 13.9609 9.57166 14.3075ZM8.50448 13.023L8.14685 13.5549L7.20185 12.9328L7.56203 12.3964C7.73257 12.4822 7.90121 12.5723 8.06221 12.6782C8.22066 12.7828 8.36194 12.9038 8.50448 13.023ZM3.39257 12.7488L4.38721 13.4043L3.82721 14.2382L2.83194 13.5814C2.89557 13.4276 2.97066 13.2763 3.06612 13.1345C3.16094 12.9927 3.27294 12.8673 3.39257 12.7488ZM3.05212 16.2344L3.13612 16.1102L4.08048 16.7323L3.76357 17.2044C3.47466 16.9037 3.23412 16.5772 3.05212 16.2344ZM4.11166 17.529L4.47312 16.9907L5.41812 17.6135L5.0573 18.1505C4.89057 18.0673 4.72575 17.9797 4.56857 17.875C4.4063 17.7685 4.25548 17.6506 4.11166 17.529ZM9.23757 17.8057L8.23275 17.1426L8.79275 16.3094L9.79375 16.9693C9.72948 17.125 9.65948 17.2775 9.56403 17.4193C9.46985 17.5599 9.35721 17.6866 9.23757 17.8057Z" fill="#273472"/>
<path d="M13.1803 10.1665C12.7037 11.0729 12.5471 12.0725 12.6782 13.0325C13.6646 12.8043 15.0652 13.1478 16.3901 14.0284C17.7144 14.9089 18.5665 16.0636 18.7262 17.0532C19.6725 16.8093 20.5488 16.2874 21.2138 15.5071C20.1459 14.6246 18.7918 13.6275 17.3237 12.6512C15.8499 11.6704 14.4149 10.8119 13.1803 10.1665Z" fill="#273472"/>
<path d="M22.3202 11.7507C21.3332 11.9789 19.9326 11.636 18.6077 10.7554C17.284 9.8749 16.4319 8.72019 16.2716 7.72998C15.1879 8.00857 14.1977 8.6559 13.5098 9.63287C14.7558 10.2878 16.1971 11.1506 17.6748 12.1333C19.146 13.1109 20.5059 14.1124 21.5871 15.0043C22.24 14.0028 22.4691 12.8506 22.3202 11.7507Z" fill="#273472"/>
<path d="M16.0392 14.5457C14.8721 13.7692 13.5975 13.4433 12.8008 13.64C13.0941 14.7279 13.7681 15.7187 14.7856 16.3957C15.8031 17.072 16.9849 17.3134 18.1125 17.1703C17.9941 16.3667 17.2063 15.3216 16.0392 14.5457Z" fill="#273472"/>
<path d="M18.959 10.2372C20.1261 11.0131 21.4007 11.3389 22.1968 11.1435C21.9028 10.0556 21.2302 9.06416 20.2133 8.38784C19.1938 7.71153 18.0134 7.47012 16.8857 7.61257C17.0041 8.41621 17.7913 9.46188 18.959 10.2372Z" fill="#273472"/>
<path d="M4.34672 9.24035C4.43263 8.6069 4.3569 7.91168 4.08899 7.23347C3.82362 6.56283 3.40426 5.99997 2.90344 5.58838C2.21808 6.53257 1.92981 7.44084 2.14553 7.98794C2.3619 8.53505 3.19553 9.00777 4.34672 9.24035Z" fill="#273472"/>
<path d="M13.2172 5.80383C13.9032 4.85964 14.1915 3.952 13.9751 3.4049C13.7587 2.85779 12.9251 2.38444 11.7739 2.15186C11.688 2.78594 11.7637 3.48053 12.0317 4.15874C12.2977 4.83064 12.7177 5.39287 13.2172 5.80383Z" fill="#273472"/>
<path d="M4.67511 7.00709C4.98438 7.78992 5.07092 8.59734 4.96656 9.33732C6.22911 9.48292 7.76338 9.35496 9.27411 8.77067C10.7861 8.18449 12.0016 7.2466 12.8295 6.2898C12.2421 5.81077 11.7521 5.16156 11.4454 4.38566C11.1361 3.60219 11.0496 2.79477 11.1539 2.0548C9.89138 1.90983 8.35711 2.03715 6.84638 2.62207C5.33438 3.20762 4.11956 4.14551 3.29102 5.10231C3.87902 5.58071 4.36838 6.23055 4.67511 7.00709ZM5.23956 4.07807C5.27902 3.99172 5.38083 3.95327 5.46738 3.99235C5.49538 4.00432 5.90074 4.19467 6.26411 4.66992C6.52183 4.50541 6.84256 4.3346 7.23011 4.17135C6.96411 3.88709 6.71592 3.76985 6.71147 3.76796C6.62492 3.72951 6.58547 3.62803 6.62493 3.54168C6.66374 3.4547 6.7662 3.41625 6.85338 3.45533C6.87883 3.46667 7.22883 3.63559 7.56929 4.0371C7.9982 3.88141 8.37683 3.78624 8.69693 3.73203C8.40229 3.37969 8.10256 3.23409 8.09747 3.2322C8.01029 3.19249 7.97147 3.09164 8.01029 3.00529C8.04974 2.91768 8.15283 2.87986 8.23874 2.91831C8.26802 2.93155 8.71665 3.14144 9.09402 3.67656C9.56747 3.6337 9.84747 3.67656 9.86783 3.68035C9.96138 3.69736 10.0237 3.78687 10.0072 3.87889C9.99002 3.97218 9.90156 4.03395 9.80674 4.01756C9.80292 4.0163 9.6152 3.98983 9.29192 4.00684C9.41665 4.25392 9.52038 4.54764 9.5732 4.90124C9.5872 4.99453 9.52229 5.08214 9.42747 5.09664C9.4192 5.0979 9.41029 5.09853 9.40138 5.09853C9.31738 5.09853 9.24356 5.03676 9.2302 4.9523C9.1742 4.57664 9.05329 4.28292 8.91329 4.0434C8.60338 4.08626 8.21838 4.1745 7.77738 4.32767C7.95874 4.61319 8.11656 4.97121 8.1872 5.43889C8.2012 5.53155 8.13565 5.61979 8.04147 5.63366C8.03383 5.63429 8.02556 5.63492 8.01729 5.63492C7.93329 5.63492 7.85883 5.57315 7.84611 5.48869C7.77929 5.04369 7.62274 4.70774 7.44838 4.44995C7.04174 4.61572 6.71338 4.79094 6.45247 4.9586C6.60774 5.22963 6.74074 5.55991 6.80311 5.97528C6.81711 6.06793 6.7522 6.15618 6.65738 6.17067C6.64847 6.1713 6.6402 6.17256 6.63129 6.17256C6.54729 6.17256 6.47347 6.1108 6.46074 6.0257C6.40729 5.67021 6.29656 5.38658 6.16738 5.15336C5.8002 5.42503 5.63156 5.63303 5.62838 5.63681C5.59402 5.68093 5.54247 5.70425 5.49029 5.70425C5.45338 5.70425 5.41711 5.6929 5.38592 5.66958C5.3102 5.61223 5.29429 5.5057 5.3522 5.43007C5.36556 5.41305 5.56029 5.17164 5.97774 4.86406C5.67483 4.4739 5.34774 4.31569 5.32547 4.30498C5.23892 4.2659 5.20011 4.16379 5.23956 4.07807Z" fill="#273472"/>
</svg>
