<svg width="24" height="24" viewBox="0 0 24 24" fill="none" xmlns="http://www.w3.org/2000/svg">
<path fill-rule="evenodd" clip-rule="evenodd" d="M13.7033 12.4454C14.2443 13.0534 14.6093 13.9697 14.6093 14.9669C14.6093 16.7025 13.5208 18.2259 12.2815 18.2259C11.3094 18.2259 10.4388 17.2845 10.1045 16.0433L8.66406 17.4837C9.58867 20.9978 11.3979 23.3471 12.2815 23.3471C13.4966 23.3471 16.4716 18.914 16.4716 13.1046C16.4716 12.0674 16.3757 10.9956 16.209 9.94067L13.7033 12.4454Z" fill="#273472"/>
<path fill-rule="evenodd" clip-rule="evenodd" d="M15.485 6.71247C14.5492 3.49449 13.1581 1 12.2819 1C10.861 1 8.0918 7.53466 8.0918 13.1047C8.0918 13.4343 8.10297 13.7574 8.12159 14.0758L15.485 6.71247Z" fill="#273472"/>
<path fill-rule="evenodd" clip-rule="evenodd" d="M22.8638 3.94422L20.2297 1.31192C20.0481 1.12942 19.7529 1.12942 19.5714 1.31192L16.9381 3.94422C16.1429 4.73941 16.0452 5.97036 16.642 6.87355L6.69664 16.8189C5.80183 16.2482 4.53736 16.3441 3.76918 17.1122L1.13688 19.7473C0.954375 19.928 0.954375 20.2222 1.13688 20.4047L3.76918 23.0389C3.95261 23.2204 4.24778 23.2186 4.42748 23.0389L7.06165 20.4047C7.85683 19.6095 7.95553 18.3786 7.35774 17.4744L17.2994 7.53279C18.1933 8.1222 19.4242 8.04305 20.2297 7.23576L22.8638 4.60346C23.0454 4.42003 23.0454 4.12579 22.8638 3.94422Z" fill="#273472"/>
</svg>
