<svg width="24" height="24" viewBox="0 0 24 24" fill="none" xmlns="http://www.w3.org/2000/svg">
<rect y="17.49" width="24" height="2.67448" rx="1" fill="#273472"/>
<path d="M19.8391 5.03011C19.8391 4.36999 19.299 3.83545 18.6348 3.83545H5.36543C4.69999 3.83545 4.16113 4.37057 4.16113 5.03011V13.6278H19.8391V5.03011ZM12.0001 4.41147C12.1598 4.41147 12.2904 4.5405 12.2904 4.69948C12.2904 4.85846 12.1598 4.98749 12.0001 4.98749C11.8404 4.98749 11.7098 4.85846 11.7098 4.69948C11.7098 4.5405 11.8404 4.41147 12.0001 4.41147ZM18.0971 12.4757H5.90312V5.56351H18.0971V12.4757Z" fill="#273472"/>
<path d="M19.8393 14.2037H4.16133L3 15.9318V16.4675C3 16.8085 3.27814 17.0838 3.62131 17.0838H20.3787C20.7219 17.0838 21 16.8079 21 16.4675V15.9318L19.8393 14.2037ZM5.32266 14.7798H18.6779L19.0501 15.3558H5.02303L5.32266 14.7798Z" fill="#273472"/>
</svg>
