<svg width="24" height="24" viewBox="0 0 24 24" fill="none" xmlns="http://www.w3.org/2000/svg">
<g clip-path="url(#clip0_11296_77343)">
<path d="M10.7927 11.799L2.25754 8.20529C2.13526 8.15379 2 8.24359 2 8.37629V17.9839C2 18.2266 2.14781 18.445 2.37325 18.5351L10.6518 21.8466C10.7737 21.8953 10.9062 21.8055 10.9062 21.6743V11.97C10.9062 11.8954 10.8615 11.828 10.7927 11.799Z" fill="#273472"/>
<path d="M11.572 10.7781L19.8219 7.30439C19.9702 7.24198 19.9742 7.03327 19.8284 6.96525L11.751 3.19583C11.5919 3.12157 11.408 3.12157 11.2489 3.19583L3.17154 6.96525C3.02574 7.03327 3.02971 7.24198 3.178 7.30439L11.428 10.7781C11.474 10.7975 11.5259 10.7975 11.572 10.7781Z" fill="#273472"/>
<path d="M12.0938 11.97V21.6743C12.0938 21.8055 12.2263 21.8953 12.3482 21.8466L20.6268 18.5351C20.8522 18.445 21 18.2266 21 17.9839V8.37629C21 8.24359 20.8647 8.15379 20.7425 8.20529L12.2073 11.799C12.1385 11.828 12.0938 11.8954 12.0938 11.97Z" fill="#273472"/>
</g>
<defs>
<clipPath id="clip0_11296_77343">
<rect width="19" height="19" fill="white" transform="translate(2 3)"/>
</clipPath>
</defs>
</svg>
