<svg width="24" height="24" viewBox="0 0 24 24" fill="none" xmlns="http://www.w3.org/2000/svg">
<g clip-path="url(#clip0_11296_77161)">
<path d="M6 11.2001C7.10457 11.2001 8 10.3046 8 9.20007C8 8.0955 7.10457 7.20007 6 7.20007C4.89543 7.20007 4 8.0955 4 9.20007C4 10.3046 4.89543 11.2001 6 11.2001Z" fill="#273472"/>
<path d="M9.59961 8C10.7042 8 11.5996 7.10457 11.5996 6C11.5996 4.89543 10.7042 4 9.59961 4C8.49504 4 7.59961 4.89543 7.59961 6C7.59961 7.10457 8.49504 8 9.59961 8Z" fill="#273472"/>
<path d="M14.4004 8C15.505 8 16.4004 7.10457 16.4004 6C16.4004 4.89543 15.505 4 14.4004 4C13.2958 4 12.4004 4.89543 12.4004 6C12.4004 7.10457 13.2958 8 14.4004 8Z" fill="#273472"/>
<path d="M18 11.2001C19.1046 11.2001 20 10.3046 20 9.20007C20 8.0955 19.1046 7.20007 18 7.20007C16.8954 7.20007 16 8.0955 16 9.20007C16 10.3046 16.8954 11.2001 18 11.2001Z" fill="#273472"/>
<path d="M16.2719 13.488C15.5759 12.672 14.9919 11.976 14.2879 11.16C13.9199 10.728 13.4479 10.296 12.8879 10.104C12.7999 10.072 12.7119 10.048 12.6239 10.032C12.4239 10 12.2079 10 11.9999 10C11.7919 10 11.5759 10 11.3679 10.04C11.2799 10.056 11.1919 10.08 11.1039 10.112C10.5439 10.304 10.0799 10.736 9.70392 11.168C9.00792 11.984 8.42392 12.68 7.71992 13.496C6.67192 14.544 5.38392 15.704 5.62392 17.328C5.85592 18.144 6.43992 18.952 7.48792 19.184C8.07192 19.304 9.93592 18.832 11.9199 18.832H12.0639C14.0479 18.832 15.9119 19.296 16.4959 19.184C17.5439 18.952 18.1279 18.136 18.3599 17.328C18.6079 15.696 17.3199 14.536 16.2719 13.488Z" fill="#273472"/>
</g>
<defs>
<clipPath id="clip0_11296_77161">
<rect width="24" height="24" fill="white"/>
</clipPath>
</defs>
</svg>
