<svg width="26" height="12" viewBox="0 0 26 12" fill="none" xmlns="http://www.w3.org/2000/svg">
<path d="M21.3501 6.96159C21.2367 6.96637 21.1163 6.96895 20.9878 6.96895C18.9905 6.96895 18.9313 6.35257 17.0485 6.31623C16.9912 6.31507 16.9325 6.31445 16.8718 6.31445C15.9881 6.31445 15.4841 6.43524 15.0336 6.57294C14.4348 6.75599 13.9304 6.96901 12.7564 6.96901C11.7497 6.96901 11.2355 6.81231 10.7319 6.6523C10.2192 6.48935 9.71615 6.32346 8.71694 6.31525C8.6914 6.315 8.667 6.31445 8.64083 6.31445C6.58315 6.31445 6.58315 6.96901 4.52546 6.96901C2.46784 6.96901 2.46784 6.31445 0.410156 6.31445V11.2032H25.1037V6.31445C24.2845 6.31445 23.7916 6.4182 23.3651 6.54304C22.7868 6.71224 22.3305 6.92029 21.3501 6.96159Z" fill="#273472"/>
<path d="M2.22656 0.492634V2.0223C2.22656 2.15038 2.33338 2.25413 2.46516 2.25413H8.71686V5.44234C9.6824 5.44988 10.2534 5.59733 10.7319 5.74575V2.25407H15.0335V5.67105C15.4775 5.54738 16.0263 5.44155 16.8718 5.44155C16.9324 5.44155 16.9908 5.44234 17.0484 5.44339V2.25407H21.3501V6.08795C22.0314 6.0567 22.4093 5.93708 22.8363 5.80127C23.001 5.74888 23.1727 5.69434 23.3651 5.64402V2.25413H25.1037V0.260742H2.46516C2.33344 0.260742 2.22656 0.364554 2.22656 0.492634Z" fill="#273472"/>
</svg>
