<svg width="24" height="24" viewBox="0 0 24 24" fill="none" xmlns="http://www.w3.org/2000/svg">
<g clip-path="url(#clip0_11296_77336)">
<path d="M13.5622 13.6331C13.2877 13.3586 12.8425 13.3586 12.5679 13.6331L10.9349 15.2661L8.73401 13.0651L10.3669 11.4322C10.6415 11.1577 10.6415 10.7124 10.3669 10.4378C10.0924 10.1633 9.64718 10.1633 9.37259 10.4378L7.73965 12.0708L7.17176 11.5029C7.17138 11.5025 6.63921 10.9704 6.63921 10.9704C6.36466 10.6959 5.91945 10.6959 5.64485 10.9704C5.37031 11.245 5.37031 11.6902 5.64485 11.9648L5.68015 12.0001L3.51471 14.1656C1.94145 15.7389 1.78924 18.2027 3.05702 19.9488L0.205945 22.7998C-0.0686484 23.0744 -0.0686484 23.5196 0.205945 23.7942C0.343289 23.9315 0.523195 24.0001 0.703148 24.0001C0.883102 24.0001 1.06305 23.9315 1.2003 23.7942L4.05082 20.9437C4.80888 21.4959 5.71877 21.7943 6.67465 21.7943C6.67474 21.7943 6.67465 21.7943 6.6747 21.7943C7.86823 21.7943 8.99046 21.3294 9.8344 20.4855L12.0001 18.3199L12.0354 18.3552C12.1728 18.4925 12.3527 18.5611 12.5326 18.5611C12.7125 18.5611 12.8925 18.4925 13.0298 18.3552C13.3043 18.0806 13.3043 17.6355 13.0297 17.3608L11.9293 16.2604L13.5622 14.6274C13.8368 14.3529 13.8368 13.9077 13.5622 13.6331Z" fill="#273472"/>
<path d="M23.7944 0.205945C23.5198 -0.0686484 23.0746 -0.0686484 22.8 0.205945L19.9495 3.05632C19.1914 2.50418 18.2815 2.20582 17.3255 2.20582C16.132 2.20582 15.0097 2.67073 14.1658 3.51466L12.0003 5.68024L11.9649 5.64485C11.6904 5.3703 11.2452 5.3703 10.9706 5.6449C10.696 5.91945 10.696 6.36466 10.9706 6.63926L17.361 13.0297C17.4984 13.167 17.6783 13.2356 17.8582 13.2356C18.0381 13.2356 18.2181 13.167 18.3553 13.0297C18.6299 12.7551 18.6299 12.3099 18.3553 12.0353L18.32 11.9999L20.4855 9.83454C22.0587 8.26137 22.2109 5.79762 20.9433 4.05134L23.7943 1.20035C24.0689 0.925758 24.0689 0.480586 23.7944 0.205945Z" fill="#273472"/>
</g>
<defs>
<clipPath id="clip0_11296_77336">
<rect width="24" height="24" fill="white"/>
</clipPath>
</defs>
</svg>
