<svg width="24" height="24" viewBox="0 0 24 24" fill="none" xmlns="http://www.w3.org/2000/svg">
<path d="M17.9688 16.4082C19.5318 16.4082 20.7988 15.1411 20.7988 13.5781C20.7988 12.0151 19.5318 10.748 17.9688 10.748C16.4057 10.748 15.1387 12.0151 15.1387 13.5781C15.1387 15.1411 16.4057 16.4082 17.9688 16.4082Z" fill="#273472"/>
<path d="M18.6875 9.58008C19.8536 9.58008 20.7988 8.6348 20.7988 7.46875C20.7988 6.3027 19.8536 5.35742 18.6875 5.35742C17.5214 5.35742 16.5762 6.3027 16.5762 7.46875C16.5762 8.6348 17.5214 9.58008 18.6875 9.58008Z" fill="#273472"/>
<path d="M2.87773 8.14287C2.46485 8.66612 2.21531 9.30567 2.20287 9.99594C2.20255 10.0139 2.20233 10.1501 2.20215 10.3884H13.6119C13.6119 10.2621 13.6119 10.1368 13.6119 10.0134C13.6119 9.31605 13.3726 8.67025 12.9671 8.14282H2.87773V8.14287Z" fill="#273472"/>
<path d="M2.20176 19.7324H13.6113C13.6113 17.0029 13.6113 14.1822 13.6113 11.7361H2.20122C2.20104 13.5084 2.2014 16.4544 2.20176 19.7324ZM6.10938 15.0605H7.23242V13.9374C7.23242 13.5653 7.53412 13.2636 7.90625 13.2636C8.27839 13.2636 8.58008 13.5653 8.58008 13.9374V15.0605H9.70313C10.0753 15.0605 10.377 15.3622 10.377 15.7343C10.377 16.1064 10.0753 16.4081 9.70313 16.4081H8.58008V17.5312C8.58008 17.9033 8.27839 18.205 7.90625 18.205C7.53412 18.205 7.23242 17.9033 7.23242 17.5312V16.4081H6.10938C5.73724 16.4081 5.43555 16.1064 5.43555 15.7343C5.43555 15.3622 5.73724 15.0605 6.10938 15.0605Z" fill="#273472"/>
<path d="M2.20228 22.4423C2.20228 23.243 3.01389 24.0001 3.87235 24.0001H11.9608C12.8247 24.0001 13.6116 23.2716 13.6116 22.4718C13.6116 22.0149 13.6116 21.55 13.6116 21.0803H2.20215C2.20219 21.5311 2.20224 21.9857 2.20228 22.4423Z" fill="#273472"/>
<path d="M12.9407 1C12.9336 1 10.2248 1.00584 6.23552 1.01442C5.86338 1.01523 5.56236 1.31755 5.56312 1.68969C5.56393 2.06137 5.8654 2.36208 6.23691 2.36208C6.27837 2.36208 6.55114 2.3614 7.23242 2.35992V3.91992H5.92969C5.26089 3.91992 4.7168 4.46402 4.7168 5.13281V6.79492H11.0957V5.13281C11.0957 4.46402 10.5516 3.91992 9.88281 3.91992H8.58008V2.35704L12.9389 2.34766C13.3635 2.34766 13.7012 2.68965 13.7012 3.10823C13.7012 3.48036 14.0029 3.78206 14.375 3.78206C14.7471 3.78206 15.0488 3.48036 15.0488 3.10823C15.0488 1.94781 14.1101 1 12.9407 1V1Z" fill="#273472"/>
</svg>
