<svg width="24" height="24" viewBox="0 0 24 24" fill="none" xmlns="http://www.w3.org/2000/svg">
<g clip-path="url(#clip0_11296_77339)">
<path d="M9.76892 2.73487C9.76892 1.22841 8.54331 0.00280762 7.0368 0.00280762C5.53029 0.00280762 4.30469 1.22841 4.30469 2.73487C4.30469 4.24105 5.52983 5.46646 7.03591 5.46693H7.03769C8.54378 5.46646 9.76892 4.24109 9.76892 2.73487Z" fill="#273472"/>
<path d="M11.4353 8.79089C11.4353 6.95815 9.94426 5.46716 8.11157 5.46716H7.73968V9.83938H6.33331V5.46716H5.96142C4.12868 5.46716 2.6377 6.9582 2.6377 8.79089V12.2154H11.4353V8.79089Z" fill="#273472"/>
<path d="M0.00275797 23.9971H24.0001V16.9034H0.000976562L0.00275797 23.9971Z" fill="#273472"/>
<path d="M0 13.6217L0.00046879 15.4971H24V13.6217H0Z" fill="#273472"/>
<path d="M14.5713 8.46106H22.3597V12.2153H14.5713V8.46106Z" fill="#273472"/>
</g>
<defs>
<clipPath id="clip0_11296_77339">
<rect width="24" height="24" fill="white"/>
</clipPath>
</defs>
</svg>
