<svg width="24" height="24" viewBox="0 0 24 24" fill="none" xmlns="http://www.w3.org/2000/svg">
<path d="M3.39294 12.6308C2.90347 12.1869 2.64002 11.7494 2.5709 11.6261C2.46821 11.4372 2.44536 11.2265 2.50344 11.0266C2.56151 10.8268 2.69302 10.6617 2.87399 10.5615C2.9875 10.4988 3.11558 10.4656 3.24454 10.4656C3.52577 10.4656 3.78513 10.6197 3.92138 10.8679L3.93452 10.8898L3.94192 10.902C3.95915 10.9296 3.99006 10.9769 4.03213 11.0342C4.11185 11.1433 4.24424 11.307 4.42466 11.4696C4.43415 11.4782 4.44409 11.4853 4.45369 11.4936C4.66183 10.8487 4.47622 10.1139 3.89489 9.88869C3.23449 9.63307 2.1786 9.82542 1.58633 10.8341C0.780964 12.2258 0.495652 13.1668 0.420349 14.8181C0.462638 15.9194 1.18354 16.2262 1.86988 16.3475L2.54826 17.1324H0.883319C0.395396 17.1324 0 17.5314 0 18.0235C0 18.5158 0.395396 18.9148 0.883319 18.9148L4.49024 18.9146C4.8365 18.9146 5.15085 18.7103 5.29417 18.3925C5.43771 18.0745 5.3835 17.7012 5.15593 17.4381L3.27601 15.263C3.3257 14.5034 3.57369 13.7088 3.8473 12.989C3.6735 12.8708 3.52179 12.748 3.39294 12.6308Z" fill="#273472"/>
<path d="M3.85503 11.1667C3.80877 11.1035 3.77498 11.0517 3.754 11.0183C3.74362 11.0016 3.73622 10.9893 3.73236 10.9823C3.73026 10.9789 3.72916 10.9766 3.72871 10.9758C3.58153 10.7078 3.24709 10.6095 2.98043 10.7569C2.71312 10.9047 2.61474 11.243 2.76137 11.5128C2.78136 11.5479 3.02714 11.9991 3.54123 12.4655C4.05046 12.9287 4.85804 13.4127 5.93271 13.4127C5.93403 13.4127 5.93525 13.4127 5.93657 13.4127C6.44856 13.413 7.01157 13.3032 7.61388 13.0502C7.89533 12.9321 8.02871 12.6064 7.91167 12.3222C7.79452 12.0382 7.47156 11.9038 7.19011 12.022C6.70627 12.2246 6.29321 12.2986 5.93657 12.2988C5.19602 12.2978 4.65929 11.9773 4.27803 11.6359C4.08977 11.466 3.94734 11.2931 3.85503 11.1667Z" fill="#273472"/>
<path d="M7.54906 8.54039C7.71756 7.47737 6.99987 6.47784 5.94605 6.30786C4.89223 6.13789 3.90134 6.86184 3.73284 7.92485C3.56433 8.98787 4.28202 9.9874 5.33584 10.1574C6.38966 10.3273 7.38055 9.6034 7.54906 8.54039Z" fill="#273472"/>
<path d="M16.1348 14.2616C16.5551 13.9841 16.7974 13.6963 16.8075 13.6841C16.9537 13.5033 17.1723 13.3988 17.4056 13.3988C17.5818 13.3988 17.7544 13.4602 17.8916 13.5724C18.2227 13.8432 18.2739 14.3351 18.006 14.669C17.9281 14.7641 17.6709 15.0599 17.2391 15.3844C17.304 15.3949 17.3697 15.4029 17.4361 15.4055C18.2167 15.5103 19.2647 15.6102 20.2113 15.9039L18.853 17.428C18.6195 17.6898 18.5609 18.0647 18.703 18.3864C18.8452 18.7079 19.1609 18.9148 19.5099 18.9148H23.1168C23.6045 18.9148 24 18.5157 24 18.0237C24 17.5316 23.6044 17.1326 23.1168 17.1326H21.4917L22.0859 16.4662C22.1139 16.4348 22.1383 16.4014 22.1612 16.3672C22.3199 16.2435 22.4256 16.0168 22.5488 15.7115C22.8301 15.0143 23.0448 14.1301 22.0252 13.4883C20.5666 12.7347 19.6152 12.5179 18.0175 12.5327C16.8554 12.5509 16.1661 13.3802 16.0585 14.0854C16.0468 14.1626 16.0465 14.2381 16.0533 14.3118C16.0803 14.2948 16.1078 14.2794 16.1348 14.2616Z" fill="#273472"/>
<path d="M17.7526 13.7455C17.516 13.5525 17.1695 13.5887 16.9774 13.8264V13.8263L16.976 13.8277L16.9761 13.8278H16.9762L16.9763 13.8279C16.9762 13.8279 16.9762 13.8279 16.9762 13.8279L16.9761 13.8278C16.9541 13.8544 16.6938 14.1587 16.2558 14.4479C15.8046 14.7463 15.1788 15.026 14.411 15.0258C13.9919 15.0256 13.5248 14.9438 13.0014 14.7249C12.7199 14.607 12.3968 14.7412 12.2797 15.0254C12.1627 15.3094 12.2961 15.6355 12.5776 15.7534C13.2267 16.0257 13.8442 16.1397 14.4074 16.1397C14.4086 16.1397 14.4097 16.1397 14.4109 16.1397C15.4846 16.1395 16.3399 15.7355 16.9168 15.3419C17.4956 14.9466 17.8102 14.5577 17.8339 14.5287C18.0258 14.2897 17.9893 13.9391 17.7526 13.7455Z" fill="#273472"/>
<path d="M14.3953 13.7219C15.4491 13.5519 16.1668 12.5524 15.9983 11.4894C15.8298 10.4264 14.8389 9.70244 13.7851 9.87241C12.7312 10.0424 12.0136 11.0419 12.1821 12.1049C12.3506 13.1679 13.3414 13.8919 14.3953 13.7219Z" fill="#273472"/>
<path d="M8.79628 17.1328H7.06641V18.8779H8.79628V17.1328Z" fill="#273472"/>
<path d="M11.6307 16.0931H8.31836V16.7984H11.6307V16.0931Z" fill="#273472"/>
<path d="M11.0047 15.0721H7.69238V15.7776H11.0047V15.0721Z" fill="#273472"/>
<path d="M10.9309 17.1328H9.20117V18.8779H10.9309V17.1328Z" fill="#273472"/>
<path d="M13.0659 17.1328H11.3359V18.8779H13.0659V17.1328Z" fill="#273472"/>
<path d="M10.3422 12.1206H9.67974L8.74121 14.6823H11.2808L10.3422 12.1206Z" fill="#273472"/>
</svg>
