<svg width="24" height="24" viewBox="0 0 24 24" fill="none" xmlns="http://www.w3.org/2000/svg">
<path d="M19.7441 13.8156C19.9688 13.5859 20.0926 13.2829 20.0926 12.9625C20.0926 12.2957 19.5548 11.7533 18.894 11.7533H17.4002L16.615 10.0098C16.0011 8.64198 14.643 7.75806 13.1549 7.75806H10.0439H6.95612C5.46802 7.75806 4.10964 8.64198 3.49623 10.0092L2.71492 11.744H1.21003C0.88619 11.744 0.58213 11.871 0.35512 12.1002C0.12604 12.3282 0 12.6345 0 12.9625C0 13.6355 0.5428 14.1831 1.21026 14.1831H1.6192C1.3478 14.8204 1.20336 15.5124 1.20336 16.1913V20.0724C1.20336 20.2893 1.35079 20.4698 1.54974 20.5218V22.0247C1.54974 22.5977 2.01181 23.0636 2.57968 23.0636H3.59812C4.16737 23.0636 4.63036 22.5975 4.63036 22.0247V20.3053H10.0439C10.048 20.3053 10.0512 20.3032 10.0554 20.303C10.0593 20.3032 10.063 20.3053 10.0669 20.3053H15.4804V22.0247C15.4804 22.5977 15.9445 23.0636 16.5149 23.0636H17.5313C18.0994 23.0636 18.5612 22.5975 18.5612 22.0247V20.5218C18.7602 20.4698 18.9076 20.2891 18.9076 20.0724V16.1913C18.9076 15.5036 18.7616 14.8069 18.4869 14.1715H18.8936C19.2117 14.1715 19.5127 14.046 19.7441 13.8156ZM4.45487 18.0549C3.76901 18.0549 3.21241 17.4935 3.21241 16.8016C3.21241 16.1075 3.76901 15.5507 4.45487 15.5507C5.14073 15.5507 5.69963 16.1075 5.69963 16.8016C5.69963 17.4935 5.14073 18.0549 4.45487 18.0549ZM15.6559 18.0549C14.97 18.0549 14.4134 17.4935 14.4134 16.8016C14.4134 16.1075 14.97 15.5507 15.6559 15.5507C16.344 15.5507 16.8983 16.1075 16.8983 16.8016C16.8986 17.4935 16.3443 18.0549 15.6559 18.0549ZM12.1631 13.7061L14.0381 11.8148C14.2184 11.6329 14.2184 11.3378 14.0381 11.1559C13.8577 10.974 13.5652 10.974 13.3849 11.1559L11.0915 13.4692C11.0283 13.533 10.9885 13.6112 10.9696 13.6931C9.69036 13.6829 8.41064 13.6926 7.13253 13.7221L9.01991 11.8143C9.20023 11.6322 9.2 11.3374 9.01922 11.1555C8.8389 10.9736 8.54634 10.9738 8.36602 11.1562L6.07729 13.4694C5.99909 13.5485 5.95677 13.6492 5.94665 13.7522C4.88175 13.787 3.81892 13.8376 2.75862 13.8998L4.33757 10.394C4.80194 9.35886 5.82981 8.69 6.95612 8.69H10.0439C10.0478 8.69 10.0515 8.68884 10.0554 8.68884C10.0593 8.68884 10.063 8.69 10.0669 8.69H13.1546C14.2807 8.69 15.3086 9.35886 15.7734 10.3947L17.3556 13.9077C15.6306 13.8042 13.8982 13.7365 12.1631 13.7061Z" fill="#273472"/>
<path fill-rule="evenodd" clip-rule="evenodd" d="M16.2721 6.44647C16.4348 6.48048 16.622 6.5557 16.7365 6.7294C16.8239 6.86199 16.7873 7.04033 16.6547 7.12775C16.5228 7.2147 16.3456 7.17892 16.2577 7.04802C16.255 7.04558 16.2323 7.0257 16.1544 7.00941C16.0607 6.98983 15.9282 6.98453 15.759 6.99595C15.4223 7.01868 15.0062 7.10237 14.6036 7.19508C14.0502 7.32246 13.8868 7.53693 13.8319 7.68221C13.7678 7.85199 13.8056 8.03874 13.848 8.18825C13.8913 8.34104 13.8025 8.50001 13.6497 8.54331C13.4969 8.58662 13.338 8.49786 13.2947 8.34507C13.2494 8.18544 13.1586 7.8373 13.294 7.47896C13.4386 7.09613 13.8029 6.78926 14.4745 6.63463C14.879 6.54152 15.3339 6.44824 15.7203 6.42215C15.9127 6.40916 16.1046 6.41148 16.2721 6.44647Z" fill="#273472"/>
<path fill-rule="evenodd" clip-rule="evenodd" d="M14.2528 8.67554C13.8679 8.58652 13.5799 8.33915 13.4349 8.14847C13.3369 8.01962 13.3585 7.83953 13.4832 7.74623C13.6078 7.65293 13.7883 7.68175 13.8862 7.81061C13.9645 7.91353 14.1389 8.06314 14.3605 8.11441C14.562 8.16102 14.8457 8.13682 15.1866 7.82418C15.5392 7.50088 15.6638 7.25963 15.7034 7.09576C15.7411 6.93948 15.7104 6.81927 15.6666 6.70349C15.6096 6.55289 15.6833 6.38925 15.8312 6.33798C15.9792 6.28672 16.1453 6.36724 16.2023 6.51783C16.2668 6.68838 16.3376 6.93789 16.2616 7.25229C16.1875 7.55911 15.9831 7.8895 15.583 8.25639C15.1244 8.67697 14.6577 8.7692 14.2528 8.67554Z" fill="#273472"/>
<path d="M17.9442 8.70978L23.7037 6.95328C23.9236 6.88619 24.0487 6.65131 23.9816 6.43134L22.9997 3.21163C22.9326 2.99165 22.6977 2.86656 22.4778 2.93365L16.7122 4.67016C16.6122 4.70065 16.5244 4.77114 16.4688 4.87553L15.343 6.9894C15.2318 7.19817 15.318 7.4451 15.5137 7.54935L17.6146 8.66823C17.719 8.72383 17.8311 8.73333 17.9442 8.70978ZM17.0176 6.42404C17.2863 6.51694 17.39 6.8569 17.2188 7.08398C17.1093 7.22666 16.9094 7.28765 16.7389 7.23035C16.4701 7.13746 16.3664 6.79749 16.5376 6.57041C16.6471 6.42773 16.8471 6.36674 17.0176 6.42404Z" fill="#273472"/>
<path d="M21.0808 6.11655C21.1362 6.29821 21.1194 6.47088 21.0304 6.63457C20.9436 6.79757 20.7983 6.92753 20.5946 7.02445L20.6601 7.23903C20.676 7.29126 20.6729 7.33811 20.6509 7.37961C20.6295 7.42337 20.5927 7.45322 20.5404 7.46915C20.4882 7.48509 20.441 7.48088 20.3988 7.45652C20.3573 7.43443 20.3286 7.39728 20.3127 7.34505L20.2493 7.13728C20.1164 7.16543 19.982 7.17664 19.8463 7.17091C19.7105 7.16519 19.5876 7.14064 19.4775 7.09728C19.4418 7.08585 19.4144 7.06938 19.3954 7.04786C19.3765 7.02635 19.3614 6.99743 19.3503 6.9611C19.3358 6.91342 19.3366 6.86725 19.3528 6.8226C19.3712 6.77727 19.3986 6.74905 19.4349 6.73797C19.4576 6.73104 19.4794 6.72934 19.5004 6.73288C19.5229 6.73346 19.5528 6.73798 19.5901 6.74644C19.7154 6.78269 19.8328 6.80146 19.9424 6.80276C20.0543 6.80337 20.1659 6.78669 20.2771 6.75274C20.4293 6.70631 20.5372 6.64111 20.6009 6.55713C20.6669 6.47245 20.6829 6.37448 20.649 6.26322C20.6289 6.19737 20.5899 6.15094 20.532 6.12392C20.4741 6.09691 20.4077 6.08244 20.3326 6.08053C20.2569 6.07634 20.1528 6.07706 20.0205 6.08268C19.8371 6.09151 19.6854 6.09064 19.5655 6.08006C19.4449 6.06722 19.3322 6.02716 19.2272 5.95989C19.1223 5.89263 19.0463 5.78179 18.9992 5.62738C18.9431 5.44346 18.9611 5.26669 19.0533 5.09707C19.1455 4.92745 19.2935 4.79418 19.4972 4.69726L19.4317 4.48268C19.4158 4.43045 19.4189 4.38359 19.441 4.3421C19.4623 4.29834 19.4992 4.26849 19.5514 4.25256C19.6036 4.23662 19.6508 4.24083 19.693 4.26519C19.7345 4.28728 19.7632 4.32443 19.7791 4.37666L19.8436 4.58783C20.0819 4.54736 20.3048 4.56996 20.5121 4.65562C20.5791 4.67986 20.6226 4.7249 20.6427 4.79075C20.6573 4.83844 20.6553 4.88495 20.6369 4.93029C20.6207 4.97493 20.5933 5.00315 20.5547 5.01493C20.5343 5.02116 20.5128 5.02399 20.4903 5.02342C20.4701 5.02215 20.4409 5.01615 20.4029 5.00541C20.2897 4.96797 20.1863 4.94618 20.0925 4.94003C20.0004 4.93091 19.8976 4.94368 19.784 4.97832C19.6433 5.02128 19.5406 5.08737 19.4759 5.17659C19.4106 5.26354 19.3946 5.36151 19.4279 5.4705C19.4507 5.54543 19.4933 5.59946 19.5555 5.6326C19.6171 5.66346 19.688 5.68029 19.7683 5.68309C19.8486 5.6859 19.956 5.68414 20.0906 5.67782C20.2688 5.66811 20.4167 5.66888 20.5343 5.68015C20.652 5.69142 20.7606 5.73025 20.8603 5.79663C20.9616 5.86005 21.0351 5.96669 21.0808 6.11655Z" fill="white"/>
</svg>
