<svg width="24" height="24" viewBox="0 0 24 24" fill="none" xmlns="http://www.w3.org/2000/svg">
<g clip-path="url(#clip0_11296_79451)">
<path d="M2 17H22V19H2V17ZM13.84 7.79C13.94 7.55 14 7.28 14 7C14 5.9 13.1 5 12 5C10.9 5 10 5.9 10 7C10 7.28 10.06 7.55 10.16 7.79C6.25 8.6 3.27 11.93 3 16H21C20.73 11.93 17.75 8.6 13.84 7.79Z" fill="#273472"/>
<rect x="8" y="14" width="16" height="10" rx="2" fill="#F0F0F0"/>
<path d="M10.064 22C9.89333 22 9.768 21.9627 9.688 21.888C9.61333 21.808 9.576 21.6933 9.576 21.544C9.576 21.4533 9.6 21.3653 9.648 21.28C9.696 21.1947 9.76533 21.104 9.856 21.008L11.464 19.296C11.7093 19.04 11.8853 18.808 11.992 18.6C12.0987 18.3867 12.152 18.1733 12.152 17.96C12.152 17.6933 12.0667 17.4907 11.896 17.352C11.7307 17.2133 11.488 17.144 11.168 17.144C10.9867 17.144 10.8053 17.1707 10.624 17.224C10.4427 17.272 10.2587 17.3573 10.072 17.48C9.976 17.544 9.88533 17.5707 9.8 17.56C9.72 17.5493 9.648 17.5147 9.584 17.456C9.52533 17.3973 9.48533 17.3253 9.464 17.24C9.44267 17.1547 9.44533 17.0693 9.472 16.984C9.504 16.8933 9.568 16.816 9.664 16.752C9.89333 16.5973 10.1493 16.48 10.432 16.4C10.72 16.32 11.008 16.28 11.296 16.28C11.7013 16.28 12.0427 16.3413 12.32 16.464C12.5973 16.5867 12.808 16.7653 12.952 17C13.096 17.2347 13.168 17.52 13.168 17.856C13.168 18.08 13.1307 18.2987 13.056 18.512C12.9867 18.7253 12.8773 18.9413 12.728 19.16C12.584 19.3787 12.3947 19.6107 12.16 19.856L10.656 21.424V21.152H13.008C13.152 21.152 13.2613 21.1867 13.336 21.256C13.4107 21.3253 13.448 21.4293 13.448 21.568C13.448 21.7067 13.4107 21.8133 13.336 21.888C13.2613 21.9627 13.152 22 13.008 22H10.064ZM17.1009 22.064C16.9409 22.064 16.8155 22.0213 16.7249 21.936C16.6342 21.8453 16.5889 21.7173 16.5889 21.552V20.928H14.6129C14.4475 20.928 14.3142 20.8933 14.2129 20.824C14.1169 20.7547 14.0689 20.6453 14.0689 20.496C14.0689 20.4107 14.0902 20.3173 14.1329 20.216C14.1809 20.1147 14.2635 19.9813 14.3809 19.816L16.5729 16.64C16.6475 16.528 16.7302 16.4427 16.8209 16.384C16.9115 16.3253 17.0155 16.296 17.1329 16.296C17.2715 16.296 17.3862 16.3387 17.4769 16.424C17.5675 16.504 17.6129 16.632 17.6129 16.808V20.08H18.0049C18.1595 20.08 18.2742 20.1173 18.3489 20.192C18.4289 20.2613 18.4689 20.3653 18.4689 20.504C18.4689 20.6427 18.4289 20.7493 18.3489 20.824C18.2742 20.8933 18.1595 20.928 18.0049 20.928H17.6129V21.552C17.6129 21.7173 17.5675 21.8453 17.4769 21.936C17.3862 22.0213 17.2609 22.064 17.1009 22.064ZM16.5889 20.08V17.584H16.8209L14.9329 20.352V20.08H16.5889ZM19.6098 22.064C19.4498 22.064 19.3271 22.0213 19.2418 21.936C19.1564 21.8453 19.1138 21.7173 19.1138 21.552V16.8C19.1138 16.6347 19.1564 16.5093 19.2418 16.424C19.3271 16.3387 19.4498 16.296 19.6098 16.296C19.7698 16.296 19.8924 16.3387 19.9778 16.424C20.0684 16.5093 20.1138 16.6347 20.1138 16.8V18.872H20.0018C20.1191 18.5893 20.3004 18.376 20.5458 18.232C20.7964 18.0827 21.0791 18.008 21.3938 18.008C21.7084 18.008 21.9671 18.0667 22.1698 18.184C22.3724 18.3013 22.5244 18.48 22.6258 18.72C22.7271 18.9547 22.7778 19.2533 22.7778 19.616V21.552C22.7778 21.7173 22.7351 21.8453 22.6498 21.936C22.5644 22.0213 22.4418 22.064 22.2818 22.064C22.1218 22.064 21.9964 22.0213 21.9058 21.936C21.8204 21.8453 21.7778 21.7173 21.7778 21.552V19.664C21.7778 19.36 21.7191 19.1387 21.6018 19C21.4898 18.8613 21.3138 18.792 21.0738 18.792C20.7804 18.792 20.5458 18.8853 20.3698 19.072C20.1991 19.2533 20.1138 19.496 20.1138 19.8V21.552C20.1138 21.8933 19.9458 22.064 19.6098 22.064Z" fill="#273472"/>
</g>
<defs>
<clipPath id="clip0_11296_79451">
<rect width="24" height="24" fill="white"/>
</clipPath>
</defs>
</svg>
