<svg width="24" height="24" viewBox="0 0 24 24" fill="none" xmlns="http://www.w3.org/2000/svg">
<path d="M12 0C9.62663 0 7.30655 0.703787 5.33316 2.02236C3.35977 3.34094 1.8217 5.21508 0.913451 7.40779C0.0051996 9.60051 -0.232441 12.0133 0.230582 14.3411C0.693604 16.6689 1.83649 18.807 3.51472 20.4853C5.19295 22.1635 7.33115 23.3064 9.65892 23.7694C11.9867 24.2324 14.3995 23.9948 16.5922 23.0866C18.7849 22.1783 20.6591 20.6402 21.9776 18.6668C23.2962 16.6934 24 14.3734 24 12C24 10.4241 23.6896 8.8637 23.0866 7.40779C22.4835 5.95189 21.5996 4.62902 20.4853 3.51472C19.371 2.40041 18.0481 1.5165 16.5922 0.913444C15.1363 0.310388 13.5759 0 12 0ZM14.1522 12.2883V17.9704H9.91013V12.2883C9.3231 11.8439 8.89045 11.2264 8.67327 10.5229C8.45608 9.81945 8.46533 9.06551 8.69971 8.36756C8.93408 7.6696 9.38174 7.06289 9.9795 6.63306C10.5773 6.20323 11.2949 5.97199 12.0312 5.97199C12.7674 5.97199 13.4851 6.20323 14.0828 6.63306C14.6806 7.06289 15.1283 7.6696 15.3626 8.36756C15.597 9.06551 15.6063 9.81945 15.3891 10.5229C15.1719 11.2264 14.7392 11.8439 14.1522 12.2883Z" fill="#273472"/>
</svg>
