<svg width="24" height="24" viewBox="0 0 24 24" fill="none" xmlns="http://www.w3.org/2000/svg">
<path fill-rule="evenodd" clip-rule="evenodd" d="M8.27067 19.8163L4.14859 15.6926L3.85374 15.9874C3.30318 16.5371 3 17.2701 3 18.0489C3 18.8277 3.30318 19.5589 3.85374 20.1103C4.40346 20.6609 5.13559 20.9649 5.91436 20.9649C6.69397 20.9649 7.42527 20.6609 7.97582 20.1112L8.27067 19.8163V19.8172V19.8163Z" fill="#273472"/>
<path fill-rule="evenodd" clip-rule="evenodd" d="M9.44812 18.6377L5.3252 14.5148L4.73716 15.1028L4.73633 15.1036L8.85925 19.2274L9.44812 18.6377Z" fill="#273472"/>
<path fill-rule="evenodd" clip-rule="evenodd" d="M7.08588 15.0977L14.3705 5.30684L13.9224 3.32451C13.8766 3.12045 13.69 2.97719 13.476 3.00301L9.98025 3.33367C9.822 3.34867 9.68623 3.45195 9.62959 3.59937L5.75488 13.7651L7.08588 15.0977Z" fill="#273472"/>
<path fill-rule="evenodd" clip-rule="evenodd" d="M8.31132 16.3226L17.9898 9.13295L17.4367 6.83494C17.4001 6.68168 17.2793 6.56258 17.1252 6.52676L14.8855 6.00952L7.68164 15.693L8.31132 16.3226Z" fill="#273472"/>
<path fill-rule="evenodd" clip-rule="evenodd" d="M20.6745 10.0784L18.7113 9.63525L8.90625 16.9182L10.2339 18.2459L20.4004 14.3704C20.5487 14.3146 20.652 14.1788 20.6661 14.0205L20.9976 10.524C21.0176 10.3157 20.8794 10.125 20.6745 10.0784Z" fill="#273472"/>
</svg>
