<svg width="24" height="24" viewBox="0 0 24 24" fill="none" xmlns="http://www.w3.org/2000/svg">
<path fill-rule="evenodd" clip-rule="evenodd" d="M18 0.5H6C5.724 0.5 5.5 0.723 5.5 1V3C5.5 3.276 5.724 3.5 6 3.5H18C18.276 3.5 18.5 3.276 18.5 3V1C18.5 0.723 18.276 0.5 18 0.5Z" fill="#273472"/>
<path fill-rule="evenodd" clip-rule="evenodd" d="M11.3461 13.5C11.7331 14.759 12.4821 17.065 11.3461 18.885C11.1021 18.617 10.1931 17.347 10.1931 17.347C10.1931 17.347 9.03809 18.968 9.03809 20.04C9.03809 21.942 10.5821 23.5 12.5001 23.5C14.4281 23.5 15.9611 21.936 15.9611 20.04C15.9611 17.248 14.0181 14.394 11.3461 13.5Z" fill="#273472"/>
<path fill-rule="evenodd" clip-rule="evenodd" d="M12 8C12.276 8 12.5 7.776 12.5 7.5V5.5C12.5 5.223 12.276 5 12 5C11.724 5 11.5 5.223 11.5 5.5V7.5C11.5 7.776 11.724 8 12 8Z" fill="#273472"/>
<path fill-rule="evenodd" clip-rule="evenodd" d="M11.5 11.5C11.5 11.776 11.724 12 12 12C12.276 12 12.5 11.776 12.5 11.5V9.5C12.5 9.223 12.276 9 12 9C11.724 9 11.5 9.223 11.5 9.5V11.5Z" fill="#273472"/>
<path fill-rule="evenodd" clip-rule="evenodd" d="M15.0705 6.03472C15.0015 5.76772 14.7325 5.60572 14.4615 5.67472C14.1945 5.74272 14.0335 6.01472 14.1015 6.28272L14.5995 8.21972C14.6695 8.48972 14.9455 8.64772 15.2095 8.57972C15.4755 8.51072 15.6365 8.23872 15.5685 7.97172L15.0705 6.03472Z" fill="#273472"/>
<path fill-rule="evenodd" clip-rule="evenodd" d="M14.667 10.6705C14.399 10.7385 14.238 11.0105 14.307 11.2775L14.805 13.2165C14.875 13.4865 15.152 13.6435 15.413 13.5755C15.681 13.5065 15.842 13.2335 15.773 12.9665L15.275 11.0285C15.206 10.7615 14.93 10.6015 14.667 10.6705Z" fill="#273472"/>
<path fill-rule="evenodd" clip-rule="evenodd" d="M17.7971 9.28074C17.7281 9.01274 17.4511 8.85174 17.1891 8.91974C16.9211 8.98874 16.7601 9.26074 16.8281 9.52774L17.3261 11.4667C17.3911 11.7167 17.6411 11.8937 17.9351 11.8267C18.2021 11.7567 18.3631 11.4837 18.2951 11.2167L17.7971 9.28074Z" fill="#273472"/>
<path fill-rule="evenodd" clip-rule="evenodd" d="M6.87392 8.91935C6.61192 8.85235 6.33492 9.01335 6.26592 9.28035L5.76792 11.2164C5.69892 11.4834 5.85992 11.7564 6.12792 11.8274C6.42192 11.8934 6.67092 11.7164 6.73592 11.4664L7.23392 9.52735C7.30292 9.26035 7.14192 8.98835 6.87392 8.91935Z" fill="#273472"/>
<path fill-rule="evenodd" clip-rule="evenodd" d="M9.427 8.21682L9.904 6.27382C9.971 6.00682 9.807 5.73582 9.538 5.67082C9.267 5.59882 8.999 5.76782 8.934 6.03482L8.456 7.97782C8.39 8.24582 8.554 8.51682 8.823 8.58282C9.08 8.64782 9.36 8.49182 9.427 8.21682Z" fill="#273472"/>
<path fill-rule="evenodd" clip-rule="evenodd" d="M9.27466 13.2144L9.75266 11.2724C9.81866 11.0044 9.65466 10.7344 9.38566 10.6674C9.11466 10.5974 8.84666 10.7654 8.78166 11.0324L8.30366 12.9754C8.23766 13.2434 8.40166 13.5154 8.67066 13.5804C8.93066 13.6474 9.20766 13.4864 9.27466 13.2144Z" fill="#273472"/>
</svg>
