<svg width="24" height="24" viewBox="0 0 24 24" fill="none" xmlns="http://www.w3.org/2000/svg">
<path fill-rule="evenodd" clip-rule="evenodd" d="M6.47852 6.2259L6.81051 9.97254L8.56716 10.8312L11.6758 8.56522V6.38723L8.29183 4.91858C7.62584 5.26791 7.01718 5.71124 6.47852 6.2259Z" fill="#273472"/>
<path fill-rule="evenodd" clip-rule="evenodd" d="M12.3418 8.56515L15.5231 10.8838L17.2071 9.97914L17.5538 6.25517C17.0164 5.73517 16.4091 5.28918 15.7431 4.93518L12.3418 6.38917V8.56515Z" fill="#273472"/>
<path fill-rule="evenodd" clip-rule="evenodd" d="M8.32744 11.4571L6.57813 10.6018L4.13281 13.4131C4.26548 14.1518 4.50081 14.8544 4.82214 15.5091L8.48278 16.3264L9.5281 15.1604L8.32744 11.4571Z" fill="#273472"/>
<path fill-rule="evenodd" clip-rule="evenodd" d="M17.8682 10.0748L19.9768 12.4628C19.9855 12.3088 20.0001 12.1561 20.0001 12.0001C20.0001 10.0662 19.3102 8.29017 18.1628 6.90552L17.8682 10.0748Z" fill="#273472"/>
<path fill-rule="evenodd" clip-rule="evenodd" d="M15.6542 11.5698L14.4922 15.1604L15.5328 16.3231L19.2081 15.4457C19.5221 14.7931 19.7495 14.0924 19.8761 13.3571L17.4468 10.6064L15.6542 11.5698Z" fill="#273472"/>
<path fill-rule="evenodd" clip-rule="evenodd" d="M6.14998 10.0779L5.86598 6.87329C4.70266 8.26261 4 10.0506 4 11.9999C4 12.1752 4.01533 12.3459 4.026 12.5179L6.14998 10.0779Z" fill="#273472"/>
<path fill-rule="evenodd" clip-rule="evenodd" d="M15.6321 16.9842L13.9941 19.7382C16.0008 19.2202 17.7014 17.9462 18.7748 16.2349L15.6321 16.9842Z" fill="#273472"/>
<path fill-rule="evenodd" clip-rule="evenodd" d="M15.0056 16.7331L13.9663 15.5731H10.0517L9.01367 16.7331L10.9343 19.9204C11.2837 19.9678 11.637 19.9997 11.9996 19.9997C12.379 19.9997 12.749 19.9644 13.115 19.9131L15.0056 16.7331Z" fill="#273472"/>
<path fill-rule="evenodd" clip-rule="evenodd" d="M15.0258 11.3464L12.0085 9.14709L8.99121 11.3464L10.1459 14.9064H13.8732L15.0258 11.3464Z" fill="#273472"/>
<path fill-rule="evenodd" clip-rule="evenodd" d="M12.0103 5.80598L14.9229 4.56066C14.0163 4.20333 13.0323 4 12.0003 4C10.981 4 10.0096 4.19933 9.1123 4.548L12.0103 5.80598Z" fill="#273472"/>
<path fill-rule="evenodd" clip-rule="evenodd" d="M8.38876 16.9883L5.25879 16.2889C6.34278 17.9876 8.04743 19.2462 10.0534 19.7509L8.38876 16.9883Z" fill="#273472"/>
</svg>
