<svg width="24" height="24" viewBox="0 0 24 24" fill="none" xmlns="http://www.w3.org/2000/svg">
<path d="M7.48452 10.9365C9.66343 10.9365 11.43 8.1725 11.43 5.71195C11.43 3.2507 9.66343 2.02539 7.48452 2.02539C5.30561 2.02539 3.53906 3.25141 3.53906 5.71195C3.53906 8.17179 5.30561 10.9365 7.48452 10.9365Z" fill="#273472"/>
<path d="M11.6936 12.1543C11.4594 12.1543 11.079 12.1543 10.6121 12.1543C10.0826 13.3462 9.15756 15.1083 8.44992 16.4187L7.98665 13.1193C8.60628 13.0115 9.05501 12.7116 9.05501 12.3549C9.05501 11.9075 8.35247 11.5444 7.48483 11.5444C6.61719 11.5444 5.91465 11.9075 5.91465 12.3549C5.91465 12.7109 6.3641 13.0108 6.98374 13.1193L6.51974 16.4187C5.8121 15.1076 4.88701 13.3462 4.35756 12.1543C3.89065 12.1543 3.51028 12.1543 3.2761 12.1543C1.96119 12.1543 0.514648 13.5646 0.514648 15.231V22.1234H14.455V15.231C14.455 13.5646 13.0085 12.1543 11.6936 12.1543ZM12.975 18.0525H10.0819V17.1392H12.975V18.0525Z" fill="#273472"/>
<rect x="7.48438" y="13.0171" width="16" height="10" rx="2" fill="#F0F0F0"/>
<path d="M12.4686 20.1852C12.7886 20.1852 12.9486 20.3212 12.9486 20.5932C12.9486 20.8758 12.7886 21.0172 12.4686 21.0172H9.42858C9.28991 21.0172 9.18058 20.9772 9.10058 20.8972C9.02058 20.8118 8.98058 20.7078 8.98058 20.5852C8.98058 20.4252 9.04191 20.2812 9.16458 20.1532L10.9886 18.1932C11.2126 17.9478 11.3752 17.7238 11.4766 17.5212C11.5832 17.3132 11.6366 17.1078 11.6366 16.9052C11.6366 16.6545 11.5646 16.4625 11.4206 16.3292C11.2766 16.1958 11.0712 16.1292 10.8046 16.1292C10.5859 16.1292 10.3726 16.1718 10.1646 16.2572C9.96191 16.3372 9.75658 16.4492 9.54858 16.5932C9.49524 16.6305 9.44191 16.6625 9.38858 16.6892C9.33524 16.7105 9.28191 16.7212 9.22858 16.7212C9.13791 16.7212 9.05791 16.6785 8.98858 16.5932C8.92458 16.5078 8.89258 16.4065 8.89258 16.2892C8.89258 16.2092 8.90591 16.1398 8.93258 16.0812C8.96458 16.0225 9.01258 15.9665 9.07658 15.9132C9.31124 15.7265 9.58591 15.5798 9.90058 15.4732C10.2152 15.3612 10.5299 15.3052 10.8446 15.3052C11.3939 15.3052 11.8312 15.4438 12.1566 15.7212C12.4872 15.9985 12.6526 16.3718 12.6526 16.8412C12.6526 17.1665 12.5832 17.4732 12.4446 17.7612C12.3059 18.0438 12.0712 18.3612 11.7406 18.7132L10.3566 20.1852H12.4686Z" fill="#273472"/>
<path d="M17.4893 19.1132C17.6493 19.1132 17.7693 19.1478 17.8493 19.2172C17.9293 19.2865 17.9693 19.3852 17.9693 19.5132C17.9693 19.7798 17.8093 19.9132 17.4893 19.9132H17.0813V20.5452C17.0813 20.7105 17.0333 20.8385 16.9373 20.9292C16.8466 21.0198 16.7266 21.0652 16.5773 21.0652C16.4279 21.0652 16.3053 21.0198 16.2093 20.9292C16.1186 20.8385 16.0733 20.7105 16.0733 20.5452V19.9132H13.9773C13.8333 19.9132 13.7213 19.8732 13.6413 19.7932C13.5613 19.7078 13.5213 19.6038 13.5213 19.4812C13.5213 19.3532 13.5639 19.2305 13.6493 19.1132L16.1213 15.5612C16.1746 15.4865 16.2413 15.4305 16.3213 15.3932C16.4013 15.3505 16.4839 15.3292 16.5693 15.3292C16.7079 15.3292 16.8279 15.3745 16.9293 15.4652C17.0306 15.5558 17.0813 15.6838 17.0813 15.8492V19.1132H17.4893ZM14.5853 19.1132H16.0733V16.9612L14.5853 19.1132Z" fill="#273472"/>
<path d="M20.8941 17.0092C21.8115 17.0092 22.2701 17.5452 22.2701 18.6172V20.5852C22.2701 20.7345 22.2248 20.8518 22.1341 20.9372C22.0488 21.0225 21.9288 21.0652 21.7741 21.0652C21.6195 21.0652 21.4968 21.0225 21.4061 20.9372C21.3155 20.8518 21.2701 20.7345 21.2701 20.5852V18.6172C21.2701 18.3345 21.2115 18.1292 21.0941 18.0012C20.9821 17.8678 20.8035 17.8012 20.5581 17.8012C20.2701 17.8012 20.0381 17.8918 19.8621 18.0732C19.6915 18.2545 19.6061 18.4972 19.6061 18.8012V20.5852C19.6061 20.7345 19.5608 20.8518 19.4701 20.9372C19.3795 21.0225 19.2568 21.0652 19.1021 21.0652C18.9475 21.0652 18.8248 21.0225 18.7341 20.9372C18.6488 20.8518 18.6061 20.7345 18.6061 20.5852V15.8012C18.6061 15.6625 18.6515 15.5505 18.7421 15.4652C18.8381 15.3798 18.9608 15.3372 19.1101 15.3372C19.2595 15.3372 19.3795 15.3772 19.4701 15.4572C19.5608 15.5372 19.6061 15.6465 19.6061 15.7852V17.6492C19.7395 17.4412 19.9155 17.2838 20.1341 17.1772C20.3581 17.0652 20.6115 17.0092 20.8941 17.0092Z" fill="#273472"/>
</svg>
