<svg width="30" height="13" viewBox="0 0 30 13" fill="none" xmlns="http://www.w3.org/2000/svg">
<path d="M5.04 12.144C4.53867 12.144 4.048 12.1013 3.568 12.016C3.088 11.9307 2.64 11.808 2.224 11.648C1.81867 11.488 1.45067 11.2853 1.12 11.04C0.992 10.944 0.901333 10.8373 0.848 10.72C0.805333 10.592 0.794667 10.4693 0.816 10.352C0.848 10.224 0.901333 10.1173 0.976 10.032C1.06133 9.94667 1.16267 9.89867 1.28 9.888C1.39733 9.87733 1.52533 9.91467 1.664 10C2.144 10.3413 2.656 10.592 3.2 10.752C3.744 10.9013 4.35733 10.976 5.04 10.976C6 10.976 6.70933 10.8 7.168 10.448C7.63733 10.0853 7.872 9.61067 7.872 9.024C7.872 8.544 7.70133 8.17067 7.36 7.904C7.02933 7.62667 6.46933 7.408 5.68 7.248L4.016 6.912C3.01333 6.69867 2.26133 6.352 1.76 5.872C1.26933 5.38133 1.024 4.73067 1.024 3.92C1.024 3.41867 1.12533 2.96533 1.328 2.56C1.53067 2.144 1.81333 1.792 2.176 1.504C2.53867 1.20533 2.97067 0.976 3.472 0.815999C3.97333 0.655999 4.528 0.575999 5.136 0.575999C5.808 0.575999 6.432 0.671999 7.008 0.863999C7.59467 1.04533 8.12267 1.32267 8.592 1.696C8.70933 1.792 8.78933 1.904 8.832 2.032C8.87467 2.14933 8.88 2.26667 8.848 2.384C8.816 2.49067 8.75733 2.58133 8.672 2.656C8.59733 2.73067 8.496 2.77333 8.368 2.784C8.25067 2.79467 8.11733 2.752 7.968 2.656C7.54133 2.336 7.09867 2.10667 6.64 1.968C6.18133 1.81867 5.67467 1.744 5.12 1.744C4.55467 1.744 4.064 1.82933 3.648 2C3.24267 2.17067 2.92267 2.42133 2.688 2.752C2.464 3.072 2.352 3.44533 2.352 3.872C2.352 4.384 2.50667 4.78933 2.816 5.088C3.136 5.38667 3.65333 5.60533 4.368 5.744L6.032 6.096C7.10933 6.32 7.904 6.66133 8.416 7.12C8.93867 7.568 9.2 8.18133 9.2 8.96C9.2 9.42933 9.104 9.86133 8.912 10.256C8.72 10.6507 8.44267 10.992 8.08 11.28C7.71733 11.5573 7.28 11.7707 6.768 11.92C6.256 12.0693 5.68 12.144 5.04 12.144ZM11.8918 12.112C11.6784 12.112 11.5131 12.0533 11.3958 11.936C11.2891 11.808 11.2358 11.6373 11.2358 11.424V1.392C11.2358 1.168 11.2944 1.00267 11.4118 0.896C11.5291 0.778666 11.6944 0.719999 11.9078 0.719999H15.6998C16.9051 0.719999 17.8331 1.01867 18.4838 1.616C19.1344 2.20267 19.4598 3.03467 19.4598 4.112C19.4598 5.17867 19.1344 6.01067 18.4838 6.608C17.8331 7.20533 16.9051 7.504 15.6998 7.504H12.5478V11.424C12.5478 11.6373 12.4944 11.808 12.3878 11.936C12.2811 12.0533 12.1158 12.112 11.8918 12.112ZM12.5478 6.4H15.5398C16.4038 6.4 17.0544 6.208 17.4918 5.824C17.9398 5.42933 18.1638 4.85867 18.1638 4.112C18.1638 3.35467 17.9398 2.784 17.4918 2.4C17.0544 2.00533 16.4038 1.808 15.5398 1.808H12.5478V6.4ZM19.9801 12.112C19.8095 12.112 19.6708 12.0747 19.5641 12C19.4681 11.9147 19.4095 11.808 19.3881 11.68C19.3775 11.5413 19.4095 11.3867 19.4841 11.216L23.8841 1.2C23.9801 0.986666 24.0921 0.837333 24.2201 0.752C24.3588 0.656 24.5081 0.608 24.6681 0.608C24.8281 0.608 24.9721 0.656 25.1001 0.752C25.2388 0.837333 25.3508 0.986666 25.4361 1.2L29.8521 11.216C29.9375 11.3867 29.9695 11.5413 29.9481 11.68C29.9375 11.8187 29.8841 11.9253 29.7881 12C29.6921 12.0747 29.5588 12.112 29.3881 12.112C29.1961 12.112 29.0415 12.064 28.9241 11.968C28.8068 11.8613 28.7108 11.712 28.6361 11.52L27.4521 8.784L28.0921 9.12H21.2121L21.8681 8.784L20.7001 11.52C20.6041 11.7227 20.5028 11.872 20.3961 11.968C20.2895 12.064 20.1508 12.112 19.9801 12.112ZM24.6521 2.256L22.0761 8.32L21.6921 8.016H27.6121L27.2601 8.32L24.6841 2.256H24.6521Z" fill="#24262B"/>
</svg>
