<svg width="24" height="24" viewBox="0 0 24 24" fill="none" xmlns="http://www.w3.org/2000/svg">
<path d="M14.3223 16.25V23.15C14.3223 23.6 13.9316 24 13.4922 24C13.0527 24 12.6621 23.6 12.6621 23.15V16.25C12.6621 15.8 13.0527 15.4 13.4922 15.4C13.9316 15.4 14.3223 15.8 14.3223 16.25Z" fill="#273472"/>
<path d="M9.4873 2.74998C9.4873 1.24999 10.708 0 12.1728 0C13.6377 0 14.8584 1.24999 14.8584 2.74998C14.8584 4.29997 13.6377 5.49996 12.1728 5.49996C10.6592 5.49996 9.4873 4.29997 9.4873 2.74998Z" fill="#273472"/>
<path d="M2.6033 8.05004C2.55447 8.00004 1.62675 6.90005 2.16385 5.65006C2.6033 4.65007 2.50565 3.85007 2.50565 3.70007C2.50565 3.75007 3.38455 4.95006 2.84744 6.15006C2.55447 6.80005 2.55447 7.30005 2.6033 8.05004Z" fill="#273472"/>
<path d="M2.31016 19.6998H3.14023C3.14023 19.7998 3.0914 19.8998 3.04258 19.9498C2.79844 20.5498 2.79844 21.0998 2.79844 21.1498V21.7498C2.74961 21.6498 2.01719 20.7498 2.31016 19.6998Z" fill="#273472"/>
<path d="M4.89842 13.0996C4.70311 12.6496 4.5078 11.9996 4.80076 11.2996C5.24021 10.2996 5.14256 9.49961 5.14256 9.34961C5.14256 9.39961 5.58201 10.0496 5.63083 10.7996L4.89842 13.0996Z" fill="#273472"/>
<path d="M11.6367 16.25V23.15C11.6367 23.6 11.2461 24 10.8066 24C10.3672 24 9.97656 23.6 9.97656 23.15V16.25C9.97656 15.8 10.3672 15.4 10.8066 15.4C11.2949 15.4 11.6367 15.8 11.6367 16.25Z" fill="#273472"/>
<path d="M16.8117 19.6998H17.5441C17.5441 19.9998 17.4953 20.2998 17.3976 20.5998C17.1046 21.2498 17.1046 21.8498 17.1535 21.8498V22.4998C17.1535 22.4498 16.1769 21.3498 16.714 20.0998C16.714 19.9498 16.7628 19.7998 16.8117 19.6998Z" fill="#273472"/>
<path d="M17.5449 7.64996C17.6426 7.24996 17.8867 7.14996 17.9355 5.59998C17.9355 5.64998 18.7168 6.74997 18.2773 7.89996C18.1309 8.29996 18.0332 8.64995 18.0332 8.84995C17.6914 7.99996 17.6914 7.89996 17.5449 7.64996Z" fill="#273472"/>
<path d="M23.8921 17.4499C23.9409 18.0999 23.4527 18.6499 22.8179 18.6499C18.9605 18.6499 19.9859 18.6499 16.0797 18.6499C15.5426 18.6499 15.0543 18.1999 15.0543 17.5999V16.1999C15.0543 15.2999 14.3707 14.5999 13.4918 14.5999C12.9547 14.5999 12.4664 14.8499 12.1734 15.3499C11.8316 14.7999 11.2945 14.5499 10.7086 14.5999C9.87853 14.6999 9.2926 15.4499 9.2926 16.2999V17.5999C9.2926 18.1499 8.85315 18.6499 8.26722 18.6499H1.23602C0.650085 18.6499 0.161807 18.2499 0.112979 17.6499C0.0641514 17.2999 0.210635 16.9999 0.405946 16.7499C0.601257 16.5499 0.894224 16.3999 1.18719 16.3999H8.95081V10.9999C8.95081 10.6999 8.51136 10.5999 8.4137 10.8999L6.75356 15.4499H5.2399C5.2399 15.2999 5.2399 15.1999 5.28872 15.0499L7.58363 8.44994C8.02308 7.24995 9.14612 6.44995 10.3668 6.44995H14.0777C15.2984 6.44995 16.3726 7.19995 16.8121 8.34994L19.5464 15.0999C19.5953 15.2499 19.6441 15.3499 19.6441 15.4999H18.1304L15.8844 10.4499C15.7379 10.1499 15.3472 10.2499 15.3472 10.5499V16.4999H22.7202C23.3062 16.4499 23.8433 16.8999 23.8921 17.4499Z" fill="#273472"/>
<path d="M21.9392 4.59997C21.8904 4.54997 20.9627 3.44998 21.4998 2.19999C21.9392 1.19999 21.8416 0.399999 21.8416 0.25C21.8416 0.3 22.7205 1.49999 22.1834 2.69998C21.8904 3.34998 21.9392 3.84997 21.9392 4.59997Z" fill="#273472"/>
<path d="M17.9942 0.25C17.9942 0.25 18.0106 0.645407 18.1671 0.911214C18.3116 1.1565 18.3402 1.6461 17.9516 1.63841C17.7191 1.63381 17.589 1.2549 17.7921 0.911214C17.9951 0.567531 17.9942 0.25 17.9942 0.25Z" fill="#273472"/>
<path d="M19.8468 3.69995C19.8468 3.69995 19.8631 4.09536 20.0196 4.36116C20.1641 4.60645 20.1927 5.09606 19.8041 5.08836C19.5716 5.08376 19.4416 4.70485 19.6446 4.36116C19.8477 4.01748 19.8468 3.69995 19.8468 3.69995Z" fill="#273472"/>
<path d="M19.5597 9.34961C19.5597 9.34961 19.576 9.74502 19.7325 10.0108C19.877 10.2561 19.9056 10.7457 19.517 10.738C19.2845 10.7334 19.1545 10.3545 19.3575 10.0108C19.5605 9.66714 19.5597 9.34961 19.5597 9.34961Z" fill="#273472"/>
<path d="M22.3731 6.66138C22.3731 6.66138 22.3895 7.05678 22.546 7.32259C22.6905 7.56787 22.7191 8.05748 22.3305 8.04979C22.098 8.04519 21.968 7.66627 22.171 7.32259C22.374 6.97891 22.3731 6.66138 22.3731 6.66138Z" fill="#273472"/>
<path d="M22.086 11.8557C22.086 11.8557 22.1024 12.2511 22.2589 12.5169C22.4034 12.7622 22.432 13.2518 22.0434 13.2441C21.8109 13.2395 21.6808 12.8606 21.8839 12.5169C22.0869 12.1732 22.086 11.8557 22.086 11.8557Z" fill="#273472"/>
<path d="M1.44051 13.2443C1.44051 13.2443 1.45685 13.6397 1.6134 13.9055C1.75786 14.1508 1.78648 14.6404 1.39785 14.6327C1.1654 14.6281 1.03534 14.2492 1.23837 13.9055C1.4414 13.5618 1.44051 13.2443 1.44051 13.2443Z" fill="#273472"/>
<path d="M3.3243 10.4672C3.3243 10.4672 3.34063 10.8626 3.49719 11.1284C3.64165 11.3737 3.67027 11.8633 3.28164 11.8556C3.04919 11.851 2.91913 11.4721 3.12216 11.1284C3.32519 10.7847 3.3243 10.4672 3.3243 10.4672Z" fill="#273472"/>
<path d="M0.867269 7.96106C0.867269 7.96106 0.883603 8.35647 1.04016 8.62227C1.18462 8.86756 1.21324 9.35716 0.824605 9.34947C0.592157 9.34487 0.462095 8.96596 0.665127 8.62227C0.868158 8.27859 0.867269 7.96106 0.867269 7.96106Z" fill="#273472"/>
<path d="M6.6368 4.80566C6.6368 4.80566 6.65313 5.20107 6.80969 5.46688C6.95415 5.71216 6.98277 6.20177 6.59414 6.19408C6.36169 6.18948 6.23163 5.81056 6.43466 5.46688C6.63769 5.1232 6.6368 4.80566 6.6368 4.80566Z" fill="#273472"/>
<path d="M3.89852 1.0365C3.89852 1.0365 3.91485 1.43191 4.07141 1.69771C4.21587 1.943 4.24449 2.4326 3.85586 2.42491C3.62341 2.42031 3.49334 2.04139 3.69638 1.69771C3.89941 1.35403 3.89852 1.0365 3.89852 1.0365Z" fill="#273472"/>
</svg>
