<svg width="24" height="24" viewBox="0 0 24 24" fill="none" xmlns="http://www.w3.org/2000/svg">
<path fill-rule="evenodd" clip-rule="evenodd" d="M12.4593 11.4034C10.4778 11.4034 8.92085 12.9695 8.92085 14.9627C8.92085 16.8847 10.4778 18.522 12.4593 18.522C14.3701 18.522 15.9978 16.8847 15.9978 14.9627C15.9978 12.9695 14.3701 11.4034 12.4593 11.4034ZM21.5885 17.8102C21.9424 17.8102 22.2255 17.5254 22.2255 17.1695C22.2255 16.8136 21.9424 16.5288 21.5885 16.5288C21.2347 16.5288 20.9516 16.8136 20.9516 17.1695C20.9516 17.5254 21.2347 17.8102 21.5885 17.8102ZM3.40085 17.8102C3.7547 17.8102 4.03777 17.5254 4.03777 17.1695C4.03777 16.8136 3.7547 16.5288 3.40085 16.5288C3.047 16.5288 2.76393 16.8136 2.76393 17.1695C2.76393 17.5254 3.047 17.8102 3.40085 17.8102ZM22.7208 10.8339C22.9332 11.1186 22.5793 11.4034 22.367 11.1898C21.8716 10.6915 21.0932 10.6915 20.5978 11.1898C20.3855 11.4034 20.0316 11.1186 20.2439 10.8339C20.9516 10.1932 22.0132 10.1932 22.7208 10.8339ZM2.26854 10.8339C2.05623 11.1186 2.41008 11.4034 2.62239 11.1898C3.11777 10.6915 3.89623 10.6915 4.39162 11.1898C4.60393 11.4034 4.95777 11.1186 4.74546 10.8339C4.03777 10.1932 2.97623 10.1932 2.26854 10.8339ZM1.63162 12.0441H5.17008C5.38239 12.0441 5.66546 12.2576 5.66546 12.5424V19.2339C5.66546 19.4475 5.38239 19.7322 5.17008 19.7322H4.46239V20.4441H5.24085C5.52393 20.4441 5.52393 20.8 5.24085 20.8H1.56085C1.27777 20.8 1.27777 20.4441 1.56085 20.4441H2.48085V19.7322H1.63162C1.34854 19.7322 1.13623 19.4475 1.13623 19.2339V12.5424C1.13623 12.2576 1.34854 12.0441 1.63162 12.0441ZM3.40085 18.7356C4.25008 18.7356 4.887 18.0237 4.887 17.1695C4.887 16.3153 4.25008 15.6746 3.40085 15.6746C2.55162 15.6746 1.84393 16.3153 1.84393 17.1695C1.84393 18.0237 2.55162 18.7356 3.40085 18.7356ZM3.40085 13.1119C3.82546 13.1119 4.25008 13.4678 4.25008 13.9661C4.25008 14.4644 3.82546 14.8203 3.40085 14.8203C2.90546 14.8203 2.55162 14.4644 2.55162 13.9661C2.55162 13.4678 2.90546 13.1119 3.40085 13.1119ZM1.06546 9.62373C0.853157 9.83729 1.207 10.1932 1.41931 9.97966C2.55162 8.76949 4.46239 8.84068 5.5947 9.97966C5.807 10.1932 6.16085 9.83729 5.94854 9.62373C4.60393 8.27119 2.41008 8.27119 1.06546 9.62373ZM1.70239 10.2644C1.49008 10.478 1.77316 10.8339 2.05623 10.6203C2.8347 9.7661 4.17931 9.7661 4.95777 10.6203C5.17008 10.8339 5.52393 10.478 5.31162 10.2644C4.32085 9.2678 2.69316 9.2678 1.70239 10.2644ZM23.3578 12.0441H19.8193C19.5362 12.0441 19.3239 12.2576 19.3239 12.5424V19.2339C19.3239 19.4475 19.5362 19.7322 19.8193 19.7322H20.527V20.4441H19.7485C19.4655 20.4441 19.4655 20.8 19.7485 20.8H23.4285C23.7116 20.8 23.7116 20.4441 23.4285 20.4441H22.5085V19.7322H23.3578C23.6408 19.7322 23.8532 19.4475 23.8532 19.2339V12.5424C23.8532 12.2576 23.6408 12.0441 23.3578 12.0441ZM21.5885 13.1119C22.0839 13.1119 22.4378 13.4678 22.4378 13.9661C22.4378 14.4644 22.0839 14.8203 21.5885 14.8203C21.1639 14.8203 20.7393 14.4644 20.7393 13.9661C20.7393 13.4678 21.1639 13.1119 21.5885 13.1119ZM21.5885 18.7356C22.4378 18.7356 23.1455 18.0237 23.1455 17.1695C23.1455 16.3153 22.4378 15.6746 21.5885 15.6746C20.7393 15.6746 20.0316 16.3153 20.0316 17.1695C20.0316 18.0237 20.7393 18.7356 21.5885 18.7356ZM23.9239 9.62373C24.1362 9.83729 23.7824 10.1932 23.5701 9.97966C22.4378 8.76949 20.527 8.76949 19.3947 9.97966C19.1824 10.1932 18.8285 9.83729 19.0408 9.62373C20.3855 8.27119 22.5793 8.27119 23.9239 9.62373ZM23.287 10.2644C23.4993 10.478 23.1455 10.8339 22.9332 10.6203C22.1547 9.7661 20.8101 9.7661 20.0316 10.6203C19.8193 10.7627 19.607 10.6203 19.607 10.4068C19.607 10.3356 19.607 10.3356 19.607 10.3356C19.7485 10.122 20.2439 9.7661 20.527 9.69492C21.447 9.2678 22.5793 9.55254 23.287 10.2644ZM12.4593 13.8237C13.0962 13.8237 13.5916 14.322 13.5916 14.9627C13.5916 15.6034 13.0962 16.1017 12.4593 16.1017C11.8224 16.1017 11.327 15.6034 11.327 14.9627C11.327 14.322 11.8224 13.8237 12.4593 13.8237ZM12.5301 6.70509C11.7516 6.70509 11.1855 7.34576 11.1855 8.05763C11.1855 8.84068 11.7516 9.41017 12.5301 9.41017C13.2378 9.41017 13.8747 8.84068 13.8747 8.05763C13.8747 7.34576 13.2378 6.70509 12.5301 6.70509ZM16.4224 4H8.567C7.71777 4 7.08085 4.71186 7.08085 5.5661V19.3051C7.08085 20.1593 7.71777 20.8 8.567 20.8H16.4224C17.2008 20.8 17.9085 20.1593 17.9085 19.3051V5.5661C17.9085 4.71186 17.2008 4 16.4224 4ZM12.5301 6.20678C11.4685 6.20678 10.6193 7.06102 10.6193 8.05763C10.6193 9.12542 11.4685 9.97966 12.5301 9.97966C13.5208 9.97966 14.4408 9.12542 14.4408 8.05763C14.4408 7.06102 13.5208 6.20678 12.5301 6.20678ZM12.4593 10.8339C10.1947 10.8339 8.3547 12.6847 8.3547 14.9627C8.3547 17.2407 10.1947 19.0203 12.4593 19.0203C14.7239 19.0203 16.5639 17.2407 16.5639 14.9627C16.5639 12.6847 14.7239 10.8339 12.4593 10.8339ZM12.4593 13.2542C11.5393 13.2542 10.7608 13.9661 10.7608 14.9627C10.7608 15.8881 11.5393 16.6712 12.4593 16.6712C13.3793 16.6712 14.1578 15.8881 14.1578 14.9627C14.1578 13.9661 13.3793 13.2542 12.4593 13.2542Z" fill="#273472"/>
</svg>
