<svg width="24" height="24" viewBox="0 0 24 24" fill="none" xmlns="http://www.w3.org/2000/svg">
<g clip-path="url(#clip0_11296_77330)">
<path d="M21.2197 5.53796V8.28969H21.6238C22.3843 8.28969 23.0004 7.67365 23.0004 6.91359C23.0004 6.154 22.3843 5.53796 21.6238 5.53796H21.2197Z" fill="#273472"/>
<path d="M9.05096 18.5994C7.94578 18.5994 7.05878 17.7281 7.05878 16.623V9.25049H4.8584V19.5534C4.8584 20.1024 5.29524 20.524 5.84474 20.524H15.817C16.3661 20.524 16.8205 20.1024 16.8205 19.5534V18.5994H9.05096Z" fill="#273472"/>
<path d="M7.05829 6.76909C7.05829 6.10266 6.50974 5.53796 5.84283 5.53796H2.37518C1.61557 5.53796 1 6.15352 1 6.91311C1 7.67222 1.61557 8.28779 2.37518 8.28779H5.84331C6.50974 8.28779 7.05877 7.77205 7.05877 7.10562L7.05829 6.76909Z" fill="#273472"/>
<path d="M5.81316 3.47559C5.28125 3.47559 4.85059 3.88865 4.85059 4.43862H5.53936C6.98156 4.43862 8.159 5.63171 8.159 7.07341V16.6662C8.159 17.2157 8.59584 17.6368 9.14487 17.6368H19.1167C19.6662 17.6368 20.1211 17.2157 20.1211 16.6662V5.49814C20.1211 4.39441 19.2184 3.47606 18.1137 3.47606H5.81316V3.47559Z" fill="#273472"/>
</g>
<defs>
<clipPath id="clip0_11296_77330">
<rect width="22" height="22" fill="white" transform="translate(1 1)"/>
</clipPath>
</defs>
</svg>
