<svg width="24" height="24" viewBox="0 0 24 24" fill="none" xmlns="http://www.w3.org/2000/svg">
<path d="M18.6434 6.55893H5.3566C4.7726 6.55893 4.2992 7.03233 4.2992 7.61633V15.3287C4.2992 15.9127 4.7726 16.3861 5.3566 16.3861H18.6434C19.2274 16.3861 19.7008 15.9127 19.7008 15.3287V7.61633C19.7008 7.03233 19.2274 6.55893 18.6434 6.55893ZM7.6758 13.9275C7.6758 14.2511 7.4134 14.5135 7.0898 14.5135C6.7662 14.5135 6.5038 14.2511 6.5038 13.9275V9.01733C6.5038 8.69373 6.7662 8.43133 7.0898 8.43133C7.4134 8.43133 7.6758 8.69373 7.6758 9.01733V13.9275ZM12.603 14.0819C12.603 14.2977 12.4282 14.4725 12.2124 14.4725H11.2868C11.071 14.4725 10.8962 14.2977 10.8962 14.0819V13.1563C10.8962 12.9405 11.0712 12.7657 11.2868 12.7657H12.2124C12.4282 12.7657 12.603 12.9405 12.603 13.1563V14.0819ZM12.603 11.9769C12.603 12.1925 12.4282 12.3673 12.2124 12.3673H11.2868C11.071 12.3673 10.8962 12.1925 10.8962 11.9769V11.0511C10.8962 10.8355 11.0712 10.6605 11.2868 10.6605H12.2124C12.4282 10.6605 12.603 10.8355 12.603 11.0511V11.9769ZM12.603 9.77873C12.603 9.99453 12.4282 10.1693 12.2124 10.1693H11.2868C11.071 10.1693 10.8962 9.99453 10.8962 9.77873V8.85313C10.8962 8.63733 11.0712 8.46253 11.2868 8.46253H12.2124C12.4282 8.46253 12.603 8.63753 12.603 8.85313V9.77873ZM15.0494 14.0819C15.0494 14.2977 14.8746 14.4725 14.6588 14.4725H13.7332C13.5174 14.4725 13.3426 14.2977 13.3426 14.0819V13.1563C13.3426 12.9405 13.5174 12.7657 13.7332 12.7657H14.6588C14.8746 12.7657 15.0494 12.9405 15.0494 13.1563V14.0819ZM15.0494 11.9769C15.0494 12.1925 14.8746 12.3673 14.6588 12.3673H13.7332C13.5174 12.3673 13.3426 12.1925 13.3426 11.9769V11.0511C13.3426 10.8355 13.5174 10.6605 13.7332 10.6605H14.6588C14.8746 10.6605 15.0494 10.8355 15.0494 11.0511V11.9769ZM15.0494 9.77873C15.0494 9.99453 14.8746 10.1693 14.6588 10.1693H13.7332C13.5174 10.1693 13.3426 9.99453 13.3426 9.77873V8.85313C13.3426 8.63733 13.5174 8.46253 13.7332 8.46253H14.6588C14.8746 8.46253 15.0494 8.63753 15.0494 8.85313V9.77873ZM17.496 14.0819C17.496 14.2977 17.321 14.4725 17.1054 14.4725H16.1796C15.964 14.4725 15.789 14.2977 15.789 14.0819V13.1563C15.789 12.9405 15.964 12.7657 16.1796 12.7657H17.1054C17.321 12.7657 17.496 12.9405 17.496 13.1563V14.0819ZM17.496 11.9769C17.496 12.1925 17.321 12.3673 17.1054 12.3673H16.1796C15.964 12.3673 15.789 12.1925 15.789 11.9769V11.0511C15.789 10.8355 15.964 10.6605 16.1796 10.6605H17.1054C17.321 10.6605 17.496 10.8355 17.496 11.0511V11.9769ZM17.496 9.77873C17.496 9.99453 17.321 10.1693 17.1054 10.1693H16.1796C15.964 10.1693 15.789 9.99453 15.789 9.77873V8.85313C15.789 8.63733 15.964 8.46253 16.1796 8.46253H17.1054C17.321 8.46253 17.496 8.63753 17.496 8.85313V9.77873ZM20.8282 4.19873H3.1718C2.5248 4.19873 2 4.72353 2 5.37073V17.5741C2 18.2213 2.5248 18.7459 3.1718 18.7459H3.7854V19.4107C3.7854 19.6263 3.9602 19.8013 4.176 19.8013H7.5526C7.7684 19.8013 7.9432 19.6263 7.9432 19.4107V18.7459H16.0564V19.4107C16.0564 19.6263 16.2314 19.8013 16.447 19.8013H19.8236C20.0392 19.8013 20.2142 19.6263 20.2142 19.4107V18.7459H20.8278C21.475 18.7459 21.9996 18.2213 21.9996 17.5741V5.37073C22 4.72353 21.4754 4.19873 20.8282 4.19873ZM20.482 15.3287C20.482 16.3423 19.6572 17.1673 18.6434 17.1673H5.3566C4.3428 17.1673 3.518 16.3423 3.518 15.3287V7.61633C3.518 6.60253 4.3428 5.77773 5.3566 5.77773H18.6434C19.6572 5.77773 20.482 6.60253 20.482 7.61633V15.3287Z" fill="#273472"/>
</svg>
