<svg width="24" height="24" viewBox="0 0 24 24" fill="none" xmlns="http://www.w3.org/2000/svg">
<g clip-path="url(#clip0_11296_77337)">
<path d="M11.9282 15.1585C13.3958 14.9206 14.3927 13.5379 14.1548 12.0703C13.9169 10.6026 12.5343 9.60571 11.0666 9.84363C9.59895 10.0815 8.60205 11.4642 8.83997 12.9318C9.07789 14.3995 10.4605 15.3964 11.9282 15.1585Z" fill="#273472"/>
<path d="M7.84838 11.0663C8.24701 10.0546 9.05457 9.24701 10.0663 8.84838C9.98718 8.54921 9.83079 8.2662 9.59618 8.03159L3.56458 2L1 4.56458L7.03159 10.5962C7.2662 10.8307 7.54917 10.9871 7.84838 11.0663Z" fill="#273472"/>
<path d="M10.8848 18.057H12.1152V20.6221H10.8848V18.057Z" fill="#273472"/>
<path d="M3.34277 11.8848H5.90789V13.1152H3.34277V11.8848Z" fill="#273472"/>
<path d="M10.8848 4.37769H12.1152V6.9428H10.8848V4.37769Z" fill="#273472"/>
<path d="M17.0225 11.8848H19.5875V13.1152H17.0225V11.8848Z" fill="#273472"/>
<path d="M15.1516 11.0663C15.4507 10.9872 15.7337 10.8308 15.9683 10.5962L21.9999 4.56458L19.4353 2L13.4038 8.03159C13.1691 8.2662 13.0128 8.54921 12.9336 8.84838C13.9454 9.24701 14.7529 10.0545 15.1516 11.0663Z" fill="#273472"/>
<path d="M15.1516 13.9336C14.7529 14.9454 13.9454 15.7529 12.9336 16.1515C13.0128 16.4507 13.1691 16.7337 13.4038 16.9683L19.4353 22.9999L21.9999 20.4353L15.9683 14.4038C15.7337 14.1692 15.4508 14.0128 15.1516 13.9336Z" fill="#273472"/>
<path d="M7.84838 13.9336C7.54921 14.0128 7.2662 14.1691 7.03159 14.4038L1 20.4353L3.56458 22.9999L9.59618 16.9683C9.83079 16.7337 9.98718 16.4507 10.0663 16.1515C9.05453 15.7529 8.24701 14.9454 7.84838 13.9336Z" fill="#273472"/>
</g>
<defs>
<clipPath id="clip0_11296_77337">
<rect width="21" height="21" fill="white" transform="translate(1 2)"/>
</clipPath>
</defs>
</svg>
