<svg width="213" height="24" viewBox="0 0 213 24" fill="none" xmlns="http://www.w3.org/2000/svg">
<path d="M4.48686 6.60592C5.09445 6.60592 5.587 6.13402 5.587 5.55189C5.587 4.96977 5.09445 4.49786 4.48686 4.49786C3.87927 4.49786 3.38672 4.96977 3.38672 5.55189C3.38672 6.13402 3.87927 6.60592 4.48686 6.60592Z" fill="#F4F7FA"/>
<path d="M1.10014 10.6397C1.70773 10.6397 2.20028 10.1678 2.20028 9.5857C2.20028 9.00358 1.70773 8.53168 1.10014 8.53168C0.49255 8.53168 0 9.00358 0 9.5857C0 10.1678 0.49255 10.6397 1.10014 10.6397Z" fill="#F4F7FA"/>
<path d="M1.89116 18.8213C1.28459 18.8213 0.791016 18.3484 0.791016 17.7672C0.791016 17.1861 1.28459 16.7132 1.89116 16.7132C2.49772 16.7132 2.9913 17.1861 2.9913 17.7672C2.9913 18.3484 2.49772 18.8213 1.89116 18.8213Z" fill="#F4F7FA"/>
<path d="M5.49174 23.0089C6.09934 23.0089 6.59189 22.537 6.59189 21.9548C6.59189 21.3727 6.09934 20.9008 5.49174 20.9008C4.88415 20.9008 4.3916 21.3727 4.3916 21.9548C4.3916 22.537 4.88415 23.0089 5.49174 23.0089Z" fill="#F4F7FA"/>
<path d="M3.9458 13.5682C3.9458 12.987 4.43938 12.5142 5.04594 12.5142C5.65251 12.5142 6.14608 12.987 6.14608 13.5682C6.14608 14.1493 5.65251 14.6222 5.04594 14.6222C4.4364 14.6222 3.9458 14.1522 3.9458 13.5682Z" fill="#F4F7FA"/>
<path d="M32.9449 7.48618C32.823 5.82822 31.3601 4.50641 29.6118 4.50641H25.2766V3.6404C25.2766 2.1904 24.0219 0.991089 22.5114 0.991089H16.4011C14.8907 0.991089 13.6359 2.1904 13.6359 3.6404V4.50641H7.4335C7.39187 4.50072 7.35024 4.49787 7.30862 4.49787C7.2551 4.49787 7.20455 4.50357 7.154 4.50926C6.65448 4.55199 6.2501 4.93942 6.21739 5.42086C6.21145 5.46359 6.20847 5.50632 6.20847 5.5519C6.20847 5.59463 6.21145 5.63736 6.21739 5.68009C6.2501 6.19571 6.69908 6.60592 7.2432 6.60592H9.47025C9.51187 6.60592 9.55053 6.61162 9.59215 6.61732C9.6873 6.62871 9.7765 6.6515 9.85975 6.68569C10.2314 6.83382 10.4931 7.18422 10.4931 7.59158V7.6628C10.4931 8.07017 10.2314 8.42341 9.85975 8.5687C9.73785 8.61712 9.60702 8.64276 9.46727 8.64276H3.84763C3.28269 8.64276 2.81885 9.08716 2.81885 9.62842V9.69964C2.81885 10.1042 3.08348 10.4574 3.45217 10.6055C3.57111 10.654 3.70491 10.6796 3.84466 10.6796H9.4643H10.3712C10.5109 10.6796 10.6447 10.7052 10.7637 10.7508C10.8529 10.785 10.9391 10.8334 11.0104 10.8847C11.2453 11.0585 11.397 11.3234 11.397 11.6168V11.6852C11.397 12.1068 11.0878 12.4658 10.6655 12.5854H7.7903C7.22536 12.5854 6.76152 13.0298 6.76152 13.5711V13.6423C6.76152 14.0468 7.02615 14.4 7.39484 14.5482C7.51378 14.5966 7.64758 14.6222 7.78733 14.6222H10.4485C10.5228 14.6336 10.5912 14.6536 10.6596 14.6792C11.0313 14.8273 11.2929 15.1806 11.2929 15.5851V15.6563C11.2929 16.1349 10.9331 16.5337 10.4604 16.622H4.80208C4.72774 16.622 4.65638 16.6277 4.58502 16.642C4.03495 16.7417 3.61273 17.2146 3.61273 17.7729V17.8555C3.61273 18.3284 3.91602 18.7415 4.34715 18.9153C4.48393 18.9722 4.63854 19.0007 4.80208 19.0007H10.5377C11.1026 19.0007 11.5635 19.4451 11.5635 19.9864V20.0576C11.5635 20.4621 11.3048 20.8154 10.9331 20.9635C10.8112 21.0119 10.6774 21.0376 10.5407 21.0376H10.2136C10.0947 21.0376 9.97572 21.0376 9.85975 21.0404C9.32455 21.0433 8.78637 21.0575 8.25117 21.0803C8.06979 21.0888 7.91221 21.123 7.77543 21.18L7.77246 21.1828C7.68623 21.2113 7.60892 21.2541 7.54351 21.3025C7.2878 21.4905 7.16887 21.7811 7.20157 22.1201C7.25212 22.6385 7.69812 22.969 8.41173 22.9918H8.48606C8.52769 22.9975 8.56932 22.9975 8.60797 22.9975H29.6207C29.7247 22.9975 29.8258 22.9946 29.9269 22.9832C29.9567 22.9804 29.9864 22.9747 30.0161 22.9718C30.0905 22.9605 30.1618 22.9548 30.2272 22.9405C30.2659 22.932 30.2956 22.9263 30.3283 22.9206C30.3967 22.9063 30.4621 22.8921 30.5246 22.875C30.5573 22.8636 30.593 22.8579 30.6227 22.8465C30.6911 22.8237 30.7535 22.8038 30.816 22.7781C30.8457 22.7667 30.8754 22.7582 30.9022 22.7468C30.9706 22.7183 31.036 22.6898 31.0984 22.6585C31.1252 22.6471 31.146 22.6385 31.1698 22.6271C31.2412 22.5901 31.3125 22.5531 31.3779 22.5132C31.3928 22.5018 31.4077 22.4961 31.4225 22.4847C31.5058 22.4363 31.5771 22.3822 31.6574 22.328C31.6574 22.3252 31.6604 22.3195 31.6634 22.3195C31.9042 22.14 32.1213 21.9292 32.3026 21.6899C32.3056 21.6871 32.3116 21.6785 32.3145 21.6728C32.371 21.6045 32.4186 21.5304 32.4662 21.4563C32.4781 21.4421 32.484 21.4278 32.4959 21.4107C32.5375 21.3452 32.5732 21.2797 32.6089 21.2113C32.6208 21.1914 32.6327 21.1658 32.6446 21.143C32.6743 21.0774 32.7041 21.0148 32.7278 20.9464C32.7397 20.9208 32.7516 20.898 32.7576 20.8723C32.7843 20.804 32.8051 20.7413 32.8289 20.6729C32.8349 20.6444 32.8438 20.6188 32.8497 20.5903C32.8527 20.5732 32.8616 20.5533 32.8676 20.5333C32.8795 20.4849 32.8854 20.4308 32.8973 20.3795C32.9003 20.3539 32.9092 20.3311 32.9122 20.3054C32.93 20.2086 32.9419 20.1146 32.9508 20.0177L32.9657 16.8328L32.9449 7.48618ZM23.2399 4.49787H15.6786V3.29001C15.6786 2.90258 15.9938 2.59207 16.4011 2.59207H22.5144C22.9217 2.59207 23.2428 2.90258 23.2428 3.29001V4.49787H23.2399Z" fill="#F4F7FA"/>
<path d="M52.7741 13.1637C53.5591 13.2121 54.231 13.3745 54.79 13.6565C55.349 13.9357 55.7772 14.2946 56.0686 14.7305C56.36 15.1664 56.5086 15.6763 56.5086 16.2603C56.5086 17.3342 56.0359 18.1746 55.0903 18.7814C54.1448 19.391 52.8692 19.693 51.2636 19.693H41.1602V7.16998H50.5143C52.1199 7.16998 53.3955 7.4634 54.341 8.04739C55.2866 8.63138 55.7593 9.42048 55.7593 10.409C55.7593 10.8505 55.6463 11.2864 55.4233 11.7137C55.2003 12.1439 54.8465 12.4829 54.3678 12.7335C53.8921 12.9842 53.3598 13.1267 52.7741 13.1637ZM44.9333 9.71105V12.1609H49.881C50.5649 12.1609 51.0882 12.0698 51.4509 11.8846C51.8107 11.6995 51.9921 11.3804 51.9921 10.9275C51.9921 10.7138 51.9296 10.503 51.8048 10.3007C51.6799 10.0985 51.4539 9.95034 51.1239 9.85348C50.7938 9.75947 50.3805 9.71105 49.881 9.71105H44.9333ZM50.4608 17.1519C51.1566 17.1519 51.6888 17.0494 52.0575 16.8471C52.4232 16.6448 52.6076 16.3058 52.6076 15.8273C52.6076 15.3515 52.4262 15.0125 52.0664 14.816C51.7037 14.6194 51.1714 14.5197 50.4608 14.5197H44.9333V17.1491H50.4608V17.1519Z" fill="#F4F7FA"/>
<path d="M58.0783 9.5857C58.7741 8.76241 59.7523 8.09296 61.0101 7.57165C62.2678 7.05318 63.6445 6.79395 65.1371 6.79395C66.157 6.79395 67.0876 6.90505 67.9291 7.1244C68.7705 7.3466 69.4752 7.63717 70.0491 8.0018C70.6229 8.36644 71.0333 8.78236 71.283 9.25524C71.5328 9.72528 71.6577 10.201 71.6577 10.6768C71.6577 11.3206 71.4733 11.896 71.1076 12.4031C70.7389 12.9102 70.2007 13.3688 69.4931 13.7819C68.7824 14.1921 67.8547 14.5653 66.71 14.9014C65.6009 15.2347 64.6524 15.5823 63.8615 15.9384C63.0706 16.2973 62.577 16.6306 62.3778 16.9411H71.9193V19.6958H57.897V18.1205C58.0724 16.9041 58.7236 15.8102 59.8564 14.8387C60.9893 13.8673 62.5146 13.1067 64.4324 12.5569C65.3898 12.272 66.0945 12.0441 66.5435 11.8761C66.9925 11.708 67.3166 11.5314 67.5158 11.3405C67.715 11.1496 67.8161 10.9531 67.8161 10.7508C67.8161 10.3577 67.5336 10.0472 66.9657 9.81929C66.3978 9.59424 65.7377 9.48029 64.9765 9.48029C64.1053 9.48029 63.255 9.65691 62.4284 10.0073C61.5988 10.3605 60.8436 10.8562 60.1597 11.5L58.0783 9.5857Z" fill="#F4F7FA"/>
<path d="M85.9211 13.1637C86.706 13.2121 87.378 13.3745 87.937 13.6565C88.496 13.9357 88.9241 14.2946 89.2155 14.7305C89.5069 15.1664 89.6556 15.6763 89.6556 16.2603C89.6556 17.3342 89.1828 18.1746 88.2373 18.7814C87.2918 19.391 86.0162 19.693 84.4106 19.693H74.3071V7.16998H83.6613C85.2669 7.16998 86.5425 7.4634 87.488 8.04739C88.4335 8.63138 88.9063 9.42048 88.9063 10.409C88.9063 10.8505 88.7933 11.2864 88.5703 11.7137C88.3473 12.1439 87.9935 12.4829 87.5148 12.7335C87.0361 12.9842 86.5038 13.1267 85.9211 13.1637ZM78.0773 9.71105V12.1609H83.025C83.7089 12.1609 84.2322 12.0698 84.5949 11.8846C84.9547 11.6995 85.1361 11.3804 85.1361 10.9275C85.1361 10.7138 85.0737 10.503 84.9488 10.3007C84.8239 10.0985 84.5979 9.95034 84.2679 9.85348C83.9378 9.75947 83.5245 9.71105 83.025 9.71105H78.0773ZM83.6048 17.1519C84.3006 17.1519 84.8328 17.0494 85.2015 16.8471C85.5672 16.6448 85.7516 16.3058 85.7516 15.8273C85.7516 15.3515 85.5702 15.0125 85.2104 14.816C84.8477 14.6194 84.3154 14.5197 83.6048 14.5197H78.0773V17.1491H83.6048V17.1519Z" fill="#F4F7FA"/>
<path d="M95.7212 19.938C97.0448 19.938 98.1178 18.91 98.1178 17.6419C98.1178 16.3738 97.0448 15.3458 95.7212 15.3458C94.3977 15.3458 93.3247 16.3738 93.3247 17.6419C93.3247 18.91 94.3977 19.938 95.7212 19.938Z" fill="#DE4A73"/>
<path d="M102.402 19.4508V9.54013H106.08V11.3833C106.491 10.7167 107.082 10.2039 107.855 9.84495C108.626 9.48601 109.479 9.30939 110.413 9.30939V12.2436C109.292 12.2436 108.355 12.4487 107.603 12.8617C106.85 13.2748 106.342 13.8787 106.08 14.6764V19.4537H102.402V19.4508Z" fill="#F4F7FA"/>
<path d="M117.2 16.8471C117.804 17.1861 118.64 17.357 119.71 17.357C120.296 17.357 120.887 17.2886 121.485 17.1519C122.083 17.0152 122.71 16.7075 123.37 16.2318L125.237 18.1091C123.855 19.277 121.946 19.861 119.505 19.861C118.434 19.861 117.462 19.7385 116.594 19.4935C115.723 19.2486 114.988 18.8925 114.391 18.4196C113.793 17.9495 113.338 17.3798 113.029 16.7103C112.717 16.0409 112.562 15.3031 112.562 14.4912C112.562 13.6793 112.714 12.9415 113.02 12.272C113.326 11.6054 113.766 11.0357 114.346 10.5628C114.926 10.0928 115.631 9.73381 116.466 9.48882C117.302 9.24383 118.22 9.12134 119.228 9.12134C120.15 9.12134 121.006 9.23529 121.794 9.46034C122.585 9.68539 123.263 10.0244 123.828 10.4716C124.396 10.9189 124.833 11.4772 125.145 12.1438C125.457 12.8104 125.612 13.5682 125.612 14.4143C125.612 14.796 125.582 15.0695 125.52 15.2375H116.071C116.219 15.9754 116.597 16.5081 117.2 16.8471ZM117.703 11.839C117.248 12.0014 116.903 12.2236 116.668 12.5113C116.433 12.7962 116.264 13.0782 116.166 13.3517L122.214 13.3147C121.827 12.1695 120.843 11.5969 119.264 11.5969C118.678 11.5969 118.158 11.6766 117.703 11.839Z" fill="#F4F7FA"/>
<path d="M137.99 13.5825C138.838 13.856 139.48 14.2206 139.923 14.6735C140.366 15.1265 140.586 15.682 140.586 16.3372C140.586 16.8272 140.461 17.2858 140.211 17.7131C139.962 18.1433 139.59 18.5193 139.091 18.8412C138.594 19.1631 137.964 19.4138 137.205 19.5933C136.447 19.7728 135.582 19.8611 134.61 19.8611C133.316 19.8611 132.091 19.6873 130.941 19.3426C129.79 18.9979 128.832 18.5564 128.074 18.0179L129.68 16.1036C130.266 16.5081 130.994 16.8357 131.865 17.0864C132.736 17.3371 133.688 17.4624 134.723 17.4624C135.282 17.4624 135.754 17.4254 136.141 17.3542C136.527 17.283 136.792 17.1804 136.935 17.0494C137.078 16.9183 137.149 16.7873 137.149 16.6563C137.149 16.3828 136.929 16.1805 136.486 16.0495C136.043 15.9184 135.332 15.8244 134.348 15.7646C132.383 15.6336 130.914 15.2917 129.941 14.7362C128.969 14.1807 128.485 13.4457 128.485 12.5285C128.485 11.5029 129.014 10.6796 130.072 10.0586C131.131 9.43759 132.6 9.12708 134.479 9.12708C135.549 9.12708 136.587 9.25242 137.589 9.50311C138.591 9.7538 139.441 10.0814 140.137 10.4859L138.57 12.4886C137.437 11.8334 136.043 11.5058 134.387 11.5058C133.715 11.5058 133.188 11.5542 132.808 11.6482C132.427 11.7422 132.186 11.8448 132.079 11.953C131.975 12.0613 131.922 12.1667 131.922 12.2749C131.922 12.537 132.148 12.7222 132.603 12.8304C133.058 12.9387 133.783 13.0156 134.779 13.064C136.076 13.1352 137.146 13.309 137.99 13.5825Z" fill="#F4F7FA"/>
<path d="M147.841 16.8471C148.444 17.1861 149.28 17.357 150.35 17.357C150.936 17.357 151.528 17.2886 152.125 17.1519C152.723 17.0152 153.35 16.7075 154.01 16.2318L155.878 18.1091C154.495 19.277 152.586 19.861 150.145 19.861C149.075 19.861 148.102 19.7385 147.234 19.4935C146.363 19.2486 145.628 18.8925 145.031 18.4196C144.433 17.9495 143.978 17.3798 143.669 16.7103C143.357 16.0409 143.202 15.3031 143.202 14.4912C143.202 13.6793 143.354 12.9415 143.66 12.272C143.966 11.6054 144.406 11.0357 144.986 10.5628C145.566 10.0928 146.271 9.73381 147.106 9.48882C147.942 9.24383 148.86 9.12134 149.868 9.12134C150.79 9.12134 151.646 9.23529 152.434 9.46034C153.225 9.68539 153.903 10.0244 154.468 10.4716C155.036 10.9189 155.473 11.4772 155.785 12.1438C156.098 12.8104 156.252 13.5682 156.252 14.4143C156.252 14.796 156.222 15.0695 156.16 15.2375H146.714C146.862 15.9754 147.237 16.5081 147.841 16.8471ZM148.346 11.839C147.891 12.0014 147.546 12.2236 147.311 12.5113C147.076 12.7962 146.907 13.0782 146.809 13.3517L152.857 13.3147C152.47 12.1695 151.486 11.5969 149.907 11.5969C149.318 11.5969 148.801 11.6766 148.346 11.839Z" fill="#F4F7FA"/>
<path d="M159.577 19.4508V9.54013H163.255V11.3833C163.665 10.7167 164.257 10.2039 165.03 9.84495C165.8 9.48601 166.653 9.30939 167.587 9.30939V12.2436C166.466 12.2436 165.529 12.4487 164.777 12.8617C164.025 13.2748 163.516 13.8787 163.255 14.6764V19.4537H159.577V19.4508Z" fill="#F4F7FA"/>
<path d="M178.214 19.4508H174.423L169.362 9.5401H173.228L176.347 16.1947L179.466 9.5401H183.275L178.214 19.4508Z" fill="#F4F7FA"/>
<path d="M193.672 9.46035C194.457 9.66831 195.12 9.97597 195.661 10.3805C196.203 10.785 196.616 11.2835 196.904 11.8732C197.19 12.4629 197.332 13.1352 197.332 13.8844V17.5678C197.332 18.2829 197.481 18.9096 197.781 19.4451H194.047C193.809 19.1004 193.693 18.7586 193.693 18.4253V18.4082C193.283 18.8127 192.718 19.146 192.004 19.4109C191.288 19.673 190.503 19.8041 189.643 19.8041C189.069 19.8041 188.493 19.7442 187.907 19.6246C187.321 19.505 186.786 19.3141 186.301 19.052C185.817 18.7899 185.424 18.4367 185.124 17.9951C184.823 17.5536 184.675 17.0351 184.675 16.4397C184.675 15.8443 184.823 15.3259 185.124 14.8843C185.421 14.4428 185.814 14.0924 186.301 13.8303C186.786 13.5682 187.321 13.3773 187.907 13.2577C188.493 13.1381 189.069 13.0782 189.643 13.0782C190.514 13.0782 191.305 13.2093 192.013 13.4714C192.724 13.7334 193.283 14.0724 193.693 14.4912V13.8474C193.693 12.3689 192.554 11.6282 190.277 11.6282C188.87 11.6282 187.63 11.8846 186.56 12.3974L185.718 10.1611C186.39 9.85063 187.22 9.60279 188.21 9.41762C189.2 9.23245 190.143 9.1413 191.038 9.1413C192.013 9.14699 192.89 9.2524 193.672 9.46035ZM193.767 16.3372C193.607 16.1235 193.375 15.9156 193.078 15.719C192.777 15.5224 192.414 15.3772 191.986 15.2803C191.558 15.1863 191.124 15.1379 190.69 15.1379C190.057 15.1379 189.489 15.2404 188.992 15.4427C188.496 15.6449 188.246 15.9782 188.246 16.4454C188.246 16.9098 188.496 17.2459 188.992 17.4482C189.489 17.6504 190.057 17.753 190.69 17.753C191.127 17.753 191.558 17.7046 191.986 17.6106C192.414 17.5165 192.78 17.3656 193.078 17.1633C193.375 16.961 193.607 16.7531 193.767 16.5366V16.3372Z" fill="#F4F7FA"/>
<path d="M210.329 13.5825C211.177 13.856 211.819 14.2206 212.262 14.6735C212.705 15.1265 212.925 15.682 212.925 16.3372C212.925 16.8272 212.8 17.2858 212.55 17.7131C212.301 18.1404 211.929 18.5193 211.429 18.8412C210.933 19.1631 210.302 19.4138 209.544 19.5933C208.786 19.7728 207.921 19.8611 206.949 19.8611C205.655 19.8611 204.43 19.6873 203.279 19.3426C202.129 18.9979 201.171 18.5564 200.413 18.0179L202.019 16.1036C202.604 16.5081 203.333 16.8357 204.204 17.0864C205.075 17.3371 206.027 17.4624 207.062 17.4624C207.62 17.4624 208.093 17.4254 208.48 17.3542C208.866 17.283 209.131 17.1804 209.274 17.0494C209.416 16.9183 209.488 16.7873 209.488 16.6563C209.488 16.3828 209.268 16.1805 208.825 16.0495C208.382 15.9184 207.671 15.8244 206.687 15.7646C204.721 15.6336 203.253 15.2917 202.28 14.7362C201.308 14.1807 200.823 13.4457 200.823 12.5285C200.823 11.5029 201.353 10.6796 202.411 10.0586C203.47 9.43759 204.939 9.12708 206.818 9.12708C207.888 9.12708 208.926 9.25242 209.928 9.50311C210.93 9.7538 211.78 10.0814 212.476 10.4859L210.909 12.4886C209.776 11.8334 208.382 11.5058 206.726 11.5058C206.054 11.5058 205.527 11.5542 205.147 11.6482C204.766 11.7422 204.525 11.8448 204.418 11.953C204.311 12.0613 204.261 12.1667 204.261 12.2749C204.261 12.537 204.487 12.7222 204.942 12.8304C205.396 12.9387 206.122 13.0156 207.118 13.064C208.414 13.1352 209.485 13.309 210.329 13.5825Z" fill="#F4F7FA"/>
</svg>
