<svg width="24" height="24" viewBox="0 0 24 24" fill="none" xmlns="http://www.w3.org/2000/svg">
<g clip-path="url(#clip0_9465_46067)">
<rect x="2.5" y="5.5" width="20" height="12" rx="0.5" stroke="#273472"/>
<path d="M5.93631 15.9843C5.80204 15.9843 5.68389 15.9502 5.58185 15.8821C5.48519 15.814 5.40463 15.7092 5.34018 15.5678L4.05932 12.668C4.01099 12.5527 3.99219 12.4453 4.00293 12.3458C4.01904 12.2462 4.06738 12.1676 4.14793 12.11C4.23386 12.0472 4.34933 12.0157 4.49433 12.0157C4.61785 12.0157 4.7172 12.0445 4.79239 12.1022C4.86758 12.1546 4.93471 12.2567 4.99379 12.4086L6.08131 15.057H5.83964L6.95939 12.4008C7.01846 12.2541 7.08559 12.1546 7.16078 12.1022C7.24134 12.0445 7.34875 12.0157 7.48301 12.0157C7.60116 12.0157 7.69514 12.0472 7.76496 12.11C7.83478 12.1676 7.87774 12.2462 7.89385 12.3458C7.90996 12.4401 7.89117 12.5449 7.83746 12.6601L6.53243 15.5678C6.47336 15.7092 6.3928 15.814 6.29076 15.8821C6.19409 15.9502 6.07594 15.9843 5.93631 15.9843Z" fill="#273472"/>
<path d="M10.3313 16C9.91781 16 9.55799 15.9188 9.25187 15.7564C8.94575 15.5887 8.70945 15.353 8.54297 15.0491C8.37648 14.7453 8.29324 14.389 8.29324 13.9804C8.29324 13.6713 8.33889 13.3962 8.43019 13.1552C8.52686 12.909 8.6638 12.702 8.84103 12.5344C9.01826 12.3615 9.23308 12.2305 9.48549 12.1415C9.7379 12.0472 10.0199 12 10.3313 12C10.5086 12 10.6992 12.0236 10.9033 12.0707C11.1127 12.1179 11.3088 12.1965 11.4914 12.3065C11.5773 12.3589 11.6337 12.4217 11.6605 12.4951C11.6874 12.5684 11.6928 12.6444 11.6766 12.723C11.6605 12.7963 11.6256 12.8618 11.5719 12.9194C11.5236 12.9718 11.4618 13.0059 11.3866 13.0216C11.3115 13.0321 11.2282 13.0138 11.1369 12.9666C11.0188 12.8985 10.8979 12.8487 10.7744 12.8173C10.6509 12.7806 10.5327 12.7623 10.42 12.7623C10.2427 12.7623 10.087 12.7911 9.95272 12.8487C9.81846 12.9011 9.70299 12.9797 9.60632 13.0845C9.51503 13.184 9.44521 13.3098 9.39688 13.4617C9.34854 13.6136 9.32437 13.7891 9.32437 13.9882C9.32437 14.3759 9.41836 14.6824 9.60632 14.9077C9.79966 15.1277 10.0709 15.2377 10.42 15.2377C10.5327 15.2377 10.6482 15.222 10.7664 15.1906C10.8899 15.1591 11.0134 15.1094 11.1369 15.0413C11.2282 14.9941 11.3088 14.9784 11.3786 14.9941C11.4538 15.0098 11.5155 15.0465 11.5639 15.1041C11.6122 15.1565 11.6417 15.222 11.6525 15.3006C11.6632 15.3739 11.6525 15.4473 11.6203 15.5206C11.5934 15.594 11.5397 15.6542 11.4591 15.7014C11.2819 15.8062 11.094 15.8821 10.8952 15.9293C10.6965 15.9764 10.5086 16 10.3313 16Z" fill="#273472"/>
<path d="M12.8099 15.9843C12.6488 15.9843 12.5253 15.9424 12.4394 15.8585C12.3534 15.7695 12.3105 15.6437 12.3105 15.4813V12.5108C12.3105 12.3484 12.3534 12.2253 12.4394 12.1415C12.5253 12.0576 12.6461 12.0157 12.8019 12.0157C12.9576 12.0157 13.0785 12.0576 13.1644 12.1415C13.2503 12.2253 13.2933 12.3484 13.2933 12.5108V13.0452L13.2047 12.8487C13.3228 12.5711 13.5054 12.3615 13.7524 12.22C14.0049 12.0733 14.2895 12 14.6064 12C14.9232 12 15.1837 12.0576 15.3878 12.1729C15.5918 12.2881 15.7449 12.4637 15.8469 12.6994C15.949 12.9299 16 13.2233 16 13.5796V15.4813C16 15.6437 15.957 15.7695 15.8711 15.8585C15.7852 15.9424 15.6617 15.9843 15.5005 15.9843C15.3394 15.9843 15.2132 15.9424 15.1219 15.8585C15.036 15.7695 14.993 15.6437 14.993 15.4813V13.6267C14.993 13.3281 14.934 13.1107 14.8158 12.9745C14.703 12.8382 14.5258 12.7701 14.2841 12.7701C13.9888 12.7701 13.7524 12.8618 13.5752 13.0452C13.4034 13.2233 13.3174 13.4617 13.3174 13.7603V15.4813C13.3174 15.8166 13.1483 15.9843 12.8099 15.9843Z" fill="#273472"/>
<path d="M3.5 8.5L21.5 8.5V10.5L3.5 10.5L3.5 8.5Z" fill="#273472" stroke="#273472"/>
</g>
<defs>
<clipPath id="clip0_9465_46067">
<rect width="24.0014" height="24" fill="white"/>
</clipPath>
</defs>
</svg>
